<?xml version="1.0" standalone="no"?>
<!DOCTYPE svg PUBLIC "-//W3C//DTD SVG 1.1//EN" "http://www.w3.org/Graphics/SVG/1.1/DTD/svg11.dtd" >
<svg xmlns="http://www.w3.org/2000/svg" xmlns:xlink="http://www.w3.org/1999/xlink" version="1.1">
<metadata></metadata>
<defs>
<font id="miss_chalkboard" horiz-adv-x="1197" >
<font-face units-per-em="2048" ascent="1638" descent="-410" />
<missing-glyph horiz-adv-x="835" />
<glyph horiz-adv-x="0" />
<glyph horiz-adv-x="0" />
<glyph unicode="&#xd;" horiz-adv-x="550" />
<glyph unicode=" "  horiz-adv-x="835" />
<glyph unicode="&#x09;" horiz-adv-x="835" />
<glyph unicode="&#xa0;" horiz-adv-x="835" />
<glyph unicode="!" horiz-adv-x="602" d="M225 1721h12q33 0 58 -81h24v23h35l11 -47l-11 -58h23v23h12q35 -46 70 -46v-24h-24l-23 12q0 -12 -12 -12l12 -58v-12q0 -23 -35 -23v-24q15 12 58 12l12 -58l-23 11l11 -58v-12h-23l12 -81l-24 -35l35 -70v-24l-70 -46q0 -11 94 -70v-24q-41 -81 -105 -81v-12 q11 0 11 -12q-22 -11 -35 -11q35 -39 35 -59h12q23 -11 70 -11v-12l-12 -23h35q-49 -102 -70 -105v-35q35 0 35 -24q0 -23 -35 -23l-23 12q-67 -35 -93 -35v-12h35v-35h-47q-23 0 -23 23l-24 -11q-11 0 -11 11l-24 -11q-23 0 -23 23q12 23 12 35l23 -12h12q0 19 23 47 q-47 0 -152 70l12 47l-12 58h12q0 12 -12 12l12 58v12h-47q12 20 12 46h35l-12 -23l24 -12h23v35q0 41 -47 82v23l24 35h-24v12l24 35q-35 0 -35 23v35q35 0 46 59q27 0 35 46h24v12q-70 0 -70 47h-24v35l47 -24l12 24v58l-70 -58q0 11 -12 11q0 55 58 94v12h12l23 -12 l12 23v12q-37 0 -82 23v24l24 35q0 26 -12 46q12 23 12 35h23q35 0 35 -58h23l-11 47l11 58q27 0 47 -12h12v12h-24v58zM202 1465q0 -19 93 -47q-11 20 -11 47h-82zM319 1138q11 -15 11 -82q16 0 47 70zM400 799h35q0 -23 -23 -23h-12v23zM319 321h46l70 -47l24 12h23v-35 q-47 0 -47 -70l35 -23l24 11q0 -15 58 -58q0 -23 -35 -23l12 -24v-35h-59l-23 12q-47 -82 -58 -82h-12l-23 12q-12 -47 -70 -47v12q-56 -9 -94 -58q-11 0 -46 93q-35 0 -35 35q0 17 -35 47v23q0 23 35 23q-35 77 -35 105q59 105 198 105q0 12 47 12z" />
<glyph unicode="&#x22;" horiz-adv-x="1115" d="M914 1686h35v-11l-24 -35q39 -35 59 -35q-24 -48 -24 -70h24v23h58v-12l-58 -46q81 -17 81 -47v-35l-70 -47q0 -12 -11 -35v-12h11v24h12l23 -12q0 12 12 12l12 -59q0 -30 -82 -46q0 11 -12 11q0 -23 -23 -23q0 12 -12 12q2 -33 94 -117l-12 -23l12 -70q-47 -6 -47 -35 h-23v70q-129 -29 -129 -47q-11 0 -11 -58h-59l-11 58q11 0 11 12q-23 0 -23 23v12h58v-35h12q0 35 35 35v11q-35 0 -35 35q-90 -46 -117 -46l-11 46q16 0 35 35h-47v94q0 29 47 35l-35 70q35 58 35 93h-24v24h47l12 70h11l24 -12q0 35 35 35v12h-24l-46 -12q-35 12 -35 23 l11 24q-11 22 -11 35h46q27 0 47 11l58 -35h12q0 47 23 47q24 0 24 23zM155 1651h24v-23l-12 -58h35l-12 58h24q11 0 11 -12l24 12h58q23 -50 23 -58h12l47 35q28 -24 46 -24q0 -32 -23 -70q12 -20 12 -46q0 -24 -47 -24v-23q60 -35 70 -35v-24q-40 0 -70 -81h-23 q0 -24 58 -24q0 -26 -12 -46q0 -35 47 -35v-47q-23 0 -23 -23q-32 0 -70 23v-12l11 -23q-23 0 -23 -35h-12l-35 23h-70v-11l117 -47q0 -17 -47 -35q-22 12 -35 12l12 23h-23l-35 -23v23l-94 -47h-11q-24 0 -24 35q12 23 12 35h35l58 12v12q-58 0 -58 58l-23 12 q-23 -12 -35 -12v47l23 -12v12q-12 0 -12 11q23 12 35 12q0 23 -46 23v24h23v11l-12 59l-23 -12h-12v23h35v24h-35v11q0 17 35 35q-14 80 -35 106v81h12l23 -11q20 52 70 81z" />
<glyph unicode="#" horiz-adv-x="1908" d="M867 1721q12 -22 12 -35q0 -35 -35 -35l11 -23v-12q-35 0 -35 -23l47 -35h35v12q-39 0 -58 11q11 23 11 35l82 -23h35q12 -63 12 -105v-12h-24v24h-11q-24 -4 -24 -24q47 0 47 -46h-12q-105 0 -105 -71h12l23 12q21 -12 47 -12q0 35 23 35h12l12 -46q-12 0 -12 -12h12 q7 58 70 58l35 -46q-27 -24 -70 -24v-23h23l82 12q0 -12 11 -12l47 93h23q0 -46 24 -46q0 28 93 128l-12 82q22 93 47 93q23 -11 35 -11v23l-23 35l23 12l47 -82l23 12h23v-24h24v24l81 -12v23h47q0 -16 47 -58q-59 -30 -59 -82q0 -93 -35 -93l-58 12q0 -15 58 -59v-12 l24 12q0 -12 11 -35l24 12q48 -59 58 -59l-11 24q0 30 105 46q0 -23 58 -23v-47l-70 -58q-23 12 -35 12q0 -24 35 -24l23 12q21 -12 47 -12v-23h-12l-23 12l-12 -24q12 -64 12 -93h-12q-23 0 -46 82h-47v-24q47 0 47 -23v-35q-44 0 -70 -93h-35v70l-71 -12v-12h24v-35h-12 l-82 47q-45 -53 -46 -105q23 -38 23 -58q-17 0 -35 -35q27 0 35 -59l58 12q18 -47 35 -47q0 73 94 82l47 -58h11v-35h-11q-23 11 -35 11q0 -11 -47 -35q0 -46 70 -46v-24q-38 0 -58 -23l11 -23v-12h-35v35h-12q-23 -4 -23 -23q94 -43 94 -59v-35h-59l-35 24q0 -47 -23 -47 h-12l-23 12v-24h-47l-23 12v-23h-35l11 23q-23 0 -23 23h-12q-58 -27 -58 -58h-35q-23 0 -23 35h-47q12 -23 12 -35l23 12h12l-12 -24h23v-35l-11 -23h11q23 12 35 12v-70l12 -24h-35v-23h23v-23h-46l-24 11q0 -58 -23 -58q-20 12 -47 12v-24l24 12h11v-12q0 -11 -11 -11 q11 -23 11 -35l35 23q24 -4 24 -23v-35h-12l-58 11q0 -23 -35 -23v-35h46q12 -23 12 -35l-23 -12h-59l-11 -46q-28 0 -35 81h-70q24 47 58 47v12q0 14 -70 58v-23h-58q0 12 -12 35l35 163q-23 12 -35 12v23h12l23 -12v12q-23 0 -23 23v35q29 0 93 12q-12 20 -12 47l-23 -12 q-35 12 -35 23q-32 -23 -82 -23v12h-11q0 -35 -105 -35q-12 81 -35 81q-20 0 -35 -81h-12l-35 23q-23 -12 -35 -12v-81q-18 0 -47 -24h-11l11 24l-23 11q-24 -70 -47 -70h-11q0 59 -35 59v-24q0 -18 46 -46h59v23h23v-47q-23 -23 -23 -105l-24 12q-35 -93 -35 -117h-11 l-59 12v-12q12 -22 12 -35h-12l24 -58h-35v35l-24 -12h-11v47h-24v-35h-70l-11 70l-35 -23q-23 11 -35 11v47q35 0 35 23v12h-12v-23h-35v58q0 12 12 12l-12 23q0 17 35 35l23 -12q0 35 24 35q-12 21 -24 105q35 0 35 35h-11l-35 -35q-85 18 -129 47h-35q0 -35 -23 -35h-12 v70l24 -12q0 13 11 35q-70 0 -70 24q4 23 24 23l23 -12l23 59q-11 0 -11 11h23v12h-23v23h11l35 -23l12 23v12h-23v58q3 24 23 24q0 -23 82 -59q0 70 46 70v35h47v-46h-12v-24l24 12q22 -12 35 -12l-12 24q10 55 105 93q0 32 23 70q-22 0 -58 70v23h12l23 -11v11 q-23 0 -23 35h-24v-35q-35 0 -35 105h-11q0 -58 -24 -58q-23 0 -23 -47q-79 14 -105 35q0 -58 -23 -58q-24 0 -24 35h-11l-35 -23q-24 0 -24 23v12q47 0 47 11v35q12 0 12 12v35q17 12 70 12v23q-82 0 -82 58h-70v24h58l24 11l-12 24l12 23l-24 -12q-23 0 -23 24v23 q23 0 23 23l59 -11h11q27 0 47 11q70 -28 70 -70h23l70 82v12h12q17 0 35 -35l23 11q12 0 12 -11q50 7 70 46h12l-12 24v23q0 27 58 35v35h-35v47q41 82 105 82v11q-81 49 -81 59h116q0 -28 59 -59l-12 24v11q12 35 70 35zM1019 1103q0 -51 -140 -82q-12 18 -12 70h-12 q0 -23 -11 -23l11 -24v-23q-38 0 -58 -23q-23 11 -35 11v-35h12l58 12v-35q0 -23 -23 -23l-35 23l-12 -23q0 -12 12 -12l-12 -58v-12q0 -17 47 -35q11 23 11 35h35q24 -4 24 -23v-12q0 -23 -35 -23v-24h46q31 47 59 47q28 23 46 23l59 -11q3 23 23 23h12v-35l23 12l23 -12 q0 18 24 47v23h-24v35q4 23 24 23l23 -11l12 23q-12 21 -12 47h23v35h-70v-24h-11l-35 24q-23 -12 -35 -12v23q0 12 11 12q-8 35 -46 47zM995 624v-46l-23 11h-23q0 -26 -12 -46l23 -12h12l-12 23q4 24 24 24q11 -21 11 -47l59 12v23q-35 0 -35 35v23h-24zM295 566 q0 -58 -46 -58q0 -24 35 -24q22 12 35 12v47q0 23 -24 23zM482 344q0 -23 -47 -70l24 12h11q12 0 12 -12l23 12q24 0 24 -35h11v35q-46 0 -46 58h-12zM1030 309q0 -23 35 -23q-11 -23 -11 -35v-12h11q0 35 35 35v12h-23v12l12 23q-20 -12 -59 -12zM960 158q19 0 59 -59h11 v-58h-23l-12 47h-11v-35q-31 46 -59 46q35 39 35 59z" />
<glyph unicode="$" horiz-adv-x="1605" d="M809 1838h11q24 -4 24 -23v-59h93v24h58q0 -47 82 -47v-23h-23q23 -27 23 -82h82v35h-24v35h94q23 0 23 -35l-35 -58v-12h12q0 23 11 23q13 0 35 -11l70 11h35v24h35q0 -36 12 -82q-12 0 -12 -12q47 -17 47 -35q-12 -20 -12 -46q12 0 12 -12l-23 -12l-24 12 q-21 -94 -46 -94q0 -93 -70 -93h-24v47h-70l-58 46h-12v-23h-46v35h-12l-58 -47q-17 0 -35 35v12l11 23h-35l12 -58v-58q0 -35 -47 -35v-12q0 -46 59 -82v-35q-44 -58 -59 -58q0 12 -11 12v-47h11q0 35 24 35q6 0 81 -82q9 0 70 12l47 -12q19 12 58 12l-11 -23 q22 -12 35 -12q22 12 35 12v-12l-12 -23q58 0 58 -59q-11 -22 -11 -35l58 35q47 -17 47 -35v-11l-12 -24h35v-35h-23l35 -58l-24 -12q12 -17 12 -70h23v35q59 0 59 -58l23 -35v-23l-12 -24q35 0 35 -23v-12q0 -23 -35 -23t-35 47h-11q-30 -47 -47 -47v-23h12q38 23 58 23 v-58h-35l12 -82q-24 0 -59 -70l-46 23q-24 -46 -59 -46q-22 11 -35 11l35 -46q0 -17 -35 -35l-23 11l-12 -46h-46q0 46 -59 46q0 12 -11 12l11 -23v-24q0 -16 -35 -35h-35l-46 35q0 -35 -24 -35q-28 24 -46 24q-23 -12 -35 -12l11 -23q0 -39 -70 -140v-24h-23q-52 82 -93 82 q0 -35 -24 -35h-35l-81 23l11 82v47q-23 0 -23 -35q-23 0 -23 23v12h23v11q-23 0 -23 24h-35v-12q11 -23 11 -35l-23 -12h-12q-23 0 -23 24v11q0 24 35 24q-18 46 -35 46q-12 -19 -12 -58h-23l-82 -12l12 47q-12 23 -12 35h-58q-23 0 -23 23v59l23 -12h12l23 12q0 35 -70 35 v35q27 0 47 23l58 -12l-12 24v11l35 47q-11 23 -11 35l23 12h12v-24l23 12h23q12 0 12 -12l23 12q75 -23 82 -23q35 0 70 105h35q-47 35 -47 58l-23 -12l-12 59h24l-24 35v11l35 47l-23 12q-61 -47 -128 -47q-47 18 -47 35v35h23q-11 19 -11 58h-12q0 -35 -23 -35 q-43 24 -94 24h-23v-24h-47q-29 24 -58 24l47 46v12l-59 -12h-11q0 74 -94 140q0 43 -35 152v23q59 0 59 35q-24 0 -24 24h12l35 -24l-12 82v35q82 57 82 70l93 152h35q0 -29 47 -35q0 47 35 47l-12 58h12l35 -23h23v23q82 -12 82 -58h12q2 93 46 93l70 -12h12q0 78 128 117 q-11 23 -11 35zM622 1289l-35 24q-23 -12 -35 -12v12q-117 0 -117 -94h-23l-23 12v-12l-24 12h-11q3 -23 23 -23l23 11q30 -93 70 -93l47 -23v23h23q0 -47 35 -47v-23q-23 0 -23 -12q12 -22 12 -35h23v24h23l35 -24q18 47 35 47q-11 23 -11 35h-12l-12 -58h-23v23l12 23h-12 q30 94 58 94q0 70 -35 70v81q-23 0 -23 -35zM144 1243q-47 -59 -47 -70v-12h12q0 26 46 35l12 23h-23l11 24h-11zM984 694q0 -17 -35 -46l23 -59q-41 -11 -47 -11v-12q47 0 47 -23v-35q-35 0 -35 -35q27 0 82 -82q0 26 46 35q0 47 24 47q26 0 46 11q21 -11 47 -11 q0 52 12 70q-47 0 -47 23l12 58q-55 70 -175 70z" />
<glyph unicode="%" horiz-adv-x="1664" d="M1427 1616l12 -23l-12 -23h12q0 11 11 11l12 -23v-12q0 -58 -47 -58v-12h35q4 24 24 24q23 0 23 -59h12v35h23q0 -49 82 -58v-12q0 -23 -47 -23l12 -24v-23q0 -23 -24 -23v23h-23q0 -47 -12 -47q-22 12 -35 12q0 -17 -70 -58l12 -24q-52 0 -82 -81q-37 23 -58 23l-58 -12 v-11q58 0 58 -24v-23q0 -23 -23 -23l-24 11q-11 -22 -11 -35h-70q0 -70 -59 -70v-11q24 0 24 -12l-12 -58h-23v35h-35q-25 -105 -105 -105l11 -59q-11 -35 -23 -35h-35q0 -19 -82 -46q0 -47 -23 -47h-23l-24 12l12 -24v-46q-67 0 -93 -70l-47 -47l-47 23q0 -23 -58 -93v-23 h35v-24q-32 0 -47 -35q-29 0 -58 -23l-23 12v-24h35v-23q-27 0 -82 -35q0 -58 -47 -58v-24h-46q0 37 -82 70v-11q31 -70 82 -70l-12 -59h-58q-12 70 -35 70l-35 -23q-24 0 -24 58q23 12 35 12v35h-23q0 -35 -12 -35q-70 12 -70 35v35l70 12q0 23 -46 23v47q81 71 81 128h12 q12 0 12 -12q54 35 70 35q0 24 -35 24v23q0 16 70 35q0 93 105 93q11 23 11 35h35l24 -11l11 23q-26 0 -81 35v12q3 23 23 23h47l23 -12v12q-23 0 -23 23v12q0 7 70 70h11l47 -35v12l-12 81h59l23 -11q0 58 58 58l-11 58h70l23 -11q0 11 12 11q-12 47 -59 47v12q4 23 24 23 h35l23 -58h12v11q-12 23 -12 35q43 59 58 59l47 11q4 -23 23 -23q0 23 35 23q-49 48 -58 94l70 11v24l-12 23q39 0 47 47q105 21 105 47q0 83 93 116q0 35 24 35h11l47 -46q0 23 23 70h59zM1474 1593l58 -12q0 -35 -35 -35l23 -35v-11h-35q0 29 -11 93zM424 1546 q22 -11 35 -11q0 11 11 11v-23h-23v-35q35 0 35 -35l35 23q35 0 35 -35h12v24q-12 0 -12 11l23 12h24v-117h35v-47q-24 -35 -35 -81h35v-24q-38 0 -105 -93l-129 -70q-8 0 -70 12l-23 -12l-23 12l-59 -12l24 58l-24 12q0 -47 -23 -47h-12q0 24 -23 24v11q0 11 23 94v11 q-35 33 -35 82q48 23 70 23v12h-35v23q76 0 94 82l23 24h35q0 11 82 81zM1182 636q65 0 117 -82q42 24 93 24v-12l-12 -58q70 0 70 -35v-12h-58q0 -12 -23 -12v-35h35v24q23 -4 23 -24v-11q-30 0 -35 -59q-61 -36 -82 -105q-23 0 -58 -46q-23 11 -35 11v-11l23 -35v-12h-11 q-76 0 -105 105h-24v-23h-46v23h35l-12 23l-23 -11h-24q0 23 -46 70v23q31 0 70 -23h11v11q-23 0 -23 35l-58 -11v11q23 88 23 105h23v-11l-11 -24h11q45 129 70 129l47 46h12v-23l-24 -35h12q35 0 35 70z" />
<glyph unicode="&#x26;" horiz-adv-x="1675" d="M1124 1803q23 -4 23 -23v-24q0 -11 -12 -11l12 -24l-12 -23q35 -12 35 -23q39 23 70 23l12 -23l-12 -24q24 0 24 -46h23q12 81 35 81h12l-12 -23h12q0 12 11 12q0 -59 35 -59v-11l-11 -24q11 0 11 -11q-17 0 -35 -47q12 -23 12 -35h12v23h35q16 0 35 -70h11v-35 q0 -12 -11 -12l11 -23q-46 -30 -46 -58v-12h-47q-28 23 -47 23v24h47v-24h23v12q-11 23 -11 35q20 12 46 12q0 23 -23 23q-58 -26 -58 -35l-59 12h-58q0 -47 -35 -47h-23q-82 28 -82 58q0 49 -58 71q0 -17 -35 -35l-47 35h-47l-46 -35q-68 70 -82 70q-47 0 -47 -47h-35v47 h-23l-35 -47q0 -30 -47 -47q0 -12 -11 -12q11 -81 58 -81v-47q38 -23 58 -23v-35l-11 -24l23 -11h47l35 23h11q12 0 12 -12l23 12h35l94 -82v24h-24v11q4 24 24 24h58q0 -18 23 -47l-11 -23q46 0 46 -59h-11q6 -46 35 -46v-24l-24 12h-23q0 -39 -12 -58h24v-24 q0 -23 -24 -23l-23 12l-12 -24l12 -81q-12 0 -12 11l-23 -11h-35l-47 35q-22 -12 -35 -12l12 -23v-24h-47q-37 49 -151 59q-35 -12 -35 -24q11 -22 11 -35q-86 -70 -128 -70q-82 -16 -82 -58q-23 -50 -23 -58q23 -75 23 -82l-11 -23q23 -65 58 -94l23 12h47l12 -58 q23 0 23 23q70 0 117 -58l-12 -24v-11h23l-11 81l23 12h35l23 -12q0 69 105 94v-35h-11l-24 11v-35h24q49 70 81 70q24 0 24 70l58 -11h35v58l47 82v23h-24v23q24 70 47 70l35 24q17 0 35 -35h-35v-12h35l70 58q8 0 105 35h12v-11l-47 -47l117 -70q0 -31 58 -93l-23 -35 q42 -66 70 -175q30 0 46 -47q-28 -91 -46 -117q23 0 23 -11v-35q23 -4 23 -24v-11h-35q0 23 -11 23q-40 0 -59 -82q23 -11 35 -11v-24q-46 0 -58 -35q-26 0 -47 -11q-77 31 -93 70l47 58q-18 47 -35 47l11 -24q-27 -70 -46 -70q-29 35 -47 35l12 59v23q-24 28 -24 47h-11 l-24 -12l12 -23v-24h-12l-23 12v-47h-23q0 47 -35 47v-23h-35q-11 0 -94 23v-23h12l23 11q0 -23 70 -35v-23q0 -23 -93 -35q-23 27 -23 70q-43 0 -59 -70q-25 0 -93 -47q-26 0 -47 -11l-23 11q-20 -11 -47 -11q0 23 -23 23h-12v-23h-11q-24 0 -24 35h-11l-35 -47 q-12 0 -12 -23h-47q-9 0 -35 35h-35v35h-23v-24l-58 12q-41 -12 -47 -12q0 12 -12 12q0 -12 -11 -12l-24 35q-38 -23 -70 -23q0 19 -46 47q0 12 -12 35q8 70 35 70v23h-12q-23 0 -23 -35q-12 0 -12 12l-23 -12q-23 0 -23 23l11 70l-23 12q-23 -12 -35 -12l-12 24q0 39 35 81 v12q-17 0 -70 35v12q44 70 105 70q-35 45 -35 70h12l-12 23q12 20 12 47q-34 0 -58 46l93 70l47 -35q0 27 11 47q-19 12 -58 12v35h12l23 -12v23h23l24 -11l-12 23v12q4 23 23 23q24 0 24 -35h11v70l24 23l-12 24v11h23v-23h24q0 43 23 70v23h-12l-35 -23q-46 0 -58 117 l-82 81v24q0 23 35 23v23l-23 35q12 23 12 35h11l35 -23h12v70q-38 -23 -70 -23l-12 47l70 58l24 -12l-12 24v58q70 0 70 47h58q0 46 35 46q62 -11 70 -11q23 11 35 11l-11 59h11l24 -12v23h35v-23h11q17 0 35 35l105 -12l82 12q0 -18 47 -35v47h23l12 -59h11q0 61 82 70 q27 0 35 -58h35q0 47 47 70zM295 1231q0 -12 -11 -35q70 -8 70 -47q23 0 23 24v11q-26 0 -82 47z" />
<glyph unicode="'" horiz-adv-x="497" d="M167 1721h35q0 -58 12 -58q38 23 58 23q23 -46 35 -140l47 47h35q28 -23 46 -23v-35q-38 23 -70 23q-23 -4 -23 -23q23 0 23 -12l24 12q16 0 35 -35v-24q0 -23 -47 -23v-12q32 -38 58 -117h12v-23q-23 12 -35 12l-58 -12v-12q12 0 35 -11q20 11 46 11v-11 q-11 -35 -23 -35l12 -24v-35q-96 -107 -152 -128v-23h-70v35q12 35 70 35v58h-35q0 -35 -23 -35q-24 0 -24 35h-46q0 -47 -47 -47v-11l12 -24h-35l-12 70h35v24l-12 70q0 35 47 35v23l-47 12v93q0 32 24 70q-7 34 -59 94v46h35l35 -23l35 47l12 23h-35v-23h-35v11 q0 70 70 70z" />
<glyph unicode="(" horiz-adv-x="1092" d="M914 1861h23q0 -23 23 -23v-12l-23 -35q18 0 47 -23q0 12 11 12l12 -24v-11q0 -24 -23 -24v24h-47q-38 -35 -58 -35v-12q39 0 58 -12q4 24 23 24q54 -59 82 -59v-35h-12l-35 24h-58q0 -39 -12 -59h12q18 47 35 47q35 -12 35 -70v-23q-23 0 -70 -47h-47l-23 12 q0 -17 -35 -35l-23 11q0 -20 -47 -82h-58l-35 24l-12 -24v-35h23v-35q-57 -40 -93 -105q-82 -42 -82 -81l-46 -70h-24l12 -24v-11h-23l11 -59l-46 -11l11 -24v-35q47 0 47 -23q0 -6 -58 -117q15 0 58 -58v-23q0 -17 -35 -35q-23 0 -23 23q11 0 11 12h-23v-12q0 -16 70 -70 l-12 -23q35 0 35 -59q-22 -11 -35 -11l24 -35l23 11q23 -3 23 -23l24 12q16 0 35 -70q49 0 105 -82q58 0 58 -93q-23 0 -35 -94q28 0 82 -23v-23q-43 0 -82 -47q0 -35 35 -35v-23h-70q-23 0 -23 -35h-35v23q23 0 23 12v35q26 0 47 11v-23h23q-12 70 -23 70q-37 0 -82 -47 h-23q-24 0 -24 24q12 22 12 35h-12l-70 -47h-35q-16 0 -35 35q59 0 59 35l-35 47l-24 -12l-23 12q0 -24 -23 -24h-12q0 13 -12 35h12q-12 23 -12 35l12 24q-5 58 -35 58l12 23l-12 24l-23 -12q-14 0 -59 70q-20 0 -70 -23v11q12 23 12 35h70q-24 70 -47 70h-11l11 -58h-11 q-82 40 -82 58v35q38 -23 70 -23h12q0 12 11 35l-23 12q0 -24 -12 -24q-23 0 -93 47q12 47 47 47q-59 108 -59 140q37 0 70 128h12l-47 82l47 105q47 17 47 35v23q0 23 -47 23v35q0 24 35 24h35q0 23 35 23v35h-23v35h23v12h-23v46q70 0 70 59h23q0 -13 12 -35q45 13 81 70 h24q3 -23 23 -23q-12 22 -12 35h-58l-35 -24h-35v59q140 58 140 81v12h12q16 0 35 -35v-12l-24 -35l24 -11q22 11 35 11l-12 24q4 23 23 23q23 -12 35 -12v47h-70q-23 48 -23 70l23 -12q0 39 187 47q0 17 35 47v11l-12 24q53 46 82 46v-70h23q0 35 24 35h70v12l-24 35v12 l24 -12v23zM424 1616h23v-23h-23v23z" />
<glyph unicode=")" horiz-adv-x="882" d="M179 1826q93 0 151 -46h24v-12h-35l23 -47q-12 -22 -12 -35l24 12q67 -50 93 -93q35 0 35 46h12q70 0 70 -58h-24v-12q67 0 105 -46q0 -35 -35 -35v-24l47 -11l23 11q47 -17 47 -35v-47q-46 -23 -70 -23v-35q0 -17 35 -35q8 58 35 58h35v-11q0 -12 -12 -12l12 -23v-12 l-12 -23l70 -59q-11 -37 -81 -81l11 -24v-46l-23 -35q16 0 93 -94q12 0 12 -46q-12 0 -23 -70q23 -4 23 -24q0 -23 -23 -23l11 -23v-35q-72 -24 -81 -24q81 -58 81 -70q-70 0 -70 -105q0 -35 -23 -35h-12l-58 12v-23q70 -12 70 -35v-24h-47q-11 -20 -11 -46q11 -23 11 -35 h-70q0 -47 -35 -59q-14 -93 -81 -93q-83 -67 -129 -117h-11q-12 0 -12 12l-23 -12q-57 27 -105 105l-24 -11h-23v23q70 0 70 35q0 23 -35 23v35h47v59q3 23 23 23l-12 58v24q24 0 24 35h23l23 -12l12 23q-12 0 -12 12q19 0 47 23l-12 24v11q31 0 70 47h12l35 -23v11 q-23 0 -23 164q56 0 81 58l-58 -12q-23 12 -35 12v23q23 0 23 47h70v12l-81 35v11q0 12 58 59h35l23 -12l24 35q-24 0 -24 35h-23q0 -47 -23 -47h-12l-47 70q0 35 -35 35h-11v35h46v12l-58 12v11q4 24 23 24h12v-24h12q0 35 23 35v12q-51 0 -105 35v23q23 0 23 12 q-5 30 -93 117l-23 -12q-56 55 -117 70q0 12 -12 12h-35q-42 70 -70 70v12h47v-24q17 12 70 12v23q-93 0 -93 94l23 11h12v-23q16 1 46 58v12l-58 -12v24q4 23 23 23l59 -12q0 12 11 12v-35l59 12q0 -12 11 -12q-11 19 -11 58l-24 -11q-20 11 -46 11v35zM797 1173h12 q23 -4 23 -24v-11h-23v-12h23v-47l-12 -23l-23 12l-23 -12l-12 47q35 46 35 70z" />
<glyph unicode="*" horiz-adv-x="1279" d="M435 1768q94 -7 94 -35v-12q-35 0 -35 -23h-35q0 18 -24 47v23zM622 1698h23q70 -31 70 -47v-11l-58 11q12 -20 12 -46l81 23l12 -23v-47l-23 -35q16 0 70 -35l46 -12l-11 -23q38 -23 70 -23v11q0 29 -47 35v12q70 68 70 82h47q38 -35 58 -35q23 11 35 11l12 -23l-24 -35 v-12q0 -21 105 -58l24 12h23q0 -40 12 -59l-24 -12q0 24 -81 24q0 -12 -59 -12l12 -23q-20 -129 -128 -129q0 -11 -12 -11l-23 11v-35l58 12l12 -23v-24h-24l-81 -11q0 23 -24 23h-35v-12l24 -35l-12 -23q12 0 12 -12q-56 0 -82 -58h-12v-12l47 -11l58 70h35q0 -35 82 -35 v-24h-23v-35q32 0 46 -35q59 -34 59 -46v-24h-12l-117 47h-23l23 -35l24 12h11l12 -59l35 24h12q23 -4 23 -24l-12 -23q12 -23 12 -35h-47l-11 47q-8 -12 -105 -12v-12h23q0 -35 -70 -35v-11q35 0 35 -24v-23q-18 0 -47 -23h-11q0 35 -24 35l12 23v12h-35l23 46 q-28 0 -58 35l-12 -23v-23h35v-12q-23 -47 -35 -47q-22 12 -35 12q-23 -54 -23 -117q12 0 12 -11q-12 0 -12 -12l23 12h12l12 -59q-39 -23 -70 -23l-82 35q-20 -12 -47 -12l-11 24l23 58q-12 0 -12 12q-22 -12 -35 -12l12 -23q-12 -23 -12 -35h-35q0 23 -35 46l-23 -11h-23 v46q7 70 35 70l-12 24v11h35l23 -11l12 46q-47 6 -47 35h-23l-47 -46q-81 0 -81 70v58l23 35h-23q-44 -102 -70 -105h-12q-32 0 -70 23v-11l58 -82v-12q0 -23 -23 -23h-12q0 31 -70 140v23q0 11 59 59q-24 38 -24 70q23 11 35 11v24l-11 23h23v12l-12 23h12q28 0 117 -47 l23 35v47l-47 -47q-22 12 -35 12l12 58q-23 0 -23 24v23q46 0 46 23q-32 0 -46 35h-35v35l23 35v12l-23 -12h-12q-23 0 -23 24v11h35q-24 88 -24 94l24 12h11v-12l-11 -23q39 0 58 -12l-23 47l23 11h70q23 -3 23 -23v-23h-35v23h-46v-12h23l-12 -23v-35q24 0 59 -47 q58 0 58 -58v-12h35q0 82 35 82q23 -12 35 -12l12 23q-12 47 -47 47v24l58 11q24 -49 24 -58q23 0 23 23q-19 0 -35 24l12 23v93q-11 0 -70 35l11 24q-11 0 -11 11q67 7 105 35h23q28 -23 47 -23v-12l-12 -23l23 -12q0 24 35 24q-23 37 -23 58zM540 1581l12 -23v-23l-12 -24 l24 -11q46 17 46 35l-46 35q0 11 -24 11z" />
<glyph unicode="+" horiz-adv-x="1465" d="M669 1500q37 0 105 -47l58 -12v-70h-12q-22 12 -35 12l129 -105v-35q-20 0 -35 -70q23 -38 23 -59q-12 0 -12 -11q35 0 35 -35h12q0 34 47 58l46 -35l82 70q24 0 47 -58q35 0 35 -24l23 12h35l23 -12q0 12 12 12q0 -23 12 -23q-17 -52 -47 -94h23q0 24 12 24q93 0 93 -47 l12 -58q-12 0 -12 -12h35q-7 -35 -93 -35q-12 23 -12 35h-11q0 -24 -35 -70v-23h-24q-16 0 -35 35v35l59 11v35h-12q0 -16 -82 -58q0 -40 -93 -58h-35v-24h-35l12 24h-12l-47 -35h-11q0 27 -47 58l23 47q-21 0 -105 -82q0 -58 82 -58v-12q0 -26 -12 -47q24 -38 24 -58h-12 l12 -23l-24 -47l12 -58q-18 0 -58 -82h23q23 0 23 35h24v-12l-12 -23q23 -4 23 -23v-12q-70 0 -70 -35q35 0 35 -23v-24q0 -23 -23 -23q-29 0 -35 47q-58 -42 -58 -82h11q21 12 47 12h12v-24q-1 -16 -59 -46q-19 0 -35 81h-11v-11q11 -21 11 -47l-35 23h-11v-35h-12 q-23 0 -23 24l11 81h-23q-41 -46 -82 -46l-23 35v11l12 24h-35q0 23 46 23l-23 35v47l12 58q-24 0 -24 23v47h35v12h-35v23l24 35h-35v12l46 58h24v35q-70 27 -70 82l-59 -47q-46 24 -46 58h-12v-23l12 -23q-18 -47 -35 -47q-47 18 -47 35q-88 -23 -93 -23q-70 72 -70 93 q-24 -4 -24 -23v-24h24v-46h-35q0 11 11 11q-70 93 -70 129v23h24l-12 23l-23 -11q-24 0 -24 23v35h35v-23q17 0 35 58h12v47q-47 0 -47 70l24 11h58q0 35 23 35h12v-46l-47 -12q0 12 -11 12v-12q0 -23 35 -23v-12l-12 -23h12q11 22 11 35l59 -12h11q0 35 24 35 q58 -12 58 -70h12q39 47 70 47q11 -23 11 -35h12q28 23 47 23l-12 58l23 12q33 -35 82 -35q0 17 47 47h-24v70h-35l12 81h23v-11q-11 -23 -11 -35h35q-12 70 -59 70v11q47 70 59 70l58 -11l12 23v12q-59 0 -59 23zM855 1430h35q0 -28 59 -71v-11q-105 19 -105 46 q11 23 11 36zM190 1009q-38 -105 -70 -105v-11h70v11q-35 0 -35 24q4 23 24 23h58l-12 58h-35zM1287 951v-23q35 0 35 -24h12q17 0 35 35q-18 0 -47 24q-22 -12 -35 -12zM260 858l-11 -24v-35q23 0 23 -23h12q0 39 11 58zM1322 811h70q23 -4 23 -23q-23 0 -23 -35 q-39 35 -70 35v23z" />
<glyph unicode="," horiz-adv-x="660" d="M447 718h12q38 -35 70 -35v-12q0 -23 -24 -23l-35 23h-11l-24 -12l-11 47zM389 659v-23l58 12h47l23 -59q38 24 58 24l12 -24q0 -16 -35 -35h-12v24q-23 -4 -23 -24l12 -23q15 12 58 12q0 -12 23 -12v-70q-39 0 -46 -70q-75 0 -82 -35l-23 12h-12v-24l23 12 q24 -38 24 -58h-12l12 -24v-11q-39 0 -59 -12l12 -23v-12q-11 -44 -93 -58l-12 -24v-58h-23l35 -47v-23q-11 0 -94 -23h-58v11q35 0 35 24q-48 49 -93 58q0 -12 -12 -12l12 -23v-23h-82l-12 58q45 7 70 70v12q-54 0 -70 46q28 94 47 94q20 -12 47 -12l-12 23v82q4 23 23 23 h24q0 -35 23 -35h12l-12 59q4 23 23 23q-23 38 -23 58q47 9 47 24l-12 58q80 58 152 58z" />
<glyph unicode="-" d="M564 1149q18 0 70 -93q22 12 35 12l-12 23v12q0 17 35 35l35 -24h12v35h58q23 0 23 -35h24v24h11l70 -35q0 23 105 35q4 -24 24 -24q64 12 93 12v-82h-12l-23 12l-35 -58l23 -12q4 23 24 23q23 0 23 -35q-12 -22 -12 -35h-11l-24 12v-23l12 -24q-19 -52 -70 -81l-23 11 v-70h-12q-23 0 -23 24q-48 -24 -70 -24v12q0 12 11 12l-23 58q12 0 12 12q-13 0 -35 11q0 -23 -24 -23h-23l-58 12v-24l23 -35v-11q-19 0 -35 -24l-70 59q0 -13 -12 -35h24v-24l-59 24l-23 -12q-37 19 -105 35q-23 -28 -23 -47h-12q-14 0 -128 24h-12l-82 -59q-28 24 -46 24 v35l23 35q-47 0 -47 70v23h-11q0 -105 -24 -105l-23 12q0 -35 -35 -35q0 17 -47 46v24q4 23 24 23q-24 47 -24 82h12l23 -12q0 18 24 47q-47 0 -47 23v35q0 17 35 35q70 -23 70 -47v-23h12q0 70 46 70q39 -23 70 -23q0 35 35 35q35 -12 35 -24q-11 -22 -11 -35h58 q23 -3 23 -23l-11 -23q22 -12 35 -12q0 -35 -35 -35v-23l46 -12l-11 23v12q0 23 46 23v24q-46 0 -46 58l23 12h58v-24h12v35q-26 0 -47 12q-22 -12 -35 -12v35h70q0 35 24 35z" />
<glyph unicode="." horiz-adv-x="812" d="M505 904q23 -11 35 -11q23 11 35 11q0 -11 12 -11q0 -82 -47 -82l12 -23l23 11h12l23 -11q0 35 24 35q23 -4 23 -24q0 -23 -35 -23q54 -34 93 -128q12 0 12 -12l-12 -23q24 -4 24 -24v-11l-24 -35l24 11h23v-58h-47v12l-23 -12l-82 12v-12l12 -23h-23v-24q35 0 35 -23 v-47l-82 12q0 -58 -47 -58l12 23l-58 35q-24 -4 -24 -23v-82q-18 0 -46 -23l-24 11v-35q-78 0 -116 70l-35 35q0 -35 -24 -35h-23q0 39 -12 59l-23 -12h-12q0 27 -46 47h-12v11l47 82h11v12h-23q0 -12 -12 -12q-35 66 -35 93l24 12l23 -12l-12 24v23h12l23 -12v47 q12 0 12 23l58 -11h12l-12 46q18 47 35 47h12q0 -47 58 -47l-23 35v12h23l24 -12q0 34 81 105q21 -11 47 -11q0 35 58 46z" />
<glyph unicode="/" horiz-adv-x="1465" d="M1147 1756h23q64 0 94 -58l-12 -23q23 0 58 -59q24 0 24 -23h23v12q-23 38 -23 70l35 23h11v-47h-23l58 -81q-8 0 -46 -24v-11h23v-12q0 -58 -117 -164q-1 -33 -70 -58q-46 -31 -46 -58h-35q-12 0 -12 11q-23 -11 -35 -11v-24q58 0 58 -23v-35q-70 0 -70 -70h-46l23 -35 v-12h-35v24q-16 0 -70 -82q-58 0 -58 23l-24 -11l-35 23q0 -35 35 -35v-23l-11 -24q23 -3 23 -23v-23h-35v-12l23 -35v-12q-80 -56 -116 -140q-21 0 -70 -81h-47l12 -59l-12 -46h-58q-12 0 -12 11q-23 -11 -35 -11q47 -63 47 -105v-12q-99 0 -105 -47h35v-58q-94 0 -94 -70 l-11 -58h-59l-23 11l-12 -23q24 -38 24 -58q-30 0 -35 -47q-47 16 -47 105v35l-58 12q0 -24 -24 -24h-11q-67 82 -82 82v12h35v23q-47 0 -47 23q12 23 12 35q32 0 70 -23q27 163 82 163l-12 59l82 81l46 -35q0 9 35 94q-58 15 -58 35q39 0 58 70q23 -12 35 -12q0 27 59 35 l-12 23q23 0 23 35l24 -11q0 11 11 11v-23h24q23 0 23 23q0 24 -58 24v81q26 0 46 12q35 0 35 -47q20 0 35 59q-11 46 -35 81h35l-11 24h11l70 -12l-11 23v12q12 0 35 12l-12 23q4 23 23 23q12 0 12 -11l23 11l35 -23v12q-11 20 -11 46h11l-35 70v35h70l-11 59h11l-11 23v12 q94 58 105 58l23 -11q23 11 35 11v-11q20 11 47 11v24q-59 0 -59 58v23h129q0 18 23 47q-23 12 -35 12v58h58zM1065 1418v-24l59 -11l23 47h-23z" />
<glyph unicode="0" horiz-adv-x="1605" d="M832 1768q87 0 93 -58l24 11h11q0 -81 70 -81h47v23h12q16 0 35 -70q70 -19 70 -70h23q0 35 23 35q35 0 35 -47l35 24h35v-12q-11 -23 -11 -35q35 -12 35 -23v-35q22 11 35 11v-11q-12 -23 -12 -36v-70h-35q0 -35 58 -35v-81q59 0 59 -24v-23q0 -23 -47 -23v-12h35v12 q23 -12 35 -12v-23q-26 -31 -35 -117h35q0 35 23 35q17 0 35 -35v-35h-11q-38 23 -59 23v-11q0 -17 70 -129v-11l-58 -12q-17 47 -35 47q0 -35 -23 -35l11 -24q-11 -63 -11 -105l23 -11q4 23 23 23l-11 23v24q26 0 46 11v-46h-23v-24l12 -23h-35v-12l23 -35v-11 q-28 0 -58 -47h-35v23h-12v-35q23 -3 23 -23l-11 -23l23 11q23 -3 23 -23v-12l-23 12q0 -9 -35 -35q23 -38 23 -70v-23q-31 0 -70 -35h-11v35l11 23l-23 12q-47 -12 -47 -59l24 12h11v-12q0 -14 -70 -70q24 -38 24 -58l-24 -12l12 -23v-12h-12l-35 24v-24h-70l-23 12 q0 -23 -23 -23q-21 11 -47 11q0 -58 -23 -58q0 12 -12 12q0 -12 -12 -12l12 -23v-24l-58 -11h-12q0 27 -35 70v35q6 0 47 11q0 24 -24 24h-11v-24h-24v59h-23l12 -117q23 0 23 -58h-12l12 -24q-56 0 -93 -46h-12q0 46 -47 46q-12 0 -35 -11q-128 4 -128 81h23v12h-23v-12 l-23 12h-12l12 -23v-35q-117 11 -117 35v23q0 17 58 35q-11 23 -11 35h-35v-23h-24l-35 23h-23q0 -23 -47 -23l-11 23q11 23 11 35q-41 47 -105 47v11q0 27 12 47q-12 23 -12 35q24 0 24 23l-24 12q-11 -20 -11 -47h-35q0 70 35 70v12h-70q0 70 -47 70h-12q6 47 35 47v23 h-23l12 47q-12 22 -12 35l47 35q-12 58 -24 58l-23 -12q-20 12 -47 12v12q35 38 35 58l-23 47l23 11v-23h12v12l-12 70q23 11 35 11v59q0 23 47 23v12q-47 0 -47 81q45 35 70 35v24h-23v23q4 23 23 23h24l23 -58h12q0 23 23 23v24h-23v93l-12 58q26 0 47 -11q20 11 46 11v12 l-23 35v47q82 0 82 93q79 0 128 82q18 0 47 23h23l23 -11l-11 23v23q0 17 35 35v-23h23v58h12q35 0 35 -46h11l70 11q21 -11 47 -11v58zM797 1394q-12 -46 -47 -46q-22 11 -35 11l12 -23q-17 -47 -35 -47q-23 12 -35 12h-35v12l-23 -12q0 12 -12 12l12 -24l-12 -23h23v-82 q-140 -35 -140 -70h-35q0 47 -23 47v-58l35 -47l23 12h12v-82q-39 0 -82 35h-11v-12q0 -81 58 -81v-35q-23 0 -23 -12v-82h-35v-11q3 -24 23 -24l23 12v-117q-26 0 -46 -11l70 -94l-12 -23q70 0 70 -58q33 0 82 -59q198 -26 198 -81h12q0 17 46 35h35q4 23 24 23 q20 -12 46 -12l-11 -23h35v23h-24v24q117 78 117 128q58 8 58 35q-22 12 -35 12l12 23q-12 0 -12 12q24 0 24 23q-12 23 -12 35h23q0 -35 47 -58v-12h12v23h-12l12 24v23q0 23 -24 23q-22 -11 -35 -11q-11 22 -11 35l11 58h24v-23q17 11 70 11l-47 47l12 117q-17 0 -35 35 q0 30 81 58q-11 23 -11 35q11 0 11 12h-46q-54 116 -117 116v70l47 35v12q-105 0 -105 35v23l-82 -11q0 35 -140 46zM144 939q11 -22 11 -35h12q0 47 23 47q-11 19 -11 58q-20 0 -35 -70zM797 123v-12q12 -20 12 -47l-12 -23v-12h12l11 59q-11 22 -11 35h-12zM1054 134h11 l24 -11q22 11 35 11l11 -23v-12q-46 0 -46 -35q-23 12 -35 12v58z" />
<glyph unicode="1" horiz-adv-x="754" d="M424 1733l46 -35v23h24q23 -3 23 -23v-12q0 -23 -35 -23q-23 12 -35 12l-12 -24v-11q105 0 105 58q23 -12 35 -12v-35h-23v-11h35q23 0 23 23q94 -12 94 -35v-35q0 -23 -59 -23v-24l47 -58h12v-12l-35 -46l23 -36v-46q0 -26 -12 -47q12 -22 12 -35q-51 -35 -93 -35v-35 q46 18 46 35q23 -12 35 -12v-35l-46 -93q46 0 46 -47h-11l11 -23v-12q0 -105 -105 -105q12 -17 12 -70l58 12h12v-12l-12 -46q12 -16 12 -59q-12 0 -23 -35q23 -3 23 -23v-23h-58q-17 0 -35 -35v-12h58q0 -23 -23 -23q35 -101 35 -117q-35 -58 -35 -93v-24l46 -46v-12 q-46 0 -46 -128q11 -21 11 -47l-58 -12q-12 0 -12 12l-23 -12l-35 24q0 -24 -23 -24q-47 12 -47 59q12 0 12 11q-53 0 -70 12l-12 -58h-35q-23 0 -23 23v12q0 11 11 11l-11 24q11 22 11 35q-23 0 -23 23l12 58h-24v24q4 23 24 23l23 -12v24q-35 0 -35 23v35q27 0 58 58v12 q-70 0 -70 23q4 24 24 24q-24 47 -24 70q48 23 70 23q12 -23 12 -35h12v12q0 17 -70 58l-12 47q17 0 58 70q6 0 47 11v12l-58 -12h-12q-23 0 -35 82l23 12l-11 23v12q3 23 23 23h12l23 -12v12q-23 0 -23 35l11 23q-23 38 -23 59q23 0 23 23q-23 0 -23 35l23 47q-46 0 -46 46 q11 21 11 47h35q0 -35 24 -35q0 23 35 23v12l-117 35q0 -30 -128 -117h-24v47q23 12 35 12q-39 82 -105 128q35 0 35 47q-23 0 -23 23v47q23 29 23 58h35q0 -11 -11 -11q11 -21 11 -47h24q0 128 116 128v12l-11 23h35v-23h11q24 0 24 47h11q0 -82 35 -82v12l-11 58zM354 123 h23q23 0 23 -35q-11 -23 -11 -35q11 0 11 -12h-11q-39 35 -59 35v23q4 24 24 24z" />
<glyph unicode="2" horiz-adv-x="1255" d="M715 1791h35q0 -23 82 -46q0 -59 23 -59q4 24 24 24h70v-24l-70 -46v-12l93 -23l12 23q22 -12 35 -12v-58h11v-47h-11l-24 12h-11v-12l46 -11v-35l-11 -24q58 -3 58 -35v-12l-12 -23q30 -35 47 -35v-12q-31 -58 -58 -58v-12q23 -83 23 -93h-12l-23 12q0 -129 -47 -129 q-58 -85 -58 -151h12v-24h-12l-23 12q-21 -82 -70 -82l23 -35q0 -26 -12 -46q12 -23 12 -35q-38 -28 -93 -47h-35q0 -35 -59 -47l-11 -58l23 -93q-47 0 -47 -24v-46q13 0 35 -12q0 27 47 47q12 0 12 -12l23 12q23 -4 23 -24q-58 -45 -58 -70q12 -22 12 -35h11q0 70 59 70 l-12 24v11q18 0 47 35h11l24 -11v35h11l82 -12v23h35q0 -46 23 -46v23h35v-23l-11 -59q46 0 46 -35l-11 -46v-12h11q35 80 35 128l24 12h35l11 -82v-23q0 -18 -46 -47q11 -22 11 -35q0 -35 -105 -58l24 -35q-47 -42 -47 -58h-23q0 46 -82 46v-23h-12q-23 0 -23 35h-35 l-12 -47h-35q0 27 -11 47q-12 0 -12 -12q-70 0 -70 35q-73 -93 -117 -93q-23 38 -23 70v23h47q-12 20 -12 59q-82 -42 -82 -117l-35 -35h-35v23q36 0 59 47h11q0 23 -23 23q-71 -91 -93 -93q-23 12 -35 12q0 -24 -24 -24h-46v12l11 23l-46 24q0 -64 -82 -70q-82 27 -82 46 l12 24q-58 0 -58 105q11 20 11 46v24q-20 20 -35 140q59 5 59 35h23l82 -12q0 7 -47 58q23 0 23 24h59l58 58l-12 23v12h12q23 -4 23 -23q38 23 59 23q0 -12 11 -12q0 18 35 47q-23 0 -23 23v59q0 16 58 35l47 116h35v-35h12q16 0 35 35q-30 24 -59 24v35h12l35 -24 q0 33 58 70q0 47 35 47v23l-46 12v23q0 24 58 24v11l-23 35v24q35 0 35 35q11 15 11 81h24l-12 24v11l23 35q-3 39 -58 59q0 23 -23 23h-12q0 -35 -105 -35v12l-12 47h-23q0 -47 -23 -47h-35l11 -82h-23v23h-35l-23 -11l11 -24v-23l-58 12q0 -34 -47 -59h-23v24 q-82 0 -82 -47h-35q0 9 -11 70q23 0 23 23v35h12v24q-24 0 -24 35l-23 -12h-47q-23 0 -23 24q12 22 12 35q-12 0 -12 11q35 35 82 35v12h-24v35l24 -12h23v24l58 -35l12 23q-23 0 -23 23q3 24 23 24l23 -12v23h35v-35h12q23 0 23 24l-23 35q35 29 35 46h23q24 -3 24 -23 q93 0 93 93l82 -11q11 35 70 35q12 0 35 -12q20 12 46 12q0 -12 12 -12v12q-12 0 -12 11zM692 1675l70 -12l12 47q-12 22 -12 35h-12q-14 0 -58 -70zM237 1406l-12 -23v-24q35 0 35 -35v-11q24 0 24 23h-12l12 23v12q-18 0 -47 35z" />
<glyph unicode="3" horiz-adv-x="1500" d="M867 1838h47q49 -47 105 -70v-23h11q8 70 35 70h12q0 -19 23 -47v-12l-11 -23l23 -12h82v-23h11l24 12q0 -12 11 -12v12q-11 0 -11 11l23 12h12q0 -35 35 -35q-31 -140 -94 -140v-12q71 -9 94 -46v-59q17 0 105 24q-12 -47 -12 -82h-35v23h-58q0 -35 -35 -35t-35 -23 q93 -33 93 -47v-12q0 -35 -93 -35v-11q46 0 46 -70l-46 -12h-35q-12 -19 -12 -58h-58q-24 -4 -24 -24v-11q4 -24 24 -24q-12 -102 -35 -128h11q0 12 12 12q0 -12 12 -12q17 47 35 47h11q70 -79 70 -117l24 12h11q43 -47 59 -47l-12 -23l23 -35q-11 -35 -23 -35l12 -24v-70 q58 0 58 -35l23 12q24 -4 24 -23h-24q0 -24 35 -24v-35h-23v24l-35 -24h-35v35l-23 -11h-12l-23 11v-35q0 -16 58 -35q0 -70 58 -70v-23q-58 0 -58 -58l-58 -24q-23 12 -35 12v23l23 -11v35h-58q0 -12 11 -12q-11 -64 -11 -93l11 -59q-54 0 -81 -35h-35v12l11 58h-81l35 -46 v-35q-70 -52 -70 -94h-12q-16 0 -35 70q-63 24 -70 24l-23 -35h58l-12 -59h-23l-23 12q0 -29 -129 -47v59l-11 23l23 12q0 -12 12 -12q0 39 11 58h-58q0 -35 -23 -35l11 -58q-23 -28 -23 -47h-23q-32 0 -35 59h-24q-23 -4 -23 -24h23v-35h-46q0 35 -24 35h-23l-82 -11v23 q24 0 24 23l23 -11q0 11 12 11q-16 70 -47 70q0 -11 -12 -11v23l-23 -12h-12q-23 0 -23 24q-47 -6 -47 -35h-23v23h-12v-23h-81v23h35v12q0 23 -59 23v58h24v35q-62 38 -94 129l24 11h23q12 -83 12 -93h23q0 47 35 47v11q0 24 -47 24v23h12l23 -12q0 35 24 35h23 q8 -58 35 -58q23 12 35 12l-58 46v24h11l47 -35v35h23q59 -28 59 -59l23 12h47v-93q11 0 11 -24l70 59v23h24v-47q35 0 35 -35q23 0 23 47h23q46 -70 59 -70v12q-12 20 -12 46q43 0 70 24h23v-12l-11 -23h23l12 58h35l-12 -23h12q0 16 58 35q0 64 93 81q0 24 47 24l-12 23 v58l-58 -11l-47 11v94h-11q-29 -24 -47 -24v-11h23v-24h-35q-35 63 -35 82q-59 -23 -81 -23q0 12 -12 35q12 22 12 35q-24 -4 -24 -24l-58 12h-12q0 -12 -11 -35q-136 0 -222 58l35 47l-12 105q23 12 35 12v11l-58 24v58q82 0 82 70l58 -12q0 12 12 12q0 -18 46 -47 q59 0 59 70h11q24 0 24 -46h23v35q0 73 70 93q0 34 117 105q0 43 46 70h24q-12 59 -24 59l-58 -12q-23 26 -23 70h-12q-45 -47 -82 -47q0 24 -23 24q0 -52 -93 -70v11q-47 -9 -47 -23q12 -23 12 -35h-70q-24 0 -24 35h-35q-23 -4 -23 -24q58 0 58 -23v-12q0 -23 -198 -58 q0 12 -12 12v-12q24 -38 24 -70v-12q-47 0 -47 -35l-58 12v23h23q-16 70 -47 70q-23 -29 -23 -58q-23 0 -23 23l11 24q-3 54 -58 70q0 11 -12 11l-23 -11q-82 20 -82 46l47 36l58 -47q47 9 47 23l-23 47l-24 -12q-23 0 -23 24v35q35 0 35 23h23l59 -12q0 42 46 59 q0 55 105 70v35h82q93 41 93 93q82 0 82 -47q36 0 82 47q22 -12 35 -12q0 17 35 35l23 -11q0 23 47 23l-12 23v12zM1240 753l12 -24l-12 -23q12 0 12 -12q23 12 35 12q-23 28 -23 47q11 22 11 35q-9 0 -35 -35zM1357 706q70 0 70 -58h-82zM552 204v-23q59 23 82 23v24 l-35 -24h-12v24h-12q-23 -4 -23 -24z" />
<glyph unicode="4" horiz-adv-x="1605" d="M727 1791h23v-23l-11 -23q26 0 46 -35l24 11h11l-11 -23v-12l35 -46q0 -35 -35 -35v-12h35q19 76 58 93h35v-23h-23v-23q35 0 35 -24v-11l-12 -24h12q20 12 46 12l12 -58q-12 -35 -70 -35v23q-23 0 -23 -35l-24 12h-11q23 -76 23 -106v-11l-82 11h-11q0 -26 -12 -46 q23 -4 23 -24q-49 -43 -58 -105q-17 0 -35 -58l12 -23v-24h-12l-23 12q0 -15 -70 -47q-23 12 -35 12v-12l46 -46v-12q-60 0 -70 -70q-11 -35 -58 -35q23 -23 23 -82h-11v-46q38 23 70 23l-12 23v35h70v-35q70 0 70 47v23h23v-23h47q12 0 12 12q38 -24 58 -24q23 12 35 12v12 q0 39 -35 81v35q35 0 58 105h12l47 -23q20 12 46 12q15 -59 35 -59h12v12q-70 75 -70 128h47v-46l81 23q24 -38 24 -58h11v23h35l12 -58q-16 -1 -47 -59q0 -23 35 -23v-70q35 0 35 -93q-11 0 -11 -12h23q0 48 58 70h24v-47h11v24q12 0 12 -12q23 0 82 23q0 -11 11 -11 l-11 23v12l58 11q0 -11 12 -11q0 11 11 11q0 -23 35 -23v-12q0 -97 -105 -116v-12q105 -23 105 -105v-23q-39 0 -46 -70h-59q-58 26 -58 35q-15 0 -58 -59h-12q-23 0 -23 59l-24 -12q-23 0 -23 35h-12v-47h-58l-58 12q0 -71 70 -140q0 -12 -12 -12l12 -58l-12 -47 q12 -22 12 -35l-35 -58v-23l23 11q17 0 35 -35l-58 -11q-12 22 -12 35h-23q0 -24 -35 -24v-11l23 -35v-12h-12q-12 0 -35 12l-70 -12h-23q0 28 -58 70q11 0 11 12l-58 -47h-23l11 23q-23 0 -23 24q12 20 12 46q-24 0 -24 12q24 58 35 58h35q0 39 12 59q-12 22 -12 35l12 23 q-34 140 -70 140q-35 0 -35 23q-34 0 -117 -70h-46v47l-35 -23h-12l-35 23q0 -47 -23 -47h-47q-42 0 -105 -11q-47 17 -47 35v23l35 -23l-11 23v23h23v12l-47 12q-58 0 -58 -59q0 -23 -23 -23h-35q-24 0 -24 23v24l12 23q-47 0 -47 35l-23 -12l-23 12v-23h23v-47h-58v23 q0 12 11 12l-11 23v12q0 10 23 93l-23 35q35 0 35 35q-12 23 -12 35h-23v-23h-24v23l12 24h-12q29 62 117 105q0 12 12 35q-12 0 -12 11l47 35q0 33 35 47q49 102 70 105l35 -23l11 23v58q6 0 47 12q47 -17 47 -35q-12 0 -12 -12q20 12 47 12q-24 47 -59 47v46h12l23 -11v11 q0 40 -11 59q8 82 23 82q47 -12 47 -59h-12l-23 12v-47l58 12q0 -12 12 -12q-12 23 -12 35v35h-12v12q4 23 24 23l23 -11v23q-35 0 -35 23v12q43 0 58 58h24l-12 24v35q30 0 93 93l-11 23q23 0 23 35zM914 1488h23v-35h-23v35zM785 916h24v-23h-24v23zM1404 799 q0 -35 -35 -35h-12l12 -23q22 12 35 12q22 -12 35 -12q-24 38 -24 58h-11zM972 181l23 -12h82v12l-82 23q-23 -3 -23 -23z" />
<glyph unicode="5" horiz-adv-x="1465" d="M552 1815h35q82 -52 82 -70v-24l23 12l-12 23q0 29 129 59h23v-47h23q59 0 59 47h11q0 -9 12 -70q58 7 58 58h12q45 -35 105 -35q0 12 12 12l11 -59v-23h-46v-23q39 0 70 -35q0 11 11 11q24 -48 24 -70l-24 -11h-23v23h-12v-35q40 0 59 -58h-12l-58 35q-16 0 -70 -70h-12 v23h-23l-59 -47h-46v24q-35 -12 -35 -24q-47 9 -47 24l-23 -12h-12q-17 0 -47 58q-35 -11 -35 -23q12 -23 12 -35l-35 -23h-12q0 26 -11 46h23v24q-12 0 -35 11q-16 -46 -105 -46q0 58 -23 58q0 -105 -70 -105h-12q0 12 -12 12l12 -59v-12h-12l-23 12v-23l12 -24l-47 -11 q0 -15 58 -59q16 -70 35 -70h35l12 -23l70 23l-12 24v11h35v-11l-11 -59l23 -11h12v11l-12 82l23 12v-47h12l35 23h12v-70h11q65 47 129 47l11 -23l24 11h11v-23q24 0 24 23h-24l12 24q20 -12 47 -12v-58h-24l-23 11v-35l58 -11h24l-12 58q1 16 58 47h12q0 -13 12 -35 l-35 -59q3 -23 23 -23l47 23q0 -35 35 -35l58 24l12 -24v-11q-105 -12 -105 -47v-35q50 58 93 58q1 -16 58 -46h12q0 33 35 58q35 -12 35 -23q-25 -140 -58 -140l11 -24q-23 -3 -23 -23l23 12q17 0 35 -35q23 11 35 11v12h-23v47q4 23 23 23h24q0 -12 -12 -12l12 -58 q0 -35 -35 -35q3 -23 23 -23v23h47v-12l-12 -23q23 -4 23 -23v-24q-16 0 -46 -46h-70v-12q70 0 70 -58q-24 -4 -24 -24l24 -11l23 11q0 -18 23 -46q-42 -59 -70 -59h-35q24 -38 24 -58q-24 -4 -24 -23v-35q-35 0 -35 -47h-35q-16 0 -35 35q12 0 12 12q-35 0 -70 -70 q12 -21 12 -47v-12q-130 0 -175 -81q-21 11 -47 11q0 -46 -23 -46h-24q-23 0 -23 46q-39 -4 -105 -128l-58 12q-12 -23 -12 -35h-23q0 15 -59 58q-35 0 -35 -70h-23q-23 0 -23 23l11 24q-11 0 -11 11l-24 -11h-23q0 35 -35 35h-12l12 58h-23q0 -47 -59 -47v47q35 0 59 47v11 q-30 0 -70 -58q-21 -12 -47 -12l12 -23h-35v70h23q-12 23 -12 35q0 93 59 128q0 12 23 12v12h-12l-58 -47l-23 12l11 -24q0 -16 -35 -35q0 12 -11 12v-12q22 -11 35 -11q0 -24 -24 -24h-46q0 59 -47 59q0 8 -12 70l35 23h12v-23h23q29 23 47 23l-12 23v12h12q17 0 35 -35 l-12 -23h12l93 70h12v-24h12l23 12l-12 23q4 24 24 24h46v-47h-23v-12q0 -23 70 -23v12h35v-24h-23l11 -23q51 1 117 47h47l23 -12l23 35q-23 0 -23 23v12h35q0 -42 47 -58q6 -47 35 -47q0 12 46 47l-11 23q11 20 11 47l-35 -24h-23v35q15 0 58 59l24 -12q3 58 23 58 q38 -23 70 -23q12 93 35 93l-12 24v58q-105 67 -105 105q-8 58 -35 58h-46v-46h-24q0 12 -11 35l-24 -12l-46 23q0 -23 -24 -23h-35q-23 0 -23 23v12h35l-12 23l12 24v11h-12q0 -27 -58 -70q0 12 -12 12l12 -23v-12q-90 -9 -128 -47q-23 12 -35 12v23l11 24h-11 q-21 -12 -47 -12q0 12 -12 12l12 -24l-12 -58h-35l-46 35q0 -23 -24 -23h-23q0 26 -12 46l-23 -11h-12q0 35 -23 35q-23 -12 -35 -12l-47 23l-23 -11q-23 11 -35 11q0 70 35 70v24q-70 0 -70 35q17 25 35 151l-47 12v12q0 27 47 116q-23 39 -23 70q46 0 81 24l-11 23 q11 23 11 35h-23q0 -35 -47 -35l-23 35q0 35 58 35l-11 47q11 70 35 70l35 -23q0 16 58 46h12v-35h-24v-35q28 0 105 47h12l-12 23l12 24q-12 22 -12 35q31 0 47 81h12l35 -23v12q-12 0 -12 11h35q12 0 12 -11l23 11h12v-58q20 12 46 12l-11 23v23q3 24 23 24zM1182 1780h23 q0 -30 24 -59q0 -23 -24 -23h-35l-11 70zM342 484h23l24 -11q-18 -47 -35 -47h-35q-24 0 -24 23v24h47v11z" />
<glyph unicode="6" horiz-adv-x="1430" d="M692 1791h23q17 0 35 -35v-23l-11 -23h11q27 23 70 23l-11 58h11l24 -11q20 11 46 11v-11l24 11h23q0 -39 58 -58v-12q-11 0 -11 -11l58 35q20 -12 47 -12l-12 23v35h12q28 0 81 -105q12 0 12 -11q0 -24 -23 -24q-23 12 -35 12q-24 -47 -35 -47h-35q0 -35 -47 -70l35 -46 v-12q-51 0 -58 -47h-24q-25 21 -105 35q-22 -11 -35 -11q0 23 -23 23h-23q0 -47 -24 -47l12 -23v-24q-19 0 -35 -23h-35q0 -35 -93 -35v12q0 11 -35 23l11 -23v-35q-11 -35 -70 -35h-23l-58 35v-24q26 0 46 -46l-70 -12q4 -23 24 -23h70l11 -59l-23 -11l-23 11v-23h35v-23 q-41 -12 -47 -12q0 12 -12 12v-47h-46v35h35v12l-12 23l-23 -12h-12v24h-12l-23 -12q0 12 -12 12v-12q24 0 47 -93l23 11h12q12 0 12 -11l23 11h70v24h23q36 -24 82 -35l12 46h70v-11q-70 -64 -70 -70h35q23 0 23 35h82v23q86 0 93 -58h23v35h59q29 -35 46 -35 q0 -28 -81 -35q3 -24 23 -24l23 12l47 -23v35h35v-12l-35 -47q28 -70 58 -70q47 0 47 59q12 0 12 -12l23 12h12q0 -18 35 -47l-12 -58q39 0 58 -12v35h-23v12q0 17 35 35h12l11 -59v-70h-23l-23 12q0 -47 -59 -47v-11l24 -35v-12h-35v-12q29 0 35 -46l23 11h12l23 -11 q4 23 23 23q105 -14 105 -35l-11 -47q11 -20 11 -46h-11l-24 11q-35 -38 -35 -58h-46q-24 0 -24 35h-11v-23q11 0 58 -59v-23l-58 -23v-12q29 0 58 -23q0 -60 -58 -94l-24 -70h-23q-23 0 -23 24l11 23h-23v-35h-58q0 35 -24 35q0 -55 -105 -70q0 -12 -11 -12l-59 12 q0 -12 -46 -35q-35 12 -35 23l-24 -11l-116 23q0 -82 -59 -82l-11 24l-24 -12h-11v58q22 12 35 12v-12q20 12 46 12v12h-93l-35 -24h-58v12q46 59 46 70l-81 23q0 -11 -12 -11l12 -59v-11h-12q-35 23 -82 23v35l24 35l-24 12l-23 -12v12l-23 -12h-12v12q0 37 47 93v23h-35 q0 -58 -24 -58l-70 12v23q39 0 70 93v35h-23q0 -8 -23 -46q-54 0 -70 58q-31 0 -47 93v24q0 23 35 23v12l-35 46v12l12 58h-24l12 59l-47 58v12q59 0 94 93l-47 -35q-23 0 -35 105q31 4 47 58q-24 0 -24 24h35v-24l24 12l23 -12v12q-47 16 -47 105q85 47 94 47l-12 23v12 l12 70v35q35 0 35 11q-12 23 -12 36h23l24 -12q0 30 70 140v23h23l23 -11q0 16 35 35l70 -47q0 47 47 47v23h-58l11 58h24l23 -11q35 45 35 70h35q12 0 12 -12l23 12l23 -12v12q-11 0 -11 11q23 0 23 35zM505 694h24v-23q0 -23 -24 -23h-23q-23 0 -23 35q-35 -8 -35 -94v-70 q90 0 140 -81q27 0 46 -24q16 12 59 12q0 -17 35 -35q22 12 35 12q3 -24 23 -24h35q11 0 93 24h24q0 -47 23 -47v70q86 0 117 117l-47 35l35 58q-117 0 -117 82q12 0 12 11q-104 15 -128 24l-47 -24q-38 24 -58 24l-12 -24q23 -11 35 -11v-24q-128 0 -128 59q-64 0 -94 -59z M1310 694h24v-46q-12 -35 -70 -35v35q46 0 46 46zM564 379l-12 -58l-35 23h-12v-46h-11v-24l35 24h11v-12q-11 -23 -11 -35l35 -23q0 128 58 128v23h-58z" />
<glyph unicode="7" horiz-adv-x="1384" d="M424 1745q0 -47 23 -47h12l46 35h12q23 -4 23 -23q-11 -23 -11 -35v-12h11q0 23 24 23l-12 24q4 23 23 23h35q0 -23 35 -23v-35h-23v-12h47q23 0 23 23l-12 59q24 0 24 -35l23 11h23v-35l-11 -23h23q0 70 23 70h12v-47h12q0 31 70 59v-12l-12 -23q47 -24 47 -35v-35 q22 -12 35 -12q3 23 23 23h23v-23h12q0 82 35 82q29 0 58 35h24q46 -21 46 -47h12l35 23q0 -18 23 -46q0 -70 -58 -70v-12h82q0 -9 11 -70l24 12q22 -12 35 -12v-35h-24l-23 12v-35q12 -51 12 -82q-25 0 -70 -59h-24q24 -37 24 -58q-21 0 -94 -105q-46 0 -46 -23 q35 -12 35 -24q-12 -22 -12 -35h-82v-23h12q23 12 35 12l12 -24q-23 -53 -47 -58q-58 0 -58 35h-12v-35q29 -23 47 -23v-12q0 -58 -24 -58q-35 0 -35 35h-23l23 -35v-59l-46 -35l-24 -35v-58q-23 0 -70 -58l12 -24l-12 -58h-23l-35 23q-28 -23 -47 -23v-23l12 -82 q-47 0 -47 -23q-35 -120 -35 -129q-43 -4 -70 -46l24 11h11v-23q-23 -28 -23 -47q12 -22 12 -35l-24 -11l-58 11l12 -23v-12q0 -23 -24 -23h-11q-24 0 -24 35l-23 -12l-58 47q-12 -19 -12 -58q-12 0 -12 11l-23 -11h-23v11q0 42 46 94l-23 11q0 -46 -93 -46l-35 58v12 q18 0 46 23h12v-23h58l-58 46v105q23 0 23 -35q38 24 59 24l-12 23v23q0 24 58 24q0 46 -46 46v24h23l-12 23q94 39 94 117h-12q4 23 23 23h12v-35h23l-11 23v35q75 82 105 82q-12 23 -12 35q0 42 93 58v24h-46v35h70q0 39 11 58l-23 -12h-12v35q24 0 24 47h23v-23h12 q23 0 23 23l-12 23l-23 -11h-12v35h12l23 -12v23h35v-23q24 0 24 35l35 -23v11q-70 60 -70 117h46q0 26 35 93q-20 0 -105 59q0 -19 -210 -59q0 17 -35 35v-46h-11l-94 70q0 -35 -46 -35q-38 23 -59 23l12 -23q0 -24 -23 -24q-12 0 -35 47q-23 -12 -35 -12v-23h23v-23 l-58 11v59q58 0 58 23q0 24 -23 24q-21 -12 -47 -12q0 12 -12 12v-47h-70q0 18 -35 105q0 22 70 58v24l-58 70v23h35q12 0 12 -12l70 24q8 0 128 -47h12v35h58z" />
<glyph unicode="8" horiz-adv-x="1558" d="M1030 1815q12 -23 12 -35q15 11 58 11q47 -39 47 -81l35 23h47q0 -26 11 -47l140 24q0 -24 35 -24v-23l-58 12h-12q0 -24 -11 -24q-23 12 -35 12v-23q43 0 70 -24l-24 -46h12l47 35h11v-24q0 -23 -46 -23v-12q3 -23 23 -23q30 0 82 35v-12q0 -11 -12 -11l12 -24 q-35 -30 -35 -70h-35v-11h46q4 23 24 23h11l24 -82h-24q0 29 -46 35q0 -29 -24 -58v-12l59 12h11v-24h-23v-11h23v-12l-35 -47q12 0 12 -11h-35q-23 0 -23 35h-12q-17 0 -35 -35l12 -24l-12 -70l12 -23h-24l-35 23h-11q-17 0 -35 -58l11 -23v-24h-23q0 30 -47 35h-11v-11 q35 0 35 -47l-35 -23q-21 11 -47 11q0 -35 -47 -35v-23h24v-23q0 -24 -24 -24h-11l-24 12l-11 -23q23 -4 23 -24v-11l-23 11v-11q23 -4 23 -24l23 12l24 -12q0 59 11 59q35 -12 35 -24l24 12h11v-12q0 -23 -70 -23q0 -17 35 -35q23 12 35 12v-35l-23 11l12 -23v-12l-12 -23 q61 -12 70 -12v-70h70l12 -58l-24 -35v-23q47 -66 47 -94l-23 -11v23h-12v-23q58 -31 58 -47v-12h-11l-24 12q-23 -29 -23 -58h-105q-23 -4 -23 -24q11 -20 11 -46h-35q24 -30 24 -59h11v35q-11 0 -11 12h46q0 -50 -58 -117q-23 0 -23 35h-12v-23q12 0 12 -12 q-38 -23 -59 -23q0 17 -35 35q0 -35 -81 -35v-12q46 0 46 -35q-11 -22 -11 -35h-35l-47 47q0 -58 -12 -58q-38 11 -81 11v-11h-24q-23 0 -23 23v47q35 0 35 23q-28 0 -82 -70q-27 0 -70 -47h-35q0 19 -93 70h-12q-29 0 -35 -46h-46q-18 0 -35 46l-24 -11h-23q0 23 35 23v23 h-70v35h-23q-27 0 -47 -11q-23 11 -35 11l12 59l-24 -12h-35q-23 0 -23 23h12l-47 59l23 35q0 23 -23 23l-12 -58h-46l-12 46l23 12q-23 38 -23 70v12q47 0 47 23h-59q0 74 94 128q58 19 58 35q-36 4 -82 82l12 23h-23v35q5 0 46 12q0 -12 12 -12v24h-23v46q85 0 93 117h23 l12 -58l47 35h11l24 -12v12q-17 0 -35 35q11 20 11 46h70q0 9 12 70l-23 12l-24 -12v35h-23v-81h-12l-11 70q11 0 11 11q-35 47 -58 47v23q12 0 12 -11q46 17 46 35v11q-70 0 -70 24l-23 -12q-46 0 -105 82v70h23l-35 46v12q8 0 47 24l-12 23v12l70 11v-23h12v35 q-32 0 -47 35h-35v12q0 16 59 35q11 22 11 35h47l23 -12q0 35 82 93v12h58l35 23l105 -35l-23 59q12 22 12 35h58l23 -12q4 23 24 23h11q24 -3 24 -23v-35q23 0 23 -12q21 0 82 82h35q0 -13 11 -35q95 47 175 47zM1380 1651h24v-11q0 -24 -24 -24h-11q11 23 11 35zM307 1558 q-12 -61 -12 -70l24 -12v12q-12 0 -12 12q23 0 23 23v35h-23zM774 1511l11 -58q-40 0 -198 -70h-35v35h23q-11 19 -11 58h-24v-11q12 -23 12 -35q-18 0 -58 -71q9 -58 81 -58q32 -90 94 -152h11v24h35l117 -12q55 93 105 93q27 70 47 70q93 0 93 -46h12q11 64 11 93l-11 23 q11 21 11 47v12q-46 0 -46 58h-12q-58 -81 -93 -81v70q-39 0 -59 11v-11h12q-12 -20 -12 -59h-23q-60 0 -70 35v24h23v11h-46zM167 1418v-12q23 0 23 -23q29 23 59 23v12h-82zM879 1196v-12q17 -46 35 -46q0 23 58 23q0 23 -93 35zM680 741h-70v-23h-11q0 23 -59 46 q0 -23 -46 -23v-12q35 0 35 -58q-4 -32 -82 -82q0 -15 -58 -58v-12l11 -70v-11q-30 0 -35 -59h59v24l46 -35h47v23h23v-12l-11 -23h23q38 23 58 23q4 -23 24 -23q15 12 58 12l12 -24q-12 -22 -12 -35v-11h12q8 58 35 58q58 0 58 -23l117 70h11q12 0 12 -12q35 23 82 23v47 q0 26 11 47l-11 23q11 20 11 47q-23 0 -23 -47h-12l-81 128q-25 0 -94 59h-58v23l12 23l-24 12q0 -23 -23 -23h-12v23q-35 0 -35 -35zM1240 484l-11 -58v-23h35q23 0 23 23v12q-23 28 -23 46h-24z" />
<glyph unicode="9" horiz-adv-x="1558" d="M680 1826h24v-11l-12 -59l-23 12v-35l23 12h12l35 -24v94q61 11 70 11q8 -58 35 -58q25 0 70 58q35 0 35 -46l35 23h11v-35h-35q8 -35 70 -58v70h12q70 -47 105 -47h47v-70q-35 0 -35 -47h46l12 59h35v-12l-12 -23q12 0 59 -59v-46h-59v-12q51 0 70 -47q-11 -22 -11 -35 q11 0 11 -11q35 0 35 35h12q47 -24 47 -35v-59q23 0 23 -82q-17 0 -35 -35q22 0 93 -35v-46q-81 -52 -81 -70q0 -26 -12 -47l58 12h47l12 -59q-13 0 -59 -105h-35q12 -22 12 -35l-23 -46q30 0 35 -59h23v-23q-23 0 -23 -12v-58q-21 -35 -105 -47q0 -12 -12 -35l47 -23v23 q23 -3 23 -23v-23q-27 0 -58 -47h-24q0 -19 47 -70v-12q-20 0 -58 -23q0 18 -47 47q-20 -12 -47 -12q0 -23 35 -23v-35l-23 11l-12 -23q47 -12 47 -70h-35q0 47 -70 47h-12v-24l-11 -81q11 0 11 -12l-23 -12h-35v24h-12q0 -44 -58 -152h-35v58h23l-11 24l23 35h-23 q0 -35 -59 -35l12 -24q0 -23 -23 -23h-24l-35 23h-23v-23l23 -82l-23 -11l-47 23q-11 -19 -11 -58h-47v23l23 35q-81 15 -81 47h-12l-12 -47q23 -12 35 -12v-23h-11q-59 0 -59 23q-22 -11 -35 -11l12 -24q0 -23 -23 -23h-47l12 58v12q0 23 -24 23l-116 -46q0 70 -70 70v70 h46v11h-23v47h35v58q0 35 93 47q4 -23 24 -23l58 58q36 0 128 -58q23 11 35 11l-11 24q0 16 35 35l23 -12q4 23 23 23q23 -11 35 -11q38 46 105 70l12 23h-23q0 58 58 58q12 0 47 94q-59 82 -59 93q-17 0 -70 -82h-23q-12 21 -12 47l-58 -47l-23 12l-24 -12q-39 0 -58 82 l-23 12q0 -12 -12 -12l12 -58v-24h-12q-70 0 -70 59h-23q0 -8 -24 -47h-35v47h12l23 -12l12 23v12l-23 35l-24 -12h-81l11 24l-46 35h-24v-12l24 -35q-27 0 -47 -12q-24 0 -47 59h-35v11l12 24h-12q-22 -12 -35 -12v23h24v12h-35v58q-47 82 -47 94l-23 -12h-35v12 q0 35 23 93h-47q0 -35 -23 -35h-12v23h24l-12 24q12 15 12 58h-12l12 58q-24 0 -24 24v23q35 93 59 93h23v24h-70v58h12l23 -11v70l58 11q23 -11 35 -11q47 6 47 93q-23 0 -23 23v35h23q23 0 23 -35h24l23 82h47l23 -12q0 73 82 94v11h11q24 0 24 -35h11l94 59h35l35 -24 q11 23 11 35zM844 1581l11 -81h-11l-59 11q0 -23 -11 -23q-39 23 -70 23l-82 -70q-20 12 -47 12q-44 -94 -116 -94q0 -28 -105 -93v-58l58 -12l-12 -58v-12q32 0 105 -23v-24h-35v-58h12q0 35 23 35h35q0 -62 35 -82l59 12l46 -12v24h59l23 -12q4 23 23 23l35 -23h12 q0 12 12 35l58 -12h12v24h11q52 -59 59 -59l23 47h-23v12q46 35 46 70h24v-59l35 24l46 -35l12 23v47q-20 0 -70 105l58 11q-70 44 -70 59q0 62 -93 128l12 24q-12 20 -12 46q-23 -11 -35 -11l12 -24v-11h-24q0 12 -11 35l-24 -12h-11q0 10 11 93q-11 23 -11 35h-35z M400 916l-11 -23l-24 11h-35q0 -35 -23 -35v-11l47 -12l-12 23q51 0 70 47h-12zM832 356q0 -43 -23 -70q11 -23 11 -35h24l-12 23q0 32 23 70zM307 286h47v-12q0 -23 -24 -23h-23v35zM272 251h35v-23h-35v23z" />
<glyph unicode=":" horiz-adv-x="695" d="M389 1394q35 0 35 -58h-12v-12q58 0 58 -58v-12q-11 0 -11 -11q23 0 23 -47h12l58 12v-47h-23v-23l23 -82l-47 -23v23q-39 -27 -163 -70q-36 -66 -128 -93v-12h-35q-35 12 -35 70q23 0 23 23l-35 24l-12 -47h-11q0 28 -59 70v12q12 22 12 35l23 -12q24 0 24 23 q-59 19 -59 82q20 12 59 12q-12 38 -12 81q93 35 93 59v11h24v-46h11q151 97 164 116zM552 694q0 -32 35 -46q0 -35 -35 -35v-24q41 0 82 -81l-12 -24q23 -38 23 -70q-20 0 -70 -35q-22 -11 -35 -11l12 -24q0 -26 -58 -35q0 12 -12 12q0 -47 -70 -47q-47 0 -47 -35 q-60 12 -93 47h-23l11 -23v-24h-23q-9 0 -82 94l12 23q-12 23 -12 35l-23 -12q-17 0 -35 35v35h23v82l70 47q38 70 82 70l23 -12q21 12 47 12h12v-24q46 12 46 59q12 0 12 -12l23 12h12l23 -12q0 23 82 23z" />
<glyph unicode=";" horiz-adv-x="660" d="M400 1406h24q0 -21 23 -93l23 11h24q16 0 70 -128v-12q-68 -35 -82 -35v-23h70v35h35q23 -4 23 -23q0 -24 -46 -24l35 -46v-12h-47q-23 0 -23 35h-12q0 -30 -47 -47l-11 -58h-12l-47 35q-15 -58 -35 -58h-11q-12 0 -12 11l-23 -11h-70q-24 0 -24 23v23l12 24l-82 11 l-58 -11q-23 48 -23 70h11l-11 23v23h35l-12 24q4 23 23 23h12v-58l-23 -35v-12l58 12q0 -12 12 -12v23l-12 24q23 0 23 23q0 29 -46 35v35q0 29 46 35v12h-23v23h58q0 35 24 35l58 -12v24h35v-24l-12 -58h-11l-59 12v-35q47 -6 47 -35l23 11h12v-23q17 0 35 47 q-12 20 -12 46q12 0 12 12l23 -12h24q-24 43 -24 94v23zM342 741h23q24 -4 24 -23v-12l-12 -58h-23q-24 0 -24 35zM389 648h11q24 -4 24 -24v-11l-12 -24h23v-35h-11q-29 24 -47 24h-12v-12q54 0 82 -117h12q0 13 11 35v35l35 24h59v-35h-59v-12q35 -43 35 -82 q-28 -23 -46 -23v-93q-20 -59 -59 -59v-35h-35v47q-22 -12 -35 -12q47 -114 47 -140l-35 -23l-23 12v-24h-35q0 30 -59 35v47l35 47l-23 -12l-23 12v-35h-47q-12 0 -12 11q-47 -23 -70 -23l24 -35h-59q-17 0 -35 35v23q27 0 59 47q-12 7 -12 82q23 0 23 35h24v-24 q0 -23 -35 -23v-12h23v-23l-12 -58h24q0 81 35 81l-24 35l24 47q-12 23 -12 35q12 23 12 35q-24 0 -24 23v12q47 0 47 47h-35q0 61 70 105q35 0 35 -47q104 82 117 82zM319 484v-11q35 0 35 -70h23l-12 58q12 0 12 12l-47 11h-11z" />
<glyph unicode="&#x3c;" horiz-adv-x="1174" d="M1007 1406q23 -3 23 -23v-24h-23v-11q53 -24 82 -24q-9 -70 -24 -70h-35l12 -23q-8 -58 -58 -58l35 -47v-58q0 -24 -24 -24q-11 0 -11 12l-47 -23l12 -24q0 -23 -24 -23h-11q-63 70 -129 70q0 -23 35 -23v-47q-63 0 -70 -70q-11 0 -11 12q-47 0 -47 -47h-12l-81 12 q0 -82 -47 -82q35 -35 35 -82h12q0 28 58 59q82 -19 82 -59h81q52 -46 59 -46q0 35 23 35h12q0 -24 23 -24v-11l-12 -24q94 0 94 -23v-70q-24 -70 -47 -70h-12q6 -47 35 -47v-35h-23v24q-21 0 -70 -70q-12 0 -12 11l-23 -11l-35 23h-35l12 -23l-24 -12q-23 0 -23 23l-23 -11 q-50 26 -70 105l-47 -12q-70 20 -70 82l-23 -12h-12l-70 12q-20 -12 -47 -12l-11 23v59q58 0 58 105h-35q0 -35 -58 -47q0 -39 -12 -58q12 0 12 -12h-12l-82 12v-24h-46q0 55 -35 82v35h-35v-47q-70 12 -70 35v35h23q0 24 -47 24v11q24 70 47 70q12 0 12 59l23 -12h12v35 q-59 0 -59 70v23h24q59 -46 70 -46q0 20 81 140q47 -16 94 -59h11q0 35 24 35q-12 23 -12 35q0 19 47 47v12l70 -47q23 0 35 70q-12 23 -12 35h12l46 -12q47 12 82 12q0 -12 12 -12q11 21 11 47h35l35 -23h12q0 31 117 116h11l24 -11q0 29 46 35q23 -12 35 -12q12 23 12 35z M960 1324v-11l12 -47q-23 -4 -23 -23v-12h11q36 58 59 58v35l-24 -11q-22 11 -35 11zM1112 1266h12v-58h-24l24 -35v-24q0 -23 -24 -23q-18 0 -46 47q45 93 58 93z" />
<glyph unicode="=" horiz-adv-x="1290" d="M914 1535h11q24 -4 24 -24v-70h11q70 82 82 82q20 12 47 12q70 -24 70 -47v-23q0 -24 -24 -24h-11l-35 24h-24l35 -47l24 12q46 -18 46 -36v-35h12v-58l-12 -58q17 0 35 -35q-23 0 -23 -24l-58 12l-47 -47h-12q-18 0 -46 47q-48 -23 -70 -23q0 23 -24 23v-35h-46l-35 23 h-59q0 -35 -35 -35l-46 24v-47h-35l-47 58q0 -26 -47 -35l-11 -58h-24q-23 0 -23 23q-47 -5 -47 -35h-23v12l12 23h-12q-23 0 -23 -46h-24v23h-81v12l23 35v11q0 24 -23 24l-35 -47v-12h23q0 -18 -47 -46h-11q0 35 -24 35h-46v-24h-59l-11 59h35l-12 23v12q35 0 35 23 q-35 0 -35 23v12l58 35v47q-22 -12 -35 -12q-22 12 -35 12q-11 -23 -11 -35h-12v35q35 56 82 70q0 32 35 47v11h70l35 -23q0 47 70 47q0 -23 70 -47q0 30 105 47q0 -53 11 -71v-35q15 0 24 -46l23 11l23 -11v23q-58 0 -58 58v36q12 22 12 35h-24v11h35q16 -152 82 -152 q0 12 12 12q-12 46 -35 82q11 20 11 47q35 0 35 -35h24q-24 47 -24 70h12q17 0 35 -35q59 23 82 23q22 -12 35 -12q15 59 35 59zM1217 1465h23v-71q0 -23 -23 -23h-23v23q23 27 23 71zM937 963v-70q105 0 105 58h12q53 -47 105 -47v-46h-82v23h-12v-23h12q-4 -39 -58 -59 q0 -23 -24 -23q0 -19 70 -47q-23 38 -23 59q53 46 82 46v-11q-9 -70 -24 -70l12 -24v-35l-12 -58h-46q0 26 -47 35l-23 -12h-12l-23 12v-35h46v-23l-11 -24q-13 0 -35 12l-140 -12q-13 0 -35 12q-23 -12 -35 -12v12q-39 -23 -70 -23q0 35 -70 46v12h-24l12 -23v-35 q-35 0 -35 -24h-23q-24 0 -24 47l-46 -58h-12v11l12 24h-12l-35 -24h-35v24l-23 -12h-59q-11 0 -11 12q-47 -6 -47 -35q-25 0 -70 58q-12 0 -35 12v-12q17 0 35 -35v-12q0 -23 -23 -23h-35q-24 0 -35 105v35l-24 12q12 20 12 46l58 -11h12l-23 35v35q0 17 35 35l23 -12 l12 23q-24 0 -24 24v23q4 23 24 23q37 -28 105 -35v-35q0 -11 -12 -11q12 -23 12 -35h23l-12 58v12h70l12 58h35q0 -35 82 -35q19 0 81 70v-47h12l58 12v-12l24 12h11q24 -4 24 -23q6 11 81 11v-11h12q23 23 105 23l-12 23v12q6 0 47 12zM657 881l-12 -23q32 0 70 -24l12 24 v11q-52 0 -70 12zM937 881l-12 -47q24 -38 24 -58q-12 0 -12 -12l23 -11h12q0 29 -23 128h-12z" />
<glyph unicode="&#x3e;" d="M330 1336h24v-23l58 11h12q53 -81 116 -81v-24l-11 -23q22 -12 35 -12l58 12v-70h12q0 58 35 58q15 -11 58 -11v35h12q35 0 35 -47q12 0 35 12q128 0 128 -70h12l35 23h35q0 -35 35 -35q0 23 46 23q0 -23 47 -23v-23q0 -24 -23 -24l-59 24v-12q15 0 59 -117q11 0 11 -11 v-24h-23v-11q4 -24 23 -24q-11 -19 -11 -58h-12l-35 23q0 -48 -58 -105l-35 24v-24l23 -35v-11q-29 0 -58 -24h-47l-35 24l12 -24v-35q-41 -70 -59 -70l-46 24v-12q11 -23 11 -35l-23 -12h-23q0 29 -24 82q-58 -16 -58 -82v-46q-43 0 -70 -24q-51 0 -93 24q-12 -23 -12 -35 l-58 46h-12v-11q0 -35 58 -35v-47q0 -12 -11 -12l11 -23v-23q-23 0 -23 35h-23q0 -59 -24 -59q-16 0 -35 35v24h35v23q-58 0 -58 23q12 0 12 12l-70 58v-35h-24l-11 59q58 0 58 81h-12q-16 0 -35 35q12 21 12 47h12l23 -12l35 59h58l12 -47h23q35 79 35 93h47q23 -3 23 -23 q70 15 70 35h-11q-23 -12 -35 -12v70l70 24q0 -12 11 -12v23q-30 0 -46 47q-23 -12 -35 -12l11 -23v-23q-24 0 -81 81h-47v47l12 23l-24 12h-35q0 -47 -23 -47h-35q0 27 -47 35l-23 -11h-12l12 58l-35 23h-35l-58 -11l-12 46q23 0 23 24h-11q-20 0 -70 -24q0 19 -24 47v23 q78 0 105 59h-11l-59 -12l-11 23q3 24 23 24h12v-24h11v24l59 -12q0 35 70 35v-12zM704 1126v-47q26 0 46 -11q23 11 35 11v24z" />
<glyph unicode="?" horiz-adv-x="1559" d="M902 1826q0 -35 82 -35q60 24 93 24q0 -59 23 -59q50 0 70 -35q35 0 35 35h24q0 -12 -12 -35q0 -58 23 -58q23 12 35 12q19 -48 94 -70q0 -35 58 -35l-12 -24v-35q35 0 35 -70q-28 -23 -46 -23v-24q3 -23 23 -23h23v23h24l23 -11q0 11 12 11v-11q-12 -23 -12 -35h-35 q-12 0 -12 11q-93 -18 -93 -46h23l35 23h24q23 -3 23 -23l-12 -59q24 0 24 -11l23 11h12q-70 -105 -82 -175q-26 0 -82 -93q-16 0 -70 -35l12 -23v-35h-35l-105 46q12 -70 23 -70q23 12 35 12v-12q0 -26 -58 -35l-12 24q-58 0 -58 -47h-47q-70 0 -70 70h-11v-58h23v-35 l-58 11q-31 -163 -70 -163q-20 0 -35 -58h70q11 -21 11 -47h-58l-23 12v-47h-94q-23 0 -23 23h47v35q0 16 -59 59v-47h-81q0 26 -12 47l-23 -12h-12l-12 58q21 12 47 12v12h-23v46q0 24 46 24v58q0 43 47 105q-38 -23 -70 -23h-12v58h12l-12 58q59 0 59 70h35l11 -46h12 q0 35 23 35l59 -35q0 20 23 70q-12 22 -12 35h12q12 0 12 -12l46 23q65 -11 94 -11q116 25 116 70h24l23 -12q0 35 23 35l-23 35v35q35 0 35 23h-23v12l23 35v35l-58 -12l-94 94q-22 -12 -35 -12v12q-42 -23 -93 -23l-35 23q0 -23 -23 -23q-31 0 -47 81l-35 -23l-35 23h-12 q0 -46 -46 -46v-12l58 -12v-23h-12q-11 0 -11 12q-38 -24 -59 -24h-35q-46 -27 -46 -70h-24v12q12 22 12 35h-35q-16 -1 -47 -59h12q0 12 12 12v-47l-105 -23q0 23 -24 23q0 -81 -70 -81l-11 23l23 35v35l-105 12v70q0 23 35 23v12h-35l-47 -12q0 12 -11 12v-23h-47 q0 12 -12 35l140 93h24q0 -12 11 -12q0 28 94 47q0 12 -12 12q12 43 12 105l128 -59v24l-23 -12l11 47l-11 70h23q0 -42 70 -117q12 0 82 82h23v58q4 23 23 23h47q0 -23 23 -23v-82l47 47l58 -12q0 70 82 70zM692 414q117 -17 117 -70h11q24 0 24 24h-24v23h35 q70 -116 70 -163l-11 -24q11 0 11 -11l24 11h23v-46h-23l11 -59q-46 -11 -46 -46l-59 11q0 -46 -70 -46q-22 -54 -46 -59q-55 0 -94 129q24 0 24 23v23l-24 -11h-35q-70 50 -70 128l59 47q0 35 46 58q47 42 47 58z" />
<glyph unicode="@" horiz-adv-x="1991" d="M1159 1873h23l47 -47v24h23v-12q0 -12 -12 -12l12 -23q-12 -23 -12 -35h12l58 12h35l12 23q-12 23 -12 35h24v-23h58q0 -24 35 -47q12 0 12 12q93 -8 93 -24l23 12h12v-12q0 -26 -12 -46q24 -35 24 -82h35v23q70 -35 82 -35v-23l-12 -23l23 -12l24 12q58 -8 58 -70v-47 q47 0 47 -59h23v-11q0 -24 -23 -24q23 -47 23 -70q-23 -3 -23 -23h23l-12 -23q53 -23 59 -47h-82l12 -58h-12l12 -24l-24 -35q24 -3 24 -23q0 -61 -47 -105l23 -35v-12l-58 -35v-11l12 -24h-24v-11l12 -59h-12q-58 19 -58 82v23q-15 0 -47 -70q38 -23 59 -23v-35l-47 -35 l12 -23v-24l-47 12q-23 -12 -35 -12q0 12 -12 12q-82 -119 -82 -140h-23q-17 0 -35 58q-47 0 -47 59h-11q0 -59 -59 -59v12l-11 23q-47 -17 -47 -35v-23q47 0 47 -23q0 -12 23 -12v-23q-124 42 -163 93l11 -23q0 -29 -116 -105l-35 23q0 -58 -94 -58l-23 11q0 -20 -35 -58 v-23q23 -29 23 -47h35q0 35 82 35l-12 -23q70 0 70 -35q39 23 70 23q0 -17 35 -35q12 23 12 35l82 -23q20 11 46 11h35q24 0 24 -35h11q4 47 47 47h35q4 23 23 23q23 -11 35 -11q4 23 24 23h11v-23l-23 -35h23v-35q-32 0 -46 -35h-12v-12h12l23 12q19 -12 58 -12v-12 q0 -23 -46 -23v-12q0 -16 35 -35h11l-11 24v11h47v-23q0 -12 -12 -12l12 -23v-35l-24 12q0 -21 -105 -47q0 -61 -35 -70q0 9 -35 35q0 20 23 70h-11q0 -12 -12 -12l-12 47h-23q0 -12 -12 -35l35 -23q0 -19 -46 -70v-12l23 12h23v-12q0 -23 -23 -23h-47q0 35 -35 35 q0 -12 -11 -12v12l11 23q-58 0 -58 23v12h-12q0 -47 -35 -47h-23l-47 59l12 -59v-23q-9 0 -70 -12l-47 70q-61 -23 -105 -58q-51 82 -70 82q-116 0 -116 58l-82 -12h-35v12q0 23 35 23v24l-47 11v24l12 23h-35q0 -47 -23 -47v35h-47v-23h-47q0 82 -58 82q-70 19 -70 35 l12 23h-82q0 26 -12 47h24q-3 34 -129 116q0 47 -23 47h-35q4 26 35 70v35h35v12l-117 11v35q28 0 47 24q-12 46 -12 81l-23 -11h-35l-12 58q24 0 24 35h11q13 0 59 -70h11q-11 46 -11 82h-70l11 23q-11 21 -11 47l23 11l-12 59l59 151q29 0 35 59q33 0 70 58l-12 58v12 q46 12 82 12l-24 35v12q40 0 47 81q75 35 105 35v-11q38 0 58 93q105 0 105 70l47 58q117 0 117 -46h23v23h-23q22 53 46 58l70 -35q0 70 35 70h24q52 -46 58 -46h35l-23 35v11q3 24 23 24q58 0 58 -59v-11q21 11 47 11l-12 59q4 23 24 23zM1007 1546q0 -46 -35 -46h-23 q-9 0 -35 35q-23 -12 -35 -12q23 -60 23 -93h-12q-31 0 -70 23q-51 -70 -93 -70q-23 11 -35 11l12 -23q0 -80 -94 -105q0 -39 -70 -47l12 -58q-61 -43 -70 -117h-12v24h-23q0 -70 -35 -70q0 11 -12 11v-11q47 -18 47 -35q0 -27 -93 -105v-24q58 0 58 -23q0 -12 -12 -12 q0 -20 59 -81l-24 -35v-12q24 -28 24 -47l23 12q12 0 12 -12l23 12q58 -29 58 -117l24 12l35 -23h23q0 23 58 23q4 -23 24 -23v23h23v-82l23 -35q64 0 70 94h-70v11q12 23 12 35l-23 12l11 23v12l-23 -12l-35 24v-24h-12l-23 12q0 -12 -12 -35q12 0 12 -12q-35 0 -35 -23 h-35v47h12v11h-24v24q27 0 47 -12q47 18 47 35h-59v35q47 0 47 58h-23l-70 -35v59q22 11 35 11v35q-42 0 -70 35q0 20 23 70l23 -11q35 0 35 81q-31 0 -58 59v23q6 0 47 12q0 -12 11 -12q0 27 59 35q3 23 23 23h23l24 -11v46q-59 0 -70 47q23 0 23 35h12l23 -12q0 19 47 47 v12q32 -24 81 -24q0 32 117 94v-12l23 -35q0 -23 -35 -23v-24l59 -93v-12l-12 -23l23 -12q47 35 47 70l70 -58q39 47 70 47q58 -24 58 -35q39 23 70 23v-12q-11 -22 -11 -35q46 -17 46 -35v-11q0 -24 -35 -24v-11h35q23 11 35 11l-11 -58q0 -17 46 -35q0 35 24 35h23l23 -12 l12 24q-58 0 -58 81q70 31 70 175q23 0 23 24v11q-35 0 -35 24l-23 -12h-35v35h23v12q-58 0 -58 58q-33 48 -140 82v12h-70l-24 11v-23h-11q-26 0 -47 12h-35v11l-58 -11h-12v23l-23 -12zM902 1336v-35l-82 -12v35zM960 974q12 -22 12 -35q-58 -19 -58 -58l11 -47v-35 q39 -23 70 -23q0 29 47 35v12l-23 35l35 70q-12 20 -12 46q12 0 12 12q-35 0 -35 47q-8 0 -59 -59zM295 613q-93 -62 -93 -70q26 0 47 -12v23h35v-35q23 0 23 24v23h-23l23 47h-12zM949 531q0 -18 -24 -47v-23q24 0 24 35q22 0 81 -23v11q-23 29 -23 47h-58z" />
<glyph unicode="A" horiz-adv-x="1512" d="M704 1745q42 0 105 -47h35l11 -23l82 11h12q35 -11 35 -70l-47 -23q0 -37 82 -58q0 -57 58 -82q0 -23 23 -23v-36l-58 -11l35 -59q-12 -22 -12 -35h35v24h35v-47h24l-12 -23q12 0 12 -12h-12l-35 23h-12q0 -58 -11 -58l11 -23v-12l-23 -35q18 0 58 70l24 12 q22 -12 35 -12l-12 -58v-24q23 -28 23 -46q-11 -23 -11 -35q48 -24 70 -24v-11q0 -32 -24 -70q35 0 35 -12l-23 -47q23 0 23 -35q-11 -22 -11 -35q19 -11 58 -11v-24h-12l-23 12l-35 -70q82 -8 82 -35v-47q0 -16 -35 -35l11 -70l24 12h23q23 -4 23 -23v-47l-23 -35v-12 q47 0 47 -46l23 11h12v-35h-35v-35h58v-35q-18 0 -47 -23l-35 23h-11v-46q-47 0 -47 -47q58 5 58 35l59 -12v-35q-27 0 -70 -35l11 -23v-12q-23 0 -23 -23l-58 12h-24q0 -47 -23 -47h-35q-23 0 -23 23l35 47h-24l-58 -12l-12 24v35q59 0 59 23q-45 0 -70 70q-23 -12 -35 -12 l-12 24l12 23h-24v23q0 24 35 24q0 23 -23 23v-23h-23q0 46 -24 46l-58 -11q0 11 -12 11q0 -11 -11 -11q0 23 -24 23h-23q0 -23 -12 -23l-23 11q-47 -5 -47 -35q-48 0 -93 12l-70 -12q-38 24 -70 24h-12v-12l12 -58l-35 -24h-23q-24 0 -24 59h-35v-24h24v-23h-24l-23 12 l-12 -24l12 -58l-23 -12h-12q-7 0 -58 47v-35q46 0 46 -58q-70 -40 -70 -59h-58l-35 -23h-23q0 44 -82 58q0 -46 -58 -46v46q46 0 46 24v23l-58 -12l-12 24v11l24 -11l-12 23q4 23 23 23l-11 24q33 128 81 128v12h-58q17 116 58 116v35l-11 24q81 39 81 58q-11 23 -11 35 q58 82 93 82v46q-47 0 -47 35q24 47 59 47v23h-24v35h24v-23h11v12q-11 20 -11 46q70 105 70 140q5 0 46 12q-23 113 -23 128q42 0 82 59q35 0 35 11q0 35 -47 35v24q4 23 23 23q23 -12 35 -12v12q-11 21 -11 47v35q18 0 46 23l-11 59v11l35 -23h11q0 93 70 93v12l-58 58h82 v24zM575 1453l-11 -23v-12h46q24 -16 24 -35l35 23q0 -12 11 -12v12q-23 0 -23 35h-58zM797 1219q0 -39 -35 -81l12 -59h-94v24h-35q0 -26 12 -47v-35q35 0 35 -35l-12 -47q12 -22 12 -35q-12 -42 -58 -70q-16 -47 -59 -93h35l-11 -82q70 0 70 -70h11q0 59 129 59 q0 70 58 70q14 -105 35 -105q0 46 23 46l24 -11v11q0 40 -35 94v11q35 0 35 35l81 -11q23 11 35 11v12h-81v23h-24q0 -35 -23 -35h-12q-16 0 -35 35v24l82 -12l47 58v12h-35v-23q-105 0 -105 70h-24v11q0 12 12 12l-12 23v24h24q0 58 -24 58l12 23q-47 90 -47 105h-23z M564 566q-31 -100 -47 -105q12 -20 12 -47h23v12l-12 58l24 -11h23q0 35 35 35v23q-28 0 -58 35zM284 64l23 -11q23 11 35 11q-35 -29 -35 -46h-23q-24 0 -24 23q4 23 24 23z" />
<glyph unicode="B" horiz-adv-x="1500" d="M704 1826v-23h-24v-12q35 0 82 -23q12 20 12 47h11q18 0 59 -70v-12q0 -23 -24 -23q-22 11 -35 11v-58q24 0 24 35h11q12 0 12 -12q58 35 93 35q4 -23 24 -23v12q0 29 -47 35v35h35q0 -47 35 -47q23 12 35 12l23 -35l-11 -24l35 -23h11v23h-23q12 21 12 47h46l12 -70 l23 12q47 0 47 -59h23v24h24q23 -4 23 -24v-23l-82 -12l47 -58q-35 -43 -35 -82q0 -7 70 -128q0 -12 -12 -12h-11l11 -23l59 11h11v-58h-23l-35 23q0 -11 -12 -11q24 -38 24 -70q-25 0 -94 -105q82 -8 82 -24q-23 -37 -23 -58q58 0 116 -105v-12h24l35 24h11v-12l-23 -35 v-12q4 -23 23 -23q0 12 12 12l12 -59q-75 -23 -94 -23v-12q35 -29 35 -46l59 11h11v-46h-46l46 -117h-70l12 -23q-20 -12 -105 -24l-23 12h-12v-12q18 0 47 -23l-12 -58v-12l35 23q12 0 12 -11q61 9 81 70h35v-35q-25 0 -70 -82h24q0 -54 -59 -70q-23 -38 -23 -58h-58v11 l11 59h-23q0 -35 -23 -35q-35 8 -47 46l-23 -11l-24 11v-23q28 0 70 -58v-12l-23 -35v-12l12 -23q-34 0 -105 -47q-53 0 -70 -11l-59 46q0 -16 -58 -35q-24 -64 -58 -93h-12v23h-35v-23h-35l-35 23h-12v-23h-11l-35 23h-24q0 -46 -23 -46h-12q-45 58 -93 58h-23v-35h-24 q0 17 -35 47l-23 -12h-23q-24 0 -24 35l-23 -12q-20 0 -70 24v-70h-12q-84 35 -116 35v35h35q26 0 46 -12q23 12 35 12v11q0 24 -23 24q0 -24 -23 -24q-18 21 -152 35l-12 24l12 23q-12 23 -12 35h35v-23h12v11q-12 21 -12 47q56 18 70 82h12v23h-12q-38 -23 -58 -23l-12 23 v35l35 47q-58 15 -58 35v11q0 9 35 35q-12 23 -12 35q48 24 70 24v11q-23 0 -46 59v23q40 0 58 117q12 0 12 11v47l-59 -12q-11 23 -11 35l11 24q0 11 -11 11q11 77 35 129q-59 0 -59 23q6 0 47 12q0 10 -23 93l11 82h-35v35q0 23 35 23q-23 88 -23 93q12 23 12 36l-24 -12 q-23 0 -23 23v12h47q0 23 35 23h35l23 24q-12 22 -12 35l-46 -35h-12v46q26 0 35 47q70 0 70 47v11h12q23 -3 23 -23q-15 -58 -35 -58l-23 11l-12 -23v-12q35 0 35 -35v-11q23 0 23 35h70l35 23q24 0 24 -47h23q-21 105 -47 105v-35h-70v47q27 0 82 35l23 -12q24 0 24 24v58 h11l24 -12q0 35 23 35h12q31 0 70 -23q0 30 46 47q0 32 94 46zM1264 1535h11l-11 -24v-23q0 -23 35 -23v-71h-70q0 36 -24 82q8 31 59 59zM470 1500v-47q-42 23 -93 23v-23h23v-82h24v-23h-35v23q-30 -47 -47 -47v-11h12q20 11 46 11l24 -11v23h11q24 -3 24 -23v-12 q-47 0 -47 -47q23 -38 23 -70v-46h82q0 58 58 58q4 23 24 23h11q24 0 24 -46h35q23 0 46 70h35q27 0 47 11l23 -11q70 15 70 46h-46q11 23 11 35h12q23 -3 23 -23q94 18 94 82l-35 -24q-24 0 -24 24q12 20 12 47h-12q-22 -12 -35 -12q-43 70 -58 70q-23 -4 -23 -23v-12h23 v-35h-12q-39 30 -105 47q-11 -23 -11 -35l-82 70h-12q24 -38 24 -59l-24 -11h-35l-11 58h-12v-23h-35zM564 764h-24l-58 47q-39 -4 -58 -58h-35l46 -94v-11l-23 -35q23 -15 23 -129h-11v-46l35 -47l-12 -23q35 0 35 -47l23 12q23 -12 35 -12q12 20 12 47h35l35 -24h47 q0 35 23 35h23v-46q55 0 94 58q222 0 280 128q19 0 35 24q0 11 -12 11q0 22 23 94q-46 0 -46 23l23 47q-128 35 -128 58q0 35 -35 35l-59 -12l12 -23v-12h-35v12l12 23l-24 12q0 -35 -46 -35q-23 12 -35 12q0 -12 -12 -12l-12 23q12 0 12 12q-23 0 -23 23q-175 -15 -175 -70 zM984 181v-23h81v23h-81z" />
<glyph unicode="C" horiz-adv-x="1465" d="M1042 1791q23 -11 35 -11v-47h-23q11 -21 11 -47h12l12 47q70 0 70 -35h11q0 23 12 23q23 -11 35 -11q0 11 12 11q23 -49 23 -58q41 47 82 47v-35q-52 0 -82 -59q4 -23 23 -23q4 23 24 23q0 -20 23 -58q-12 0 -12 -12q47 0 59 70h11q23 -11 35 -11q0 -51 -23 -94v-35 l-35 -23h-23v23l-105 -11q0 11 -12 11l-12 -23q4 -23 24 -23q3 23 23 23q58 -15 58 -35v-12q0 -28 -93 -47v-11q23 -4 23 -24v-11q-12 0 -35 -12q-22 12 -35 12v46h24q0 16 -105 47v59h-35q0 -71 -24 -71v24h-46v-35h-47v23h23v12q-26 0 -46 12q-35 -24 -82 -24v-82h-12 l-58 12q-23 -55 -117 -117q-58 34 -58 70h-23l11 -23v-82q0 -18 -70 -46q0 -25 -93 -210l12 -24q-12 -20 -12 -46l12 -59h-35q23 -58 46 -58v-35l-23 12h-12q0 -9 35 -35q-46 -97 -46 -105h11l105 11v-11l-11 -47q23 0 23 -35h12q0 23 11 23q24 0 47 -58q47 0 47 -47h-12 q-23 -3 -23 -23q11 0 11 -12q7 12 82 12q0 -35 23 -35q21 12 47 12q0 -17 35 -35h35v35h12q46 -21 46 -105l24 11l-12 24v11l47 35q0 12 11 12l59 -12l-12 -23q12 -23 12 -35h11q0 31 70 47q0 43 129 70q17 0 35 -35l-35 -47v-12h11l70 47q-11 23 -11 35l23 12q20 0 93 -94 q0 -70 -46 -70q-14 -58 -82 -58v-23l23 11q24 -3 24 -23v-12q-84 -35 -105 -35q0 12 -12 12q0 -27 -23 -47l11 -23q-11 -23 -11 -35h-47v58h-12q-49 -17 -93 -81h-12q-46 17 -46 35l11 23q-39 0 -58 12v-12q12 -23 12 -35q-39 -23 -70 -23v23q-24 0 -24 -35h-23q0 23 -82 47 q0 11 -11 11l-59 -35q-16 0 -35 35q12 23 12 35h-35q0 -23 -47 -23q0 61 -105 70q-81 35 -81 105h-12q0 -35 -35 -35q0 35 -23 35v12l23 35l-23 -12q-12 0 -12 12l-23 -12h-24v23q13 0 35 12q0 12 -11 12l11 58q0 7 -23 82h-23q11 -21 23 -105l-35 -24h-23v59h23v11l-47 12 v47h35v11q0 17 -35 35h-35v-11q12 -23 12 -35h-23q0 81 -47 81v35q0 59 47 59v11q0 16 -70 47v-12q11 0 11 -11h-35v58h24v47l-12 23h47q0 -18 23 -47v-11h-23v-12q39 0 58 -12q0 12 12 12l-12 23v12l12 58h-24l-23 -11q0 46 -23 46q-23 -11 -35 -11l-12 23v23q0 17 35 35 l23 -11v11l-58 70v24q0 23 47 23l-12 23l12 24q-12 0 -12 11q19 0 58 70h24l23 -11q12 22 12 35l35 -24h23q-58 58 -58 152l46 47q0 -24 35 -24q31 8 59 59v11h-24v36q0 17 47 35v-24q17 0 35 59q105 45 105 93l58 -12q90 105 117 105l70 -35q15 56 82 94v11h35v-58h35 q0 47 23 47h12l23 -12l-12 23v12h24v-23h35l-12 23v12q12 0 35 11zM902 1675q19 -105 47 -105l11 23h-23v23h23v12q-23 0 -23 47h-35zM1054 1675q-35 -85 -35 -105v-12h23q12 84 23 105v12h-11zM319 379v-11q54 0 81 -24v12q-11 20 -11 47q11 0 11 11h-11q-46 -35 -70 -35z M1042 263q0 -24 -12 -24q31 -93 47 -93h35v12h-47v23l24 35v35q-27 0 -47 12zM704 76v-23q19 0 93 -24v47h-23q0 -23 -12 -23q-38 23 -58 23z" />
<glyph unicode="D" horiz-adv-x="1419" d="M237 1710q23 0 82 -24q0 24 11 24l47 -12q12 0 12 12q116 0 116 -94q-35 0 -35 -23q59 12 59 47h11l24 -12v12q0 23 -35 23q0 17 35 35l58 -12q4 24 23 24h47q29 -97 70 -105h12v11l-12 59h23q97 -59 117 -59v12q90 0 105 -117v-11h35l23 58h24q0 -13 11 -35 q-11 -21 -11 -47v-11l35 23h35v-12l-70 -82v-11q12 0 35 -12h11v12h-23q0 18 47 47q70 -29 70 -71h-47l-23 12v-23l23 -35l23 11l59 -11v-35q-35 0 -70 -70l11 -24q16 0 70 70h12q0 -31 23 -70q-11 -38 -46 -46q14 -105 46 -105q0 11 12 11l12 -23v-47h-24l-23 12 q0 -12 -12 -35q94 0 94 -105l-24 -12q-46 18 -46 35q-23 -11 -35 -11q58 -35 58 -82l-23 -35l23 12h23v-24h-46v-23q30 0 58 -70q-12 -20 -12 -47h-23v24h-12q-23 -4 -23 -24q23 -83 23 -93v-12q0 -23 -35 -23l24 -35v-12q0 -23 -47 -23l23 -35v-35l-70 -47q0 -23 -46 -46 q0 -70 -105 -94h-12l12 -23v-35q23 -4 23 -23q0 -24 -23 -24h-35l-12 47l-58 -12v-11q0 -24 35 -24v-23q0 -23 -24 -23h-23q0 26 -12 46q-38 -23 -58 -23q0 23 -23 23l-24 -35q24 -3 24 -23q-18 -47 -35 -47h-12l-35 24h-12v-24h-23q-23 81 -23 140h23v-46h23v46l-11 24 l-24 -12h-11v23h-35v-35l-47 47v-23q0 -24 35 -24v-11h-23l-59 11v-23q35 0 82 -35h12v-23q-18 0 -47 -35l-35 23q0 -26 -47 -35q0 -35 -23 -35q-47 0 -47 47h-35v-35q-70 0 -70 46h-11v-46q-70 0 -70 58h11l47 12q23 -12 35 -12q4 23 23 23q0 -11 12 -11v11q-70 52 -70 70 v24q12 22 12 35h-24q0 -47 -23 -47h-12v12q0 58 35 58v23h-23v12l12 23q-12 0 -12 12l-23 -12q-12 0 -12 12q-48 -23 -70 -23v11q-23 -11 -35 -11v-12q29 0 35 -47h-23q-17 0 -35 35l-59 -11h-11l-12 58l23 12l-11 23v12q0 35 81 35v11l-58 12v23q0 27 12 47q-12 20 -12 47 v23h47q0 26 11 47l-105 23v23q13 0 35 12q-11 21 -23 117h12q23 -4 23 -24l-12 -23h12q23 12 35 12q0 -17 35 -35h23v23q-57 0 -105 105v12q56 16 82 58q-35 0 -35 23l12 24q-24 0 -24 23v23l12 24q-47 0 -58 70q46 0 46 35v11h-23v47l93 35v12q-70 0 -70 46q0 47 -23 47 h-23v12q0 23 35 23l-12 23v12q32 58 105 58q-82 58 -82 71l-23 -12h-23q49 117 70 117l23 11q-12 47 -70 47v70l58 12q0 -12 12 -12q12 22 12 35h11l35 -23q0 12 12 35zM365 1558h24q0 58 23 58h23v24h-35q-19 0 -35 -82zM482 1441q12 -22 12 -35q-23 -53 -47 -58l-35 23 h-35v-23q58 0 58 -24l-11 -58q46 0 46 -23v-24q-31 0 -70 -163q12 0 47 -47q-12 -70 -35 -70q0 12 -12 12q0 -12 -11 -12l11 -23v-12q-32 0 -46 -35h-12q12 -22 12 -35h11l35 24h24v-35q0 -24 -24 -24q35 -99 35 -140q-46 0 -46 -58q46 0 46 -23q-29 0 -35 -47q24 -4 24 -23 v-24l-12 -23h47q0 -58 -24 -58l12 -24v-11l-23 -35l23 -35v-24l-12 -23h12l70 12l-12 -24v-11q35 0 35 -24q42 0 117 82h12q16 0 35 -35l-12 -23q93 0 93 70q40 46 94 46h35q0 35 23 35l-12 24v23q0 23 59 23v24l-24 35v11q70 81 70 152q-23 0 -23 23v24l12 23h-35v35h23 q-12 20 -23 105q15 12 81 12q-11 19 -11 58h-12q0 -47 -47 -47l-23 35q0 24 35 24l-23 151q11 21 11 47q-38 -23 -70 -23v11l12 24q-51 11 -70 70q-23 0 -23 35l-24 -12v23q12 23 12 35l-35 24v-59h-58q0 55 -47 70q0 -16 -35 -35l-47 59q0 -47 -35 -47h-11q-24 0 -24 23v24 l12 23q-35 0 -35 35l-23 -11q0 11 -12 11zM365 298q0 -39 -11 -59l81 -11q-46 35 -46 70h-24zM109 134q22 -11 35 -11v-24q-24 0 -24 -23h-23q0 17 -35 47z" />
<glyph unicode="E" horiz-adv-x="1325" d="M785 1815h24q0 -59 23 -59q30 0 35 -58h12q0 62 35 70v35h11q59 -34 59 -93h23q0 58 47 58q0 -12 11 -12l-11 24v23h11q82 0 82 -105q23 0 23 23q-11 21 -11 47q27 0 58 47h12q0 -13 11 -35q-15 -59 -35 -59l12 -23v-12l-23 -35v-23q35 0 35 47h23q23 -4 23 -24v-11 l-23 -35v-24l12 -23q-35 0 -35 -35v-23h-12l-23 11v-11q23 -4 23 -24v-35h-82q-16 0 -35 35l12 24h-70q0 -32 23 -70h-46v11h-12l-35 -23h-12q-23 0 -23 23v59l23 35v23h-23v-23h-12l-23 11q0 -105 -47 -105q-11 0 -11 12v12q-76 -24 -105 -24h-35v24h-24q0 -35 -35 -35 q-17 0 -58 70q0 -12 -12 -12l12 -23v-12q0 -23 -23 -23q-12 0 -12 11l-23 -11h-12q0 70 -23 70h-12q-17 0 -35 -35q0 -10 35 -35q-12 -36 -23 -36l-47 12q-23 -12 -35 -12q0 -23 58 -23q0 -12 -11 -12l11 -23v-23q-46 0 -46 -24q0 -17 81 -116v-24h-58q0 -13 70 -58 q0 -23 -23 -23q0 11 -12 11v-11q12 0 12 -12h-35l-24 12l12 23v35h-23q0 -18 -24 -47q24 -3 24 -23l-12 -23q39 0 70 -35h12q0 35 23 35q0 -12 12 -12l11 23v59l105 35q12 -23 12 -35q-12 -23 -12 -35h35l-11 23v12q3 23 23 23q47 0 47 -58h11q0 29 12 93h12l35 -23h81v-12 l24 12h23q0 -29 12 -94q-12 -20 -12 -46h23v-35h-46v-12q23 0 23 -35h23q0 47 59 47l11 -24q0 -35 -35 -35v-11l35 -47v-23h-11q-12 0 -12 11l-23 -11l-24 11q-11 -22 -11 -35h-35q-24 0 -24 24v11l47 47l-82 35v-35h-11l-24 12q-11 -47 -11 -82h-94l-35 -23h-35l12 81 l23 -11v35l-35 -24v12q-46 -35 -105 -35v-23q35 0 35 -59h-58v35q-31 -35 -70 -35v-23h23v-47h-23q35 -58 35 -81h-12l12 -24l-23 -58q16 0 35 -35v-12q0 -11 -12 -11q23 -47 23 -82l-23 -12h-12l-35 24l-11 -24q58 0 58 -116h12q0 46 35 46q22 -11 35 -11l-12 23v35h12 q20 0 93 -105v12l-23 46h23l47 -46h58l-23 35q23 29 23 58h35v-12h-23v-11h11l24 11q58 -15 58 -35q-12 -20 -12 -46h12l35 23l23 -12v24h82l58 46q24 0 24 -35l116 70h12q23 -3 23 -23v-12l-11 -23q23 0 23 -47l35 24h12v-35q-30 0 -47 -47q-52 0 -105 -105h12q22 12 35 12 q35 -82 58 -82v-12q-12 0 -35 -11q-20 11 -47 11v-23l-23 12q0 -12 -12 -12v23h24q0 24 -24 24h-35l-23 70q12 0 12 11q-50 0 -70 -116q-44 0 -70 -24h-12l-58 12q-18 -47 -35 -47h-35l-12 47h-58q-24 0 -24 47h-23q0 -47 -35 -47l-23 12v-35h-24v11l12 24h-23v-47h-24 q0 32 -35 47v23h-23q0 -30 -47 -47q0 -35 -23 -35h-23q-12 0 -12 12l-23 -12h-35q0 19 -24 47v35l12 23l-23 12v-35h-47l12 23q-23 -11 -35 -11l-47 23q-23 -12 -35 -12l-12 24q33 105 59 105h11v23q-44 0 -81 105q28 23 46 23q23 -11 35 -11q0 43 -93 70v23h12l23 -12 q0 24 35 24v11q0 24 -35 24l12 23l-24 -12h-35v35q24 0 24 24h23v-24h12l46 70q-15 59 -35 59h-81v46q0 24 46 24l-35 70h82q0 49 -70 70q-12 22 -12 35q17 0 35 35q-70 41 -70 58t59 35q11 83 11 93q-23 0 -23 24l12 23v35h23v23q-47 0 -47 24v11l47 59q-47 0 -47 35 q0 82 70 82q-46 93 -81 93v12q0 18 81 46q0 42 59 82q22 -12 35 -12l-47 105h12q35 -11 35 -23q38 23 58 23q0 -11 12 -11v46q23 0 23 -46q46 11 82 35q3 -24 23 -24h35l47 47h11q82 -34 82 -70h58q0 35 59 47q22 -12 35 -12l-12 23q4 24 23 24zM937 1126h47l11 -105l-35 23 q0 -46 -23 -46h-12l12 81v47z" />
<glyph unicode="F" horiz-adv-x="1220" d="M529 1803h11v-12q-11 -22 -11 -35q70 -27 70 -46q148 81 175 81q22 -11 35 -11v-24l-12 -23q47 -12 47 -58q11 0 35 46l-12 24v23h82v35h46v-35h35v23l59 -11v-35l-12 -24q59 24 82 24v-47q-29 0 -59 -23h-11l-59 35q0 -13 -11 -35l151 -70v-12q0 -26 -11 -47 q11 -20 11 -46q-14 0 -116 -70h-35q0 39 35 81h-12q0 -17 -35 -35h-12l-23 12q0 -31 -93 -47q-39 24 -70 24q0 -24 -24 -24q-29 0 -35 47l-58 -47h-58v24l-47 -47h-12q-35 0 -46 93h-12q0 -70 -70 -70q0 -35 -23 -93q23 -60 23 -94q-47 -5 -47 -35q12 -20 12 -46 q-23 -4 -23 -24v-11q46 0 58 -70l-23 -12h-12v35h-23l-12 -58h58q12 -20 12 -59h12q0 35 11 35l24 -11h11v11h-23q0 52 58 82v12h12q23 0 23 -47q23 0 82 23l23 -58h12l12 58q128 0 128 -46q39 46 70 46l70 -58q0 35 23 35h12q23 -4 23 -23q-11 -21 -11 -47h-12l-23 12 q0 -53 58 -117l-12 -23q24 0 24 -12q-12 -23 -12 -35q12 0 12 -12q-35 0 -70 -46h-12q-26 0 -47 11h-35q12 23 12 35l-128 -46q-12 -23 -12 -35h-47v46l24 35q-12 -11 -94 -11l24 -35q-10 -47 -94 -47q0 58 -58 58h-12v-11q12 -23 12 -35q-70 0 -117 -82h-23v-47 q58 -3 58 -35q-31 -46 -58 -46v-24q0 -14 82 -46v-12l-35 -47q23 -3 23 -23v-12h-82v-23h70v-58h-58v-12q82 -22 82 -105q-59 -3 -59 -35q-20 12 -46 12l11 58q-30 0 -70 -93q-35 0 -35 -59h-58v35q35 0 35 35q0 12 23 12q-23 28 -23 47h-12q0 -35 -58 -35h-23v46l11 24 q-23 0 -23 11l-23 -11q-24 0 -24 23v58h59v47l-70 70l23 35v23q-23 24 -23 82h11v23q-35 0 -35 35q12 35 24 35q22 -11 35 -11v70q-35 0 -35 23l11 23q-11 23 -11 35h11l59 -11q-70 37 -70 93v12q0 9 81 58v23q-39 0 -81 129h-24v23q27 0 82 35h12v23q-59 0 -59 59v35 q-35 0 -35 23q12 23 12 35h35v-23q30 35 58 35v11h-35v-11q-46 17 -46 35l23 35h-35v11q0 12 12 12l-12 24v11q35 0 35 24q-17 0 -35 35v23l23 35q-11 22 -11 35h11l70 -58v-35h12l23 11l-11 24v11l70 59q-54 35 -70 35q0 27 93 46q0 44 47 82h23q17 0 35 -35l-12 -23 l24 -12h23l-23 82h23v-24l35 24q12 0 12 -12zM167 1640h12v-47h-12q-23 0 -23 23q3 24 23 24zM365 1453l24 -12q66 47 93 47v23q-117 -29 -117 -58zM1077 998h23v-59q-17 0 -46 -35h-24v12q47 67 47 82z" />
<glyph unicode="G" horiz-adv-x="1675" d="M1042 1791q23 0 35 -70h12v47h23l23 -12q4 24 24 24l35 -24l23 12q19 -12 58 -12v-46l-11 -24q27 0 70 -35q0 12 11 12v-12l-11 -23l23 12h12v-24h23v12q-35 58 -35 82h58q0 -35 47 -35v-12q0 -58 -35 -58v-24q47 0 47 -23v-23h-59l-23 -12q0 12 -12 12l12 -24v-11h-23 v-24q46 0 46 -23v-12h-81v24l11 23h-23q0 -23 -35 -23v-35h35v-12q0 -24 -23 -24h-35q0 59 -59 59h-11q-12 -23 -12 -35h-23v23h-12l-35 -23h-12q-11 0 -11 12l-24 -12h-116q0 -59 -24 -59q-31 0 -35 59h-23q0 -87 -175 -152q-47 0 -47 35h-11q-56 -55 -117 -198h-12 q0 11 -11 11v-11q16 0 35 -35v-24q-47 -44 -47 -93h-47l12 23h-12l-35 -46q35 0 35 -24v-35q-26 0 -46 -11h-35l-12 -24q70 0 70 -35v-23l-12 -23l24 -12l-12 -58q0 -20 23 -70q-11 -23 -11 -35l23 11h12q15 0 58 -58v-12h-35v-46h12q0 35 35 35q55 0 81 -117h59v-23h11 q0 46 24 46q0 -38 46 -46q5 -35 59 -82v-23l-24 -35h12q0 11 12 11v-11q47 13 116 81h12q47 -11 47 -70h11q35 0 35 59h35v-24l24 12h23v-12l-12 -58h47q0 47 82 93l23 -11l-35 46q0 9 12 70q-12 21 -12 47l23 -12h35q-46 76 -46 140q11 21 11 47h24v-23h23l35 23 q-12 23 -12 35l-23 -12h-70l12 24q0 11 -94 46l-23 -11h-47q-23 0 -23 23q0 18 47 47h23l23 -12l12 23l-47 12l-46 -23q-23 11 -35 11v70l81 24v23h-11l-35 -23l-24 35v11q4 24 24 24l23 -12q19 12 58 12l-46 46q23 30 23 59h12v-24h46l59 -11v23h35l-12 -23q4 -24 23 -24 q0 24 82 35v-35h-23l-24 12v-58l59 -12q0 47 23 47q12 0 12 -12q15 12 58 12q35 -27 35 -35v-24h-35v-23h12q22 12 35 12v-24q0 -11 -12 -11l12 -24q0 -22 -24 -81q47 0 47 -24l-12 -23q82 0 82 -47h12v-23h-12l-23 12l-12 -24q34 0 58 -46q-58 -43 -58 -70h-12l-23 11 l-12 -23q47 -7 47 -93v-12q0 -23 -23 -23q-12 0 -12 11l-23 -11q-24 0 -24 23l12 23h-35q0 -58 58 -58v-23h-70q-13 0 -58 -94h12q23 0 23 35q59 -23 82 -23q0 23 70 35l11 -23v-12h-35v-70l-81 12v-12l46 -58q-11 -65 -11 -94h-24v24h-11v-59q-44 0 -94 -81q-31 0 -70 -35 q-18 0 -46 46q-82 -18 -82 -58l-23 -12q-24 0 -24 24v11l12 24q-12 0 -12 11l-23 -11l-23 11q0 -23 -24 -23h-116l-12 58h35q0 -35 23 -35l-11 24v35h23q-17 46 -35 46q-20 -11 -47 -11l24 -47q-40 0 -59 -58h-35l-46 35h-12v-24h-23q9 86 35 117h-24v-23l-23 11 q0 -11 -12 -11v35h-23q0 -24 -12 -24l12 -23v-35l-47 -12q-23 23 -23 70h12v12q-39 0 -59 12q-23 -59 -81 -59q0 35 -35 35l35 59v23l-35 82q-97 26 -129 70q-46 0 -46 -59h-24q-23 0 -23 24l23 35v23q-23 0 -23 12l-23 -12h-12q-23 0 -23 23v35q-27 0 -35 59l70 23 q0 18 -70 58v12l23 35h-23v-23q-59 0 -82 81q-35 0 -35 12q0 35 35 35v70q23 23 23 82q-70 11 -70 35v23q117 14 117 47l-23 11h-12v-35h-70v12q0 28 47 93v24h23l82 -12v23q-59 0 -59 105v12q35 31 35 93l24 -11q46 39 46 70h24l58 -12l-12 58v24q0 12 59 47q-12 22 -12 35 h23q4 -59 35 -59q0 92 82 117h12l-12 23v35q33 0 187 59h11q0 -12 12 -12q0 75 47 93h23l35 -23h23l-11 23v35l23 -11q20 11 47 11q3 -23 23 -23h70v-23h35q0 46 12 46l-12 24v11zM809 1628q0 -61 81 -82q-23 54 -23 105h-12q-28 -23 -46 -23zM937 916q23 -4 23 -23l-23 -12 v35zM960 893h24q23 -4 23 -24q0 -23 -23 -23h-12zM330 426v-23q32 0 47 -35l23 -12l12 58q-23 0 -23 24q-20 -12 -59 -12zM505 403v-24l12 -23q-12 -20 -12 -47v-11l59 11v-23h23q0 23 47 70q-47 0 -47 23h-70v24h-12z" />
<glyph unicode="H" horiz-adv-x="1419" d="M214 1640q22 -12 35 -12v-23l-12 -24l23 -11h12v46l82 24l11 -70h12v23h35v-35q-58 0 -58 -23q11 0 11 -12l24 12l35 -24v24h23v-12q-12 -47 -58 -47q-12 23 -12 35h-12q0 -23 -11 -23q0 -45 93 -210v-12q-34 0 -58 -163l-70 -24v-11q12 0 35 -12q0 23 81 35v-23 q-35 -52 -35 -82q64 -58 94 -58v-47q-54 35 -94 35v-47q0 -20 59 -35q46 40 46 82h35q32 0 70 -23l24 58h23l35 -23h35q0 12 12 35q105 0 105 -82q46 2 105 82h11q0 -35 24 -35q0 17 46 46q0 47 24 47h11v-23h12q18 0 35 46l-58 24v70q-9 0 -70 11v35q46 0 46 47 q-11 23 -11 35h11q-11 23 -11 35q35 65 35 129h-70v46q23 0 58 82q-23 0 -23 23v12h140q0 -13 11 -35q47 0 59 70h23v-35q0 -23 -23 -23l11 -24v-11l-23 -35q23 0 23 -47h12q29 35 47 35l-35 47v35q12 0 35 11q22 -11 35 -11v-24q0 -11 -12 -11l12 -24v-11l-12 -24 q23 0 35 -82q-4 -32 -47 -58q0 -38 -58 -47q12 -15 12 -58h-12q39 -38 58 -105q35 0 35 -23q-9 -86 -35 -117q24 -4 24 -23v-24l-24 12q12 -23 12 -35q0 -20 -23 -70q70 0 70 -47v-11q-23 -12 -35 -12v-82l-35 -70q40 0 70 -116q-59 -15 -59 -35q59 -62 59 -117 q-24 -4 -24 -23q24 -4 24 -24q-51 -70 -59 -70q24 -38 24 -58q-12 -23 -12 -35q23 0 23 -35q-11 -23 -11 -35h-24q-69 12 -105 12v-47h-35l-35 23v-11q12 0 12 -12q-59 -23 -82 -23l-11 23q0 12 11 12l-11 23v12l58 11q0 -11 12 -11l11 23q-46 0 -58 70h-12q0 -23 -11 -23 l11 -24l-23 -35l-23 12h-12v-12h23v-35h-58v12q35 42 35 152l-23 -12h-12v35h35q0 23 -23 23q17 97 46 129q-23 0 -23 23v12h12l58 -12v35q-35 0 -35 35h-23v-35q-17 0 -35 35v23q23 0 23 12l23 -12h12v24h-23l-24 -12v23h24v24q0 17 -47 35l-58 -35h-12l-12 46l-70 -11 q-24 0 -70 58q-11 0 -11 -12l-24 12l-58 -12l12 -23q0 -16 -59 -58l-35 23h-11v-23q-82 0 -82 70q-19 0 -35 -82q-47 0 -47 -23q0 -24 -35 -24v-35h12l58 12l12 -23q0 -27 -12 -47q12 -23 12 -35l-35 -23l12 -24v-11q-35 0 -35 -47l-24 12l-11 -24l11 -23l24 12q16 0 35 -35 v-12l-59 -70v-12q70 0 70 -93l-23 12q-23 -12 -35 -12q0 17 -35 35q-17 0 -35 -35q23 0 23 -12q-23 -38 -23 -58h-12l-23 12q0 -24 -23 -24q-105 0 -105 82q70 12 70 58h-47q0 -35 -23 -35h-35v12l11 23q-23 0 -23 12l-23 -12h-12v70l-12 59l47 35q8 0 35 58q-17 0 -35 35 v35h23v-23h24l-12 23q0 23 47 23q0 24 -24 24q-20 -12 -46 -12l-12 23l12 24q-17 0 -35 35h23q-35 58 -35 81q19 12 58 12q-70 93 -70 105h35v12l-11 58l23 12l-12 23v12q24 0 24 11q-20 59 -59 59q0 57 47 81q35 77 47 164q-82 0 -82 58q-12 0 -12 23l12 47l-12 23 q12 23 12 35h58v-23h12v12q-35 54 -35 70l-23 -12v59q20 0 58 140v11l-23 35v12h11l59 -12q0 24 35 24zM540 858v-59q0 -23 -23 -23q0 12 -12 12l-11 -24v-11h70v58q0 12 11 12q-11 22 -11 35h-24zM132 776q0 -18 -23 -47v-23q12 0 35 -12l11 24v58h-23z" />
<glyph unicode="I" horiz-adv-x="859" d="M669 1721h23q0 -35 23 -35l70 12l12 -23q-23 -38 -23 -59v-35q-12 0 -12 -23h-12l-35 23l-11 -23q9 -47 23 -47h35v-11h12q0 35 23 35q12 -16 12 -59q-23 -11 -35 -11v-35h23v-12q-23 -29 -23 -47q-35 0 -35 47h-35q-70 -24 -70 -47q0 -58 -47 -58q9 -67 58 -105v-12 q-27 0 -35 -70q-11 0 -11 -12v-11h35l-12 -70l12 -24l-35 -46l11 -24q0 -35 -35 -35l24 -46l23 11h23v-11q-93 -66 -93 -140h-23l11 -24q23 12 35 12q47 -17 47 -35q-12 -15 -12 -58h24v-12l-35 -82h-35v-11q0 -56 58 -117l-12 -23q24 0 24 -59l35 24l-12 23v23h12 q93 -66 105 -116q0 -19 -59 -59l-23 -58q12 -23 12 -35h11l24 12v-12l-12 -23q23 -4 23 -24v-11q-39 0 -58 -12q0 47 -23 47q0 -12 -12 -12v23h-23q-24 -3 -24 -23q35 0 35 -70h-11q-21 12 -47 12h-47q-26 0 -46 -12q-38 23 -59 23q-93 0 -93 -70l-58 12v23h23v24 q-47 0 -47 81h-11v-58l11 -58l-23 -12q0 26 -12 47l-70 -24q-38 4 -58 59h-12v58q35 0 35 23q-38 24 -58 24q0 -12 -12 -12v47h24v-24h23q0 35 35 35v47l-23 35l23 12q9 0 35 -35l82 23q3 -23 23 -23v23l-12 23l-23 -11q-23 0 -23 23v35h11q23 -12 35 -12l-11 24 q23 76 23 105v11l-12 82q59 15 59 35q-59 0 -59 105h35q0 -12 -11 -12q23 -35 23 -81h23q0 39 12 58q-23 12 -35 12v46h35v35q-70 0 -70 24v11q35 0 35 24l-35 105q70 100 70 140q-53 22 -58 46q0 21 23 70q-47 0 -47 35h24v24l-12 23h23l-11 23q11 23 11 35l-35 -23h-11 q-24 0 -24 23v12l35 47v11l-23 36q12 0 12 11h-12q-12 -19 -12 -58h-58q0 23 -23 23v47h23v12l-12 23l-46 -23l-12 23q25 1 58 70q43 0 70 47q-23 38 -23 70v11h47l46 -35h12q35 24 82 35q35 0 35 -35h35v24h58q21 0 47 -94h11q0 13 12 35q-12 21 -12 47q0 23 35 23h35 q0 35 24 35z" />
<glyph unicode="J" horiz-adv-x="1302" d="M482 1686h12l35 -23l-12 -58v-12h12q0 30 46 47v11h12q83 -23 93 -23l24 12l23 -12q28 0 82 47h11q17 0 35 -35q48 23 70 23q59 -35 59 -58h11q0 8 12 70q26 0 117 -35v-47h-24v-23q0 -27 59 -35v-59h-59v-23q30 0 59 -23q3 23 23 23h23q17 0 35 -35v-12l-23 -35h23v-23 q-27 0 -46 -24q-47 18 -47 35l12 24h-12l-35 -70l23 11h12q29 -23 47 -23q0 -58 -24 -58q12 -38 47 -47q4 23 23 23h12v-23q-20 -47 -47 -47v-35q35 0 35 -23v-23l-35 -47v-12h24v-23q0 -16 -70 -70q26 0 58 -70h12v-47l-24 -35q12 -20 12 -46q-67 -94 -82 -94q0 12 -11 12 v-35h23q0 35 23 35h12q0 -18 35 -105l-23 -12h-12l-23 12v-23q26 0 46 -47v-12l-105 -35q24 -42 24 -93v-12q-36 -11 -70 -11v11h-24v-23h24v-70h-47q0 23 -23 23q0 -23 -59 -58l-11 -23v-12h23v-82h-12q-11 0 -11 12l-24 -12h-35q-70 65 -70 94h-23q23 -48 23 -70 q-14 0 -46 -82h-24l12 -23v-24h-47l-11 59h-24v-35l12 -24h-58v47h-35l23 -35l-47 -47l-58 12h-23l-24 -12l12 -23v-12h-12q-93 29 -93 82v12h-58l-47 46h-12l-11 -58h-35v70h-24v-35h-58q0 52 -12 70l-23 -12h-12v94h35l-23 35v35q0 11 12 11l-12 24v11l58 12q0 -12 12 -12 l12 70h23l23 -11l-11 58v12h46q0 -35 59 -47q3 23 23 23h12q0 -46 35 -46l-12 -59l47 -35q0 59 58 59q23 -29 23 -47h70v47l59 -12q0 35 23 35h12v-23l-24 -35v-24q13 0 35 -11v46q59 0 59 82q31 70 46 70h24l23 -12l35 59q-12 22 -12 35l35 23q-23 38 -23 70h47v-23h11v23 q-17 0 -35 47q12 22 12 35h12l81 -12l-11 23l11 24l-23 -12h-23q0 23 -47 23v47q47 0 47 23q-17 0 -35 35l11 24h-35v23q0 12 12 12l-12 23l24 35v35h-24v12q0 16 70 35l12 46l-12 24q12 20 12 46h-23l-12 -58h-35q0 9 -12 70q23 12 35 12l-11 46q11 23 11 35l-93 59 q0 9 -12 70h-11q0 -70 -47 -70v-12h-47v47q21 11 47 11v71h-23q0 -12 -82 -94v-47h-47l-46 35l11 -23v-12h-11q-105 21 -105 47v23q3 24 23 24q32 0 70 -24v12q-119 53 -128 94h11q-4 32 -46 58q0 9 -12 70h23q0 -35 24 -35h11v23h12l35 -23q23 0 23 23l-23 35q35 45 35 70z " />
<glyph unicode="K" horiz-adv-x="1594" d="M1380 1686h24q0 -95 -35 -163q74 -23 93 -23q4 23 23 23l24 -12q3 24 23 24l12 -59h-24v-11l24 -35v-59q-59 0 -59 35h-23q0 -23 -23 -23v-35l46 -12v-12q0 -23 -58 -23v35q-22 -12 -35 -12l12 -81q-39 0 -59 -12q-47 23 -70 23v-11q24 -29 24 -47q-12 -22 -12 -35h-23 q-24 0 -24 23v12l12 23h-12q-37 -81 -70 -81l12 -24v-11q0 -15 -175 -82v-12l23 -35v-11h-46q0 -59 -70 -59v12q0 12 11 35q-17 47 -35 47q-23 -29 -23 -47h-70v-23q75 0 82 -35v-12q0 -23 -24 -23q-22 11 -35 11l-46 -58q-47 0 -47 -23h12q0 11 11 11v-23q-119 0 -151 -70 v-12h35v35h11l47 -35l-12 24q4 23 24 23h23l47 -35h35q18 -62 70 -93v-35h11q24 0 24 46h46q12 0 47 -70q43 0 70 -46v-35l-12 -24h82v35h23v-81l47 -12v-35q-35 0 -35 -23q72 -24 93 -24v35h24q58 -38 58 -46l23 11h35v-23q0 -17 -35 -35h-11v23q-21 -11 -47 -11 q4 -24 23 -24q0 -86 -58 -93v-12h23q-23 -74 -23 -81l-70 23q-12 -19 -12 -58h-58q0 29 -58 105q-7 -12 -82 -12q0 70 -47 70q-20 35 -70 35v23h24q11 0 11 -11l24 11l35 -23l11 23v12q-44 0 -116 35q0 -17 -35 -35h-12v23l23 35v12q-35 0 -35 -35h-35q0 29 -23 58v12h23 q0 23 -23 23l-35 -46h-35v11l12 24h-24v-24q-42 59 -70 59v23h35v23q-29 0 -58 24l-23 -12q-59 12 -59 47q12 22 12 35h-23q0 -47 -47 -70q0 23 -23 23h-12v-23h35v-24h-23l-24 12l12 -23v-35q0 -12 -12 -12l12 -23v-59l-47 -46v-12q48 23 70 23l12 -23q0 -63 -47 -82 l12 -58v-82h-58v12q0 12 11 12q-11 19 -11 58h-24l-11 -47q23 -3 23 -23q-12 -23 -12 -35h-23q-23 0 -23 23h23v35q-16 0 -58 -58v-12l11 -23h-11q-12 0 -12 12l-58 -12h-24v23q59 0 59 59v35q-22 0 -94 -24q-17 12 -70 12v23l24 -11h11q0 7 24 81l-24 -11h-11l-12 58v47h23 v58q0 12 12 12l-12 23v47q35 0 35 81v12l-23 35v70h-23v58q0 16 70 70q-21 12 -47 12v23q0 12 12 12l-12 23v24l58 11q0 24 -46 24v23q26 0 46 47q-14 0 -58 70v11l23 82l-11 23v35h-12q31 47 58 47v12q-46 0 -58 70q31 4 47 58q-24 0 -24 23v35l24 36q-12 50 -12 81 q23 0 23 24q-23 0 -23 23v23q4 24 23 24l24 -12q0 12 11 12v-35h-35v-12h47q12 22 12 35l58 -12v35q18 0 47 -46h-12l12 -24v-23h-24v-12h12l70 12q35 -51 35 -93h23v23h47v-47l-23 -35q-23 12 -35 12h-24v-12q51 0 70 -47v-58h-35l-23 12q0 -24 -23 -24l11 -23l24 12 q29 -24 58 -24v-11h-35v-12l23 -35v-12q-35 0 -35 -23v-23h24v-59l-12 -23q35 0 35 35h12q26 0 46 -12q35 0 59 105q54 0 81 24h35q24 -4 24 -24l-12 -58q26 0 47 -12v12q-24 0 -24 23v12q35 0 35 23v12q-26 0 -46 47v23q73 23 105 23l-12 24v35h35q8 0 58 -59q0 59 12 59 l-12 23q24 29 24 47h23l23 -12l12 59h47l35 -24l-12 59v35h70q0 29 58 35q39 93 152 93q0 58 23 58zM412 1628v-12q-7 -58 -70 -58l-23 35v23q83 12 93 12zM400 998v-47h35q24 0 24 23q-24 0 -24 59q-16 0 -35 -35zM1007 461v-12q12 0 12 -11q-23 -12 -35 -12v-12h23v12 q38 -23 58 -23q-7 46 -58 58zM1112 169l-12 -23l24 -12h58q-12 35 -70 35z" />
<glyph unicode="L" horiz-adv-x="1162" d="M155 1616h35q53 0 105 -70h12l-12 -23q47 12 82 35h23q24 -4 24 -23v-24l-12 -23h12q0 12 11 12v-59h-23v-70l-12 -117q30 -46 47 -46v-35h-23v-24h35v-35h-24v24l-46 -24l11 -23v-23q-50 -47 -58 -47l12 -23v-35q0 -24 -35 -24v-11h46v35h12q17 0 35 -35v-35h-35v-24h12 q38 24 70 24v-12q0 -12 -12 -12l12 -23v-23q-36 -12 -70 -12v23q-29 -23 -47 -23q12 -82 35 -82q23 12 35 12l12 -23v-12h-35v-23h23v-12q0 -23 -35 -23l12 -24v-11l-47 11q-23 -11 -35 -11q0 -19 82 -59l11 47h35v-12q-11 -22 -11 -35q23 -3 23 -23v-23l-35 -47v-58h-23 l11 -24q0 -46 -70 -58v-12h12q20 12 47 12l23 -58h12v23q-12 0 -12 12h35v-24l58 12q35 -52 35 -105q17 0 35 35l-23 35v23h23q12 0 12 -11l23 11l24 -11q70 18 70 70q70 -9 70 -24l23 12h35q23 -4 23 -23l24 11h11q24 -3 24 -23v-35h-12l-35 23q0 -11 -12 -11 q0 -30 105 -59q12 23 12 35q-16 59 -47 59v11q4 24 24 24v-24h46q0 24 12 24q23 -12 35 -12v-12q0 -23 -47 -23v-23q27 0 47 -12v47h35q35 0 35 -129h-23l11 -23v-23q-58 -47 -58 -82l23 12h12v-12l-12 -23h24v-35l-24 11h-11q0 -35 -24 -35h-11q-12 0 -12 12l-23 -12h-12 l-35 24q-1 -16 -58 -47h-12q0 82 35 82v35h-23q-21 -94 -59 -94q-38 24 -70 24h-11q0 -59 -35 -59l-24 12q-20 -12 -46 -12l-12 24v35q23 0 23 11l24 -11h35v23q-35 0 -35 23h-12q0 -35 -23 -35q-12 0 -12 12q-23 -12 -35 -12v-46h23v-35h-11q-24 0 -24 23q-47 -23 -70 -23 l-11 23v12l11 23l-23 12q0 -47 -47 -47q-22 12 -35 12l-11 -24q11 -22 11 -35h-23q-26 117 -47 117v-12q12 -64 12 -93h-12q-23 0 -23 47h-23v-24h-70l-12 59h35v-35h12q0 46 70 46v12l-105 12q-23 -12 -35 -12l-12 23q12 0 12 12q-17 0 -35 35h23v12q-19 58 -70 58v23 l12 24q-17 0 -35 35q11 0 11 11q-35 0 -35 24v11q0 10 94 70h-82v12q0 11 23 93l-11 59h23v11h-23v24h11q24 0 24 -35h35v23q42 -23 93 -23l47 46l-47 59q-16 -39 -47 -70q-46 11 -46 70l-24 -12h-23q-23 0 -23 23v24q23 0 46 81h35q0 7 -46 59q0 26 11 46q-8 70 -35 70v35 h24v12q0 26 -12 47q23 81 70 81q0 -11 12 -11q0 29 23 58q-38 -23 -70 -23q0 11 -12 11v-11q-22 11 -35 11v12q0 23 35 23l-23 35l12 24h-24v11l24 35l-12 59q12 22 12 35q-24 0 -24 23q0 27 59 35q0 -12 11 -12q0 47 82 47v-23h-23v-12h35q0 24 70 24v23l-70 12 q-80 -12 -129 -12v82h35l-11 23v12h23l-12 23v23zM155 1488q36 0 82 -12q0 17 -35 35h-23q-24 -3 -24 -23zM62 1114h23v-23h-23v23zM785 228q0 -22 -23 -94l23 -11q24 0 24 23l-24 12l12 58v12h-12zM867 204v-11q12 -23 12 -35h-12q12 -20 12 -59q26 0 35 59l58 -12v12 l-12 23l-23 -12h-23v35h-47zM132 123q12 -21 12 -47l-24 -12h-11q0 35 -24 35v24h47z" />
<glyph unicode="M" horiz-adv-x="1804" d="M1497 1780h23q24 -4 24 -24v-11h-12q-22 11 -35 11v24zM1485 1756q69 -81 129 -81q38 23 70 23q0 -23 35 -23q-7 -94 -47 -94q0 -17 35 -35v24h12q23 -4 23 -24v-35h-11l-24 12l12 -58q0 -27 -12 -47q12 -23 12 -35q-17 0 -35 -35q70 0 70 -24v-11q-13 0 -35 -12 q-21 12 -47 12q0 -18 -23 -47q29 0 58 -117h12q0 -25 -35 -116q23 -38 23 -59q0 -20 -23 -70q35 -6 35 -81q0 -59 -58 -59v-23q46 -3 46 -47l-23 -58q23 -4 23 -23v-12q0 -27 -58 -35q0 12 -12 12l12 -24v-11l-24 -35q71 0 71 -35v-12q0 -23 -24 -23l12 -24v-35l-23 -35h23 v-35h-47v-11q0 -24 94 -35l11 -24v-23h-46q9 -24 23 -128h-70q-12 46 -12 81h-47v-11l24 -35v-12q-32 0 -70 23q-12 -22 -12 -35h-82v-35h-23q0 46 -82 70v24q33 93 47 93h35v35l-23 -12h-35v35q0 12 11 12q-11 23 -11 35q16 58 46 58l-11 70l-59 -35h-11v12q0 12 11 12 l-11 23v12q12 0 35 11l46 -23v35q-81 0 -81 35q0 22 35 93q-12 23 -12 35q35 59 70 59v46l-23 -11h-24q-23 0 -23 23v23q0 12 12 12l-12 23v12l58 -12q-23 39 -23 70q18 47 35 47l-12 23v12q0 12 12 12q-12 22 -12 35q12 22 12 35h-58q0 -35 -35 -35q-82 -24 -82 -47v-58 h-12l-23 11q0 -46 -35 -46l23 -35q0 -8 -58 -59h12q-10 -70 -70 -70q0 -81 -82 -81q0 18 -47 46v12h-11q-105 -38 -105 -70h-35q0 58 -59 58q-11 21 -11 47q23 0 23 23l-23 -11h-12q0 36 -105 151q0 47 -23 47q-28 0 -47 93l-58 94h-12q0 -24 -12 -24h-35q0 -43 -23 -70 q23 -3 23 -23v-58h-11q-12 0 -12 11q-58 -15 -58 -35v-23q58 0 58 -105q23 0 23 -58q-41 -47 -81 -47l-12 -58l35 23h23q24 -4 24 -23v-70q0 -24 -24 -24l12 -23v-35q0 -23 -47 -23v-24q35 -32 47 -93h23v-35q-35 0 -35 -23q17 0 35 -35q0 -20 -23 -70q12 -23 12 -35 q-27 0 -35 -59v-70l-47 -35q0 -11 -12 -11l12 -24v-11h-117v23q0 15 70 47q-11 22 -11 35h-12q0 -47 -23 -47h-24q-58 0 -58 35h-23l-59 -12v24h24v11q0 24 -24 24q0 70 35 70l-11 23q0 9 11 70q-11 20 -11 47q11 0 11 11q-70 16 -70 35v12q0 23 47 23q0 27 -12 47 q0 35 35 35v35q-46 0 -46 23v24q8 0 70 11l-24 35v24l12 23l-82 93v12q4 23 24 23h11q52 -46 59 -46h11v11q-35 0 -35 59h-70v23l94 23q3 -23 23 -23q-12 19 -12 58h-11v-23h-24v12l12 23q-48 16 -70 58l70 94q-70 0 -70 46l12 24q-12 20 -12 46q70 0 70 47h35v12 q-58 0 -58 46l-24 -11q-23 0 -23 23v12q39 74 105 128q0 -11 12 -11v46h-47v24q14 116 70 116h12v-23h70v-23h35v58q0 17 35 35h11q12 0 12 -12l23 12l24 -12q11 35 23 35q23 -11 35 -11v-82q117 0 117 -93h-24v-12q75 0 105 -117v-35l24 -12h11v12h-23v23q61 0 105 -70 q19 0 47 -46q46 0 46 -24v-23l-46 -12q-23 12 -35 12l-12 -23v-24q47 0 47 -23q23 0 23 58h12l58 -11q0 35 117 70q11 15 11 58h-35v23l24 -11l-12 23v23h47l23 -11q0 23 35 23v12q-47 0 -47 23v12q1 16 59 47q58 -17 58 -82q23 11 35 11l-23 36l11 23q-58 0 -58 58h12 l70 24v11h-35v47q35 0 35 35l23 -12q0 35 23 35q0 -11 12 -11q0 23 35 23q23 -12 35 -12v24q-58 0 -58 23v12q11 35 70 35q46 0 46 -35h12q0 46 23 46zM1544 1745h23v-24h-23v24zM249 356q0 -17 35 -35q0 12 11 12q0 -17 35 -35h24q0 26 11 46q-11 0 -11 12l-24 -12 q-23 0 -23 24q-19 -12 -58 -12zM1334 286q22 -12 35 -12v-23h-47q12 23 12 35z" />
<glyph unicode="N" horiz-adv-x="1687" d="M1520 1663q9 -70 35 -70v-47q0 -23 -46 -23l11 -23v-12l-11 -23l35 -24h11l-11 59h11q12 0 12 -12l23 12h24q0 -35 23 -35v-24l-58 12q28 -33 46 -94h12v-46l-23 11h-35q11 -61 11 -70q-11 -22 -11 -35h23v-46l-47 -59q35 0 35 -58q0 -12 -11 -12l11 -23q0 -12 -11 -12 l11 -58v-23q0 -24 -23 -24v70h-23v-58q35 -40 46 -105h12q0 -21 -23 -93l-24 11h-11v-11q35 0 35 -24q-21 0 -94 -58q0 12 -11 12v-24q50 0 70 -46q58 0 58 -24v-35q-12 0 -35 -11q12 -23 12 -35q-12 -39 -12 -82h12q0 -70 -47 -70v-47q47 -49 47 -93q-7 -35 -94 -35v-12h24 q0 -11 -12 -11l12 -24q0 -23 -24 -23q-37 23 -58 23q0 -37 -105 -58q-22 53 -47 58l-11 -58h-35q-24 0 -24 23v12q4 23 24 23q-12 58 -35 82l-24 -12h-11q-24 0 -24 24v23l12 23q-23 0 -23 24l-24 -12h-35v12l12 58q-44 0 -70 58q-28 0 -70 140q-48 0 -70 59q-32 0 -47 81 h-23v47q26 0 47 12l-12 23v12h35v23h-70l12 -23q-12 -23 -12 -35h-23q-50 27 -70 93q-35 0 -35 47l-59 -12h-11l-12 70h35v23h-58v12q0 12 11 12q-32 81 -93 81q-35 97 -35 105q-38 -23 -58 -23l35 -47v-46l-12 -24q17 0 35 -35q0 -23 -23 -23l11 -23q0 -27 -58 -35v-24 q0 -17 47 -35q0 -22 -24 -81l59 -12v-23q-70 -82 -82 -82v-12l23 12h24q43 -58 58 -58l-35 -117l-58 12l11 -24l-11 -23q23 0 23 -12l23 12h12l12 -58v-12q-47 0 -47 -23v-12q38 23 70 23q12 -22 12 -35l-35 -58q23 0 23 -35l-12 -23q12 -23 12 -35q-18 -47 -35 -47 q-47 24 -47 58q12 23 12 35q-58 -15 -58 -35v-23l23 -35q0 -17 -35 -35q-28 82 -47 82q0 -47 -11 -47l-24 12q-22 -12 -35 -12l-11 23v24q0 70 70 70v11q-175 0 -175 70q11 23 11 35h24l11 -46q-11 0 -11 -12h23q0 26 12 47q-47 7 -47 93v23h58q24 0 24 24v11l-117 -35v24 q0 58 35 58v12l-23 35v11h23q0 24 -35 24v11l23 35q-58 0 -58 70h12q58 0 58 -58h23v12l-58 81v35q4 24 23 24h12l23 -12q0 19 -46 47l-47 70v23q0 26 12 47q-12 22 -12 35h23l35 -47v-12h24l-12 24l23 35q-29 93 -93 93q0 13 -12 35q0 22 70 58q-23 75 -23 94q35 11 35 70 v35h-35v-24h-35l23 36q-11 22 -11 35l58 46q38 -23 58 -23v12l24 -12h11v12q-81 27 -81 46q3 24 23 24h58v-47h24q0 35 35 35t35 23q-12 0 -12 12l58 12l82 -59h35l23 12q24 -29 24 -47v-35q105 -14 105 -46l-12 -24q23 -38 23 -58h24v23q20 -12 46 -12v-70l-23 12h-12 l129 -140v-23l-24 11v-11q12 0 12 -12q38 23 58 23l-11 -23q20 -12 46 -12q-23 -28 -23 -46q0 -15 70 -82v-23q35 0 35 35h12q23 -4 23 -24v-11h-35l23 -59l-11 -23q11 -23 11 -35h-11q-21 12 -47 12h-12v-12l24 -35q28 12 116 23q0 -11 -11 -11q0 -59 105 -59q0 -15 58 -58 h23l-11 23l35 59q0 26 -12 46l12 24q-12 20 -12 46l23 12v-12l24 12q22 -12 35 -12v24q-13 0 -35 11q0 -23 -24 -23l-23 35v12l47 11v12h-59v58h24l-35 47v12h23v23l-23 35q0 23 35 23l58 -11v23q-35 0 -35 23v47l58 12v23q-12 0 -35 12q-22 -12 -35 -12q0 23 -23 23l23 47 q-11 0 -11 12q23 0 23 23q-17 0 -35 35q0 32 58 35q-35 60 -35 117l35 23h12q17 0 35 -35q-12 -22 -12 -35q24 -3 24 -23q-12 0 -12 -12h12q0 12 11 12l-11 47q0 73 140 93h11zM1240 1406h24v-23h-24v23zM202 333v-12q47 -6 47 -35q-12 0 -12 -12h47v24q-32 0 -70 35h-12z M155 239q12 -22 12 -35q-18 -46 -35 -46h-12v70q23 11 35 11z" />
<glyph unicode="O" horiz-adv-x="1524" d="M774 1721h23l35 -23l23 12q0 -27 70 -35q0 11 12 11q0 -14 47 -81l23 11q29 -23 47 -23v-58l-24 11v-11q12 0 12 -12l23 12h35q70 -41 70 -59q0 -35 -35 -35v-35q70 8 70 47q29 -23 47 -23v-59h-12q-22 12 -35 12q0 -24 -23 -24l-23 12v-58h23v23h12q25 -21 105 -35 q0 -29 23 -58q-12 -21 -12 -47q89 -44 105 -82q-20 -93 -58 -93v-12q13 0 35 -11q23 11 35 11q12 -22 12 -35q-12 -46 -47 -46v-24q82 0 82 -46v-47q-35 0 -35 -23v-24q23 0 23 -11l-12 -24q12 -20 12 -46q-58 -32 -58 -117q17 0 35 -35v-23q-59 -4 -59 -35h35v-12 q-23 -27 -23 -70l-23 12h-12q12 -16 12 -59q-59 -23 -82 -23q0 12 -12 12q0 -62 -70 -82v-12q12 0 12 -11q-47 0 -47 -24l-23 12q0 -18 -35 -47q12 0 12 -11l23 11h23v-23q-12 0 -35 -12q0 -11 12 -11q-12 -47 -12 -82h-46l-70 -12q-23 12 -35 12v-23l46 -12v-12 q0 -23 -23 -23q-140 6 -140 23q-12 47 -58 47v-12l11 -58h-11q-7 0 -59 47q0 -70 -93 -82v12l-23 -12h-24q-18 0 -46 47q11 22 11 35h24q6 -47 35 -47l11 47q-18 0 -70 46h-11v-11h23q-18 -47 -35 -47h-35l-70 58v-23h-47q0 12 -11 35q5 58 35 58v24h-35q-37 -59 -70 -59v12 q0 12 -12 35q12 20 12 47q-29 23 -47 23v12q0 23 82 23v12q-35 0 -35 23q-29 -12 -129 -12q0 29 -23 59v11q58 56 58 140l-23 12q-20 -12 -47 -12l-11 24v11q16 0 58 47h12v12q0 23 -24 23q0 -47 -93 -47v59q58 0 70 46l-23 -11h-47q-23 0 -23 23q16 0 35 35v12l-59 23v23 l47 59h35v23h-70q0 82 47 82q5 0 46 11q0 17 -58 35l-35 59v23q12 0 35 12l-12 23q4 23 24 23l-12 24q17 46 35 46q23 0 23 -35h12q23 0 23 24q-35 0 -35 58h12l-12 23v24q4 23 24 23h11v-23h35q24 0 24 23v12l-35 46v24l46 11v24l-11 23l70 12v58h35v-35h35q35 53 35 70 q38 24 58 24l-12 23v58l82 -11q0 20 35 70q58 0 58 -35h12q26 0 47 11q22 -11 35 -11q17 46 35 46zM844 1359v-70h-12q-23 24 -198 35q-59 -51 -59 -70h-23l-23 12v-12q11 -22 11 -35q-23 -3 -23 -23h23v-23q-93 -12 -93 -47q23 -4 23 -23q-35 -60 -35 -117l12 -23 q-12 -21 -12 -47q12 -23 12 -35l-35 -23l-58 35q0 -29 -24 -59v-11h35v23h35q16 0 47 -70q0 -12 -12 -12l12 -23v-23h-12l-23 11q-47 -51 -47 -58q50 -70 105 -70l-11 -82h23v24h23l-11 -82q0 -30 105 -58q0 -85 116 -105q24 0 47 -47q19 0 58 58l82 -11q59 140 117 140 l-12 23q36 0 93 93l-11 59q35 0 35 58q-24 0 -24 47q70 0 70 140l-58 -12h-12q-23 0 -23 35q12 23 12 35q-17 0 -35 35q0 29 46 35q0 53 -81 93q-35 59 -59 59v23l12 58q-65 35 -105 35v24l23 35zM1334 788l58 -35q0 46 12 46l-12 24l12 23h-24q-46 -12 -46 -58z" />
<glyph unicode="P" horiz-adv-x="1360" d="M447 1791h47v-46q66 16 105 46h11q0 -35 35 -35q23 12 35 12l12 -23l-12 -59h12q85 0 152 94h11v-24h-23v-11h12q22 11 35 11q11 -22 11 -35q129 0 129 -35v-23h-24v-12q51 0 59 -70q23 0 23 -23h23q0 35 35 35q23 -12 35 -12v-11l-23 -35q12 -21 12 -47q-24 -4 -24 -23 l24 11q11 0 11 -11l24 11q23 -3 23 -23q0 -23 -58 -23v-24q23 0 23 -12q0 -11 -12 -11q12 -117 35 -117v35q30 0 105 -23v-12q0 -23 -23 -23h-70v-24h12q22 12 35 12q23 -38 23 -58h-12l24 -47l-59 -12q0 24 -23 24h-23v-35q58 0 58 -59l12 -23v-23q-17 0 -47 -47l-23 12 v-47h-24v-12l47 -58v-23h-35q-12 0 -12 11q-84 0 -93 -93h-23q-24 0 -24 47h-58q-17 0 -58 -70l23 -12q0 47 70 70h12l11 -70q-70 -47 -128 -47v12h-23l11 -23q0 -24 -23 -24q0 43 -47 59h-11l-47 -35q-23 0 -23 35h-59v-35q47 0 47 -35q-12 -23 -12 -35l-58 11 q-93 0 -93 -58h-24q0 27 -46 58l-35 -23h-12q0 9 -12 70q12 0 12 12h-12q0 -24 -23 -24q-38 24 -70 24v-47l23 12h24q51 -59 70 -59v-35l-24 12l12 -23q-7 -68 -35 -105q35 0 35 -59l-23 -11l23 -94h-47v-23q70 0 70 -35q-43 -93 -128 -93h-23v46h-24q0 -46 -70 -46v-12 l12 -23h-82v46l-23 -11q-20 11 -47 11q28 38 35 105l-11 82q0 12 11 35l-11 58l11 59q-57 30 -58 46v12q31 0 47 70h35q0 -35 23 -35t23 23q-23 0 -23 47l-35 -23q-20 11 -47 11v24q0 23 59 23v12h-59v23q55 35 82 35v35l-47 12v70q-46 0 -46 46h11q28 0 47 82h12v70 q0 17 -35 35q0 -12 -12 -12q0 11 -12 94q27 0 35 58q-23 0 -23 23v12h47l-12 58h-23v-23h-24q0 32 -23 70q0 22 23 94q-17 0 -35 35v23h24l23 -12q12 20 12 59l58 -12q0 23 -58 23l23 47q23 0 82 -23v11q-12 0 -12 12q23 0 23 23h-35v47q0 22 94 70q81 -44 81 -93l24 11 l-12 24v11q7 35 93 35q-23 39 -23 70zM692 1488q0 -47 -70 -47l23 -35h-35v24h-11l-47 -36q-23 0 -23 24l-59 -12h-11l-35 24v-36l23 12v-23q0 -24 -47 -24v-81q35 -31 35 -70h24v-12q0 -8 -59 -58q35 -66 35 -152q-11 0 -11 -12h35v-23h-47q0 -47 93 -82q12 59 24 59 q70 -12 70 -35v-12q0 -12 -12 -12q12 -20 12 -46h11q0 23 59 58q0 70 81 70q0 12 70 23q60 -23 94 -23l11 23q-35 12 -35 70q59 15 59 35v12q0 11 -24 93l24 12q-24 70 -59 70v35h24l23 -12v12q-38 39 -105 58v47h-12l-35 -23h-23q-23 0 -23 23l11 70l-23 12h-35zM412 776 v-23q23 0 23 -35q24 0 24 23v12q-24 28 -24 46q-23 -3 -23 -23zM715 578h24v-24h-24v24z" />
<glyph unicode="Q" horiz-adv-x="1538" d="M870 1359v-70h-12q-23 24 -198 35q-59 -51 -59 -70h-23l-23 12v-12q11 -22 11 -35q-23 -3 -23 -23h23v-23q-93 -12 -93 -47q23 -4 23 -23q-35 -60 -35 -117l12 -23q-12 -21 -12 -47q12 -23 12 -35l-35 -23l-58 35q0 -29 -24 -59v-11h35v23h35q16 0 47 -70q0 -12 -12 -12 l12 -23v-23h-12l-23 11q-47 -51 -47 -58q50 -70 105 -70l-11 -82h23v24h23l-11 -82q0 -30 105 -58q0 -85 116 -105q24 0 47 -47q19 0 58 58l82 -11q59 140 117 140l-12 23q36 0 93 93l-11 59q35 0 35 58q-24 0 -24 47q70 0 70 140l-58 -12h-12q-23 0 -23 35q12 23 12 35 q-17 0 -35 35q0 29 46 35q0 53 -81 93q-35 59 -59 59v23l12 58q-65 35 -105 35v24l23 35zM1360 788l58 -35q0 46 12 46l-12 24l12 23h-24q-46 -12 -46 -58zM1056 51l-37 -6q-23 12 -35 12v-23l46 -12v-12q0 -23 -23 -23q-140 6 -140 23q-12 47 -58 47v-12l11 -58h-11 q-7 0 -59 47q0 -70 -93 -82v12l-23 -12h-24q-18 0 -46 47q11 22 11 35h24q6 -47 35 -47l11 47q-18 0 -70 46h-11v-11h23q-18 -47 -35 -47h-35l-70 58v-23h-47q0 12 -11 35q5 58 35 58v24h-35q-37 -59 -70 -59v12q0 12 -12 35q12 20 12 47q-29 23 -47 23v12q0 23 82 23v12 q-35 0 -35 23q-29 -12 -129 -12q0 29 -23 59v11q58 56 58 140l-23 12q-20 -12 -47 -12l-11 24v11q16 0 58 47h12v12q0 23 -24 23q0 -47 -93 -47v59q58 0 70 46l-23 -11h-47q-23 0 -23 23q16 0 35 35v12l-59 23v23l47 59h35v23h-70q0 82 47 82q5 0 46 11q0 17 -58 35l-35 59 v23q12 0 35 12l-12 23q4 23 24 23l-12 24q17 46 35 46q23 0 23 -35h12q23 0 23 24q-35 0 -35 58h12l-12 23v24q4 23 24 23h11v-23h35q24 0 24 23v12l-35 46v24l46 11v24l-11 23l70 12v58h35v-35h35q35 53 35 70q38 24 58 24l-12 23v58l82 -11q0 20 35 70q58 0 58 -35h12 q26 0 47 11q22 -11 35 -11q17 46 35 46h23l35 -23l23 12q0 -27 70 -35q0 11 12 11q0 -14 47 -81l23 11q29 -23 47 -23v-58l-24 11v-11q12 0 12 -12l23 12h35q70 -41 70 -59q0 -35 -35 -35v-35q70 8 70 47q29 -23 47 -23v-59h-12q-22 12 -35 12q0 -24 -23 -24l-23 12v-58h23 v23h12q25 -21 105 -35q0 -29 23 -58q-12 -21 -12 -47q89 -44 105 -82q-20 -93 -58 -93v-12q13 0 35 -11q23 11 35 11q12 -22 12 -35q-12 -46 -47 -46v-24q82 0 82 -46v-47q-35 0 -35 -23v-24q23 0 23 -11l-12 -24q12 -20 12 -46q-58 -32 -58 -117q17 0 35 -35v-23 q-59 -4 -59 -35h35v-12q-23 -27 -23 -70l-23 12h-12q12 -16 12 -59q-59 -23 -82 -23q0 12 -12 12q0 -7 -1 -13h4v-35l-24 -35q24 0 24 -11q19 11 58 11l-12 24v11h24q0 -26 11 -46l24 11h35q0 -55 46 -81l24 -82q-12 -23 -12 -35q-12 0 -12 12l-23 -12h-23v23q0 12 11 12 q-17 47 -35 47q0 -18 -81 -140h46v-35q-54 0 -81 -35v23l-24 -12h-46q-61 0 -70 35v12h23v35q-23 0 -23 23l-59 -11h-23v6z" />
<glyph unicode="R" horiz-adv-x="1454" d="M610 1500q-22 11 -35 11q-83 -11 -93 -11l12 -24v-23l-47 -35q-35 -27 -35 -35l23 -94h-23q0 -17 23 -105q-23 -3 -23 -23v-58q-35 0 -70 -59h-12v-11q19 0 47 -24h23l-11 24v23h46v-23l24 11q38 -23 70 -23l46 12l-11 23q3 23 23 23h93l12 24l93 -24q0 12 12 12l-12 23 v24q94 17 94 58h35v-23h11q35 52 35 93q24 0 24 35l23 -12v12l-23 12q0 -12 -12 -12v23l23 35q-58 24 -58 47l-23 -12h-47v12l23 35v24q-53 35 -70 35q0 23 -23 23v-23q12 -23 12 -35q-38 -24 -59 -24q-13 38 -116 70v12q-24 -4 -24 -23zM1159 1371v-12q23 -59 23 -93 q89 47 105 47v11q0 17 -35 35h-12q0 -58 -23 -58h-12q0 70 -46 70zM911 697q32 -28 84 -38v-35q39 24 70 24h35v-35h-11l-24 11v-35l47 -11l-12 23h59v-12l-12 -23q21 -12 47 -12v-35l-24 -35q24 0 24 -11q19 11 58 11l-12 24v11h24q0 -26 11 -46l24 11h35q0 -55 46 -81 l24 -82q-12 -23 -12 -35q-12 0 -12 12l-23 -12h-23v23q0 12 11 12q-17 47 -35 47q0 -18 -81 -140h46v-35q-54 0 -81 -35v23l-24 -12h-46q-61 0 -70 35v12h23v35q-23 0 -23 23l-59 -11h-23q0 26 -12 46q-22 -11 -35 -11q-22 11 -35 11v35h12l35 -23v12q-35 0 -35 70h-23v-24 q-23 12 -35 12q-23 -12 -35 -12l-12 24h23v11h-11l-24 -11q-46 0 -58 81q-21 16 -39 29q-57 41 -78 41q0 12 -23 12v23h23q0 24 -23 24h-12v-35h-46q-70 36 -70 58h-24l-35 -23q24 -39 24 -70h-70q11 -35 23 -35h35q12 -21 12 -47h-59v-12q47 0 47 -23l-12 -23h35v-12 q0 -23 -23 -23v11q-25 0 -70 -58h-12v-12q47 0 47 -23q0 -20 47 -82q-30 0 -35 -58q23 -4 23 -23v-70h-58q0 46 -24 46l12 24h-12q-19 0 -35 -82q-24 -12 -128 -23v11l12 24l-94 70q-35 0 -35 70l47 11l-12 82q29 0 59 23q0 -11 11 -11l12 23v23l-70 -11l12 -24v-11 q-24 0 -35 70l11 23l-23 117l12 70q-24 0 -24 23q0 20 24 70q-24 0 -24 23v12q6 0 47 12l-12 23q12 23 12 35q-23 12 -35 12v11q23 30 23 59h12l23 -12l12 23q-58 0 -58 82l11 82l-11 58h35q-24 29 -24 47q0 46 59 46v47l-59 12v23h47v12q-47 0 -47 35v23q0 23 47 23l-12 24 v11q0 24 47 24v12l-58 11h-35l-12 59l82 46h35l-24 82h70q35 0 35 70h47v-12l-23 -35v-35l23 12l23 -12q0 59 35 59l-11 23v35q15 0 70 47h11q12 0 12 -12l23 12h12q12 0 12 -12l23 12h23v-24q54 35 94 35q3 -23 23 -23h12l11 47h35q94 -47 94 -82h35q16 0 35 35 q140 0 140 -117l58 12q7 -47 93 -47q0 17 35 35h12q0 -35 23 -35v-23h-11q-12 0 -12 12l-23 -12l-24 12q0 -15 59 -59v-11h-24v-12q36 0 82 -12v-23l-58 -23v-24q3 -23 23 -23l23 35q-11 0 -11 12h35v-47q0 -24 -35 -24v-11q35 0 35 -24l23 12h12v-70h-47v-58 q-7 -35 -82 -35v-12l12 -23q-47 -6 -47 -35v-12l24 12h11l12 -47l-12 -23q12 -23 12 -35h-58l11 -59h-35l-35 59h-23q0 -35 -35 -35v-12l35 -47v-23q-70 0 -70 -23q12 -23 12 -35q-24 -4 -24 -24l-23 12l-58 -47h-35v24h-24v-35q0 -24 59 -24l-12 -58zM820 1803l59 -12v-23 h-12l-23 12v-24h-24v47z" />
<glyph unicode="S" horiz-adv-x="1430" d="M692 1780h23q0 -30 47 -47q0 -35 23 -35q8 70 35 70h12v-23h12q11 0 11 11q129 -41 129 -70l-24 -35h12l58 35q24 -3 24 -23v-58l35 -24q0 35 81 59v-24h12q0 35 23 35h12l12 -116l23 11h23l24 -11v23h23q19 0 47 -82q-27 0 -47 -46q47 0 58 -59l-70 -12v35h-23 q0 -17 -35 -46q82 -16 82 -35v-47l-47 12q-47 0 -47 -70h-58q-23 0 -23 23l46 70v23h-11q-59 -81 -94 -81v11q0 12 -35 12v12l12 23q-31 35 -70 35q0 23 -23 23h-24v-23q-18 0 -46 47l-24 -12h-11l-59 47h-11q0 -35 -24 -35q0 36 -70 82h-23q0 -51 -140 -94q-35 -67 -35 -93 l-58 11h-24l-11 -58q23 -4 23 -23v-35q-28 0 -70 -59v-23q47 0 47 -58l23 11h12q29 -23 58 -23v-12l-23 -35l23 -11h12l35 23h11q12 0 12 -12l23 12h24v-35h11q0 35 24 35h11v-35l-23 -35v-23q58 0 58 58h70q0 -23 59 -47q0 35 23 35h47q0 -70 46 -70q38 24 59 24 q0 -24 35 -24l-12 -23q23 -4 23 -23l-11 -59l23 -11h12v46q20 12 46 12l12 -58q0 -35 -47 -35v-12h24q0 12 11 12l12 -47q29 23 47 23l-12 24h23q24 -4 24 -24v-23h-12l-23 12v-12q15 -58 35 -58v23h46q24 -4 24 -23l-35 -82l11 -23q0 -24 -23 -24h-12v35h-35l-11 -58 q11 0 11 -12l24 12h23q17 0 35 -35q0 -20 -58 -35l11 -23v-24h-46v-11h35v-24q-24 0 -24 -11l12 -59q-23 -23 -70 -23v47h-12q-23 -117 -116 -117q0 -35 -59 -35h-11l-35 23h-12l-35 -46q0 -59 -35 -59q-47 9 -47 24v35q-46 0 -46 23v12h23v23q-82 -16 -82 -47v-11 q35 0 35 -24v-11q-93 -24 -116 -24l-35 24v-24h-24l12 24l-105 81v-35h-35l-23 12l11 58v24q-46 0 -46 35l-24 -12h-23q-17 0 -35 35l47 93q0 11 -47 70q12 140 47 140h23v-58l-12 -23l24 -12h11l-11 23q17 101 46 117q23 -12 35 -12v-11l-11 -24q23 0 23 -23q35 0 35 47 q58 0 70 -47l-23 -47q46 0 46 -35v-35q82 -9 82 -58h58l82 12q0 -12 12 -12q12 36 105 82q0 26 11 46q-11 21 -11 47l-24 -12h-23q0 13 -12 35l24 70q-19 0 -94 24v-12l35 -47q-18 0 -46 -23q-35 23 -117 58l-58 -23q-140 60 -140 128q-47 -81 -105 -81h-12v58l12 23l-24 12 q0 -23 -23 -23q-58 24 -58 128h-24q-42 -35 -81 -35h-12v12q0 8 12 70q0 21 -82 81l93 35v12q0 28 -81 58q0 24 -24 24q0 93 70 93v23q-21 26 -35 105q7 43 94 94v58q46 0 46 70l59 -11q0 27 58 70v46h12l35 -23h35q3 58 35 58l23 -11q4 23 23 23l-11 23q3 24 23 24 q29 0 58 -117v-35l24 -12v12q-12 22 -12 35q35 8 47 47l-24 -12h-11q-24 0 -24 23v12q47 0 47 23q0 27 70 35v24zM1065 1558q0 -35 -35 -35v-23q4 -24 24 -24h46v24q-35 0 -35 23l12 23v12h-12zM190 496h47q23 -4 23 -23l-23 -35v-59h-35l-12 59q12 20 12 46q-12 0 -12 12z " />
<glyph unicode="T" horiz-adv-x="1348" d="M762 1710h12l11 -47q-23 -4 -23 -23v-24h23q4 59 35 59q23 -12 35 -12q0 17 35 35h12q35 0 35 -47h23v35h24q0 -35 23 -35h47q0 35 23 35h12v-11q0 -59 -47 -59v-46l47 35h23v-35q23 11 35 11l-12 24v23q0 8 35 35q47 -12 82 -12v-11h-47q4 -24 24 -24h23v24h47v-59h-24 l-23 12q-35 -76 -35 -140q-12 0 -12 -12l24 -11q0 46 70 46v-23q0 -79 -105 -117l-47 23v-35h-58v59q-129 -50 -129 -70h-46q0 12 -12 35l-23 -12q-70 12 -70 35v12l11 23h-11q-23 -12 -35 -12q0 12 -12 12v-35h23v-23l-46 -47q22 0 58 -70l-23 -47l23 -46h-23l-47 35h-58 v-12q3 -23 23 -23l23 11q12 -61 12 -70q-12 0 -12 -11h35v-24q-128 -17 -128 -46q12 0 35 -12v23h35v-46h12q46 31 46 58h24q0 -26 -12 -47q12 -22 12 -35l-24 -11v23h-11q-24 -4 -24 -23q27 0 47 -12q0 12 12 12q0 -12 11 -12l-11 -58q0 -13 11 -35q-17 -47 -35 -47l12 -23 v-12q-18 -117 -47 -117v-23q47 0 47 -12l23 12h12v-23h-23v-12l11 -58q-23 0 -23 -59h23v-58q-46 -6 -46 -35v-35q35 0 35 -35l-12 -82q12 -22 12 -35l-82 -70v-11h-23q-24 0 -24 23l-23 -12l-58 12q0 -12 -12 -35q12 0 12 -12q-12 0 -12 -11q-25 0 -70 81q0 19 47 47 q32 -23 81 -23q-46 54 -46 70h-12v-24h-70q-23 0 -35 94q-35 0 -35 58v12q58 58 82 58q0 17 -35 35q-23 -12 -35 -12q-12 23 -12 35l12 24q-12 20 -12 46q0 24 35 24v11q-47 0 -47 70q38 24 59 24q22 -12 35 -12v23l-47 47v35q35 0 35 23v12q-58 0 -58 23q-12 23 -12 35 q12 23 12 35q-12 0 -12 12h35l-12 23l12 24v58q23 -12 35 -12l12 24h-12q0 -12 -12 -12l-11 23v47l11 23h-23l-23 -11q0 35 -12 81h35l35 -23h12v12q0 17 -59 70h35l35 -24v35q-45 0 -93 35q0 12 12 12q-24 59 -24 82q-17 0 -58 -70h-35l-12 46q12 23 12 35l-35 -23h-12 l-58 12q0 -24 35 -24v-23l-82 -58h-58v35l23 35v70h35v23q-38 0 -105 70v47q0 23 35 23v12h-23v12q23 28 23 46h12l23 -11v23h35v-70q4 -23 24 -23q28 69 81 81l12 -58h12v23l-24 47q59 23 82 23q0 -58 23 -58q21 12 47 12l-23 35v11q116 0 116 -46l35 23l24 -12q0 12 11 12 v-70h-23v-12h35v24l23 -12v23h35v-23h12v12q-12 20 -12 46v12q50 0 117 47z" />
<glyph unicode="U" horiz-adv-x="1477" d="M1112 1651h23q24 -63 24 -70h-12q12 -22 12 -35l23 12l35 -35l-12 -23v-12h12q0 35 58 35q24 -38 24 -58l23 11q-14 56 -47 94v23h12q70 -23 70 -47q0 -58 58 -58v-23q-26 0 -35 -59l-58 12q0 -19 47 -47q0 -23 23 -23v-140q-47 0 -47 -47q16 0 59 -58l-47 -82 q0 -35 47 -35v-23q-43 0 -59 -47q20 0 35 -82q0 -11 -46 -70v-35q70 -11 70 -35v-23q0 -12 -12 -12l12 -23v-35l-35 23h-12l23 -140h-11l11 -23q-11 -23 -11 -35h-35l-24 12v-12q39 -35 59 -35v-23h-47v-24l23 12q35 -12 35 -23l-11 -59q39 -58 58 -58v-23q-23 0 -23 -47 h-24l-23 12q-12 -21 -12 -47h-23q-23 0 -23 23l11 24q-11 0 -11 11q-45 -11 -94 -11v-12q27 0 35 -47h12v-23h-47l-58 12v23l12 23l-35 24h-35q0 -24 35 -24v-11q-5 -24 -59 -47v23q0 12 12 12q-12 20 -12 47l-58 -47q-70 0 -70 58h12q20 12 46 12v12q-70 9 -70 70h-11v-59 h23v-23h-23v-70h-24l12 -23v-12h-58l-35 23h-12q0 -80 -93 -116v-12h-12q-12 0 -12 12l-23 -12q-23 0 -23 23v12h46l-11 23l11 24q-29 0 -58 23h-12l24 -35q-21 -58 -105 -58q-24 29 -24 58h-81v35h-12q-49 -35 -117 -35v47q35 0 35 23h-70q0 35 -23 35l12 82v11 q-27 0 -47 12q0 -23 -23 -23q-23 11 -35 11l23 82q-23 0 -23 23l11 24q0 16 -46 81q0 105 105 105q46 0 46 24v11q-12 0 -35 -11q-151 11 -151 46l11 70q-17 0 -35 35v12q53 0 82 47v23l-12 23l-23 -11h-12q-23 0 -23 58h58l12 23q-33 0 -58 82q48 0 93 12v11h-105l-12 47 q29 23 47 23v35l-23 -11h-12v23q11 0 93 23q-35 95 -35 105q12 23 12 35q-27 0 -35 59q27 0 47 70l23 12q0 -13 12 -36q19 12 58 12v35h-12l-35 -23h-11q0 18 -24 47v11h24l-24 35v12q21 0 59 23q46 -11 81 -11v-24h-46v-11h23l-12 -24l24 12q23 -4 23 -23l23 11 q17 -1 59 -46h35q0 -12 35 -12v-24q-82 0 -82 -81l93 -59v-46h-35q12 -23 12 -35q-19 -70 -70 -70v-24l23 12q35 0 35 -70q-17 0 -46 -35q23 -59 23 -82q-12 -46 -12 -81l12 -24q-9 -81 -105 -81v-12q58 0 58 -47h82v-35q-23 0 -23 -11q0 -82 46 -82q0 -31 -81 -47v-11 l81 -105q4 23 24 23h35q0 -58 11 -58l59 11q23 -38 23 -58h23v70q27 0 47 12v-12l-12 -23q24 0 24 -35h11q0 58 117 81l12 24q-35 0 -35 23q0 31 81 47q16 70 35 70q21 -12 47 -12q0 35 35 35q-12 23 -12 35h-11l-47 -35h-47v35q27 0 35 47l-11 23v35l58 35l-12 58l47 47 q23 -12 35 -12q-23 29 -23 47l-24 -12h-11v24l81 11q-46 50 -46 94q11 22 11 35q-35 0 -35 23q32 38 59 128q-24 43 -24 94q17 0 35 35q-23 0 -23 58q23 0 23 23q-46 18 -46 36q0 16 35 35q46 -6 46 -35q20 11 59 11v12q-47 0 -47 23l-23 -11q-24 0 -24 23v93h47v70z M435 1500l12 -24v-11q-61 -12 -70 -12l-12 23v12q9 0 70 12zM354 589l11 -23v-12l-35 24h-11v-35h11l59 11q0 -11 11 -11l12 23v23h-12q-22 -11 -35 -11q0 11 -11 11zM1124 298q0 -66 -117 -94l12 -23q116 35 116 58l12 59h-23z" />
<glyph unicode="V" horiz-adv-x="1442" d="M225 1523h12v-23l-12 -24h59l58 47q38 0 47 -129q-24 -3 -24 -23v-35l24 12q24 0 58 -94q17 0 35 -35q-47 -70 -93 -70l11 -23v-12h-23v-81h23q0 46 24 46q0 -11 11 -11q0 35 24 35h11q0 -24 24 -24v-11l-59 -70l24 11h58q0 -16 47 -58v-12q-82 0 -82 -58q12 -23 12 -35 q-21 -12 -47 -12v-11q35 0 82 -35q19 -12 58 -12v-35l-23 -35q58 0 58 -23v-12q-35 0 -35 -23l23 -35v-12q0 -23 -23 -23q12 -23 12 -35h23q0 58 58 58q0 93 59 93l11 24v23l-35 47v11h12l23 -11q0 39 59 58q20 -12 46 -12v35q-46 0 -46 70q65 42 81 117h24v12h-24v11 q59 52 70 140q27 0 82 35h23v24q-16 46 -58 46q0 82 70 82h12v-23h35q29 35 46 35v12q-128 11 -128 46v12h12l23 -12q12 23 12 35h58l23 12q0 -66 140 -105q0 -12 12 -12q4 24 23 24t47 -47v-70h-23q-7 0 -70 70q11 0 11 11l-23 -11h-23v35h-24v-12l12 -23q-12 -23 -12 -35 q59 -27 59 -35v-59q22 -11 35 -11v-59q-35 0 -35 -23l-59 12q47 -96 47 -140h-12q-70 58 -81 58q0 -12 -12 -35l58 -70q0 -17 -35 -35l-23 12v-24h23v-58q0 -17 -35 -35v35h-58l12 -82q-12 0 -12 -11q23 0 23 -12q-40 -175 -116 -175h-12l-23 12v-12l11 -23l24 11 q23 -3 23 -23v-35h-12l-58 12q0 -64 -82 -94h-11l11 -23l-11 -23q81 -28 81 -47v-12q-43 0 -70 -58l12 -23q-23 -83 -23 -94h-24v12q12 23 12 35q-32 0 -35 58h-12q-23 0 -23 -35q58 -102 58 -128h-11q-21 12 -47 12q0 -35 -47 -70v-12h-46l-24 12q0 -47 -140 -47l12 23v12 h-23v-58h-59q0 31 -70 93v23q0 24 35 24v23q-27 70 -58 70v23l23 35v12q-35 0 -35 12q0 140 -46 140l11 46q-23 38 -23 59q12 0 12 11q-24 0 -24 12l12 58q-23 0 -23 24l-24 -12q-23 0 -23 23v12h23q-46 121 -46 152v35l11 23q-16 0 -35 70q-11 0 -11 12l11 23v12h-11v-24 q-19 0 -47 82q-12 0 -12 23l24 12q20 -12 46 -12v-23h-23v-23l47 23l-12 23v12q0 26 12 47q-9 35 -47 46v-11l12 -24l-24 -11h-70q6 75 59 128q0 93 -70 93q0 30 -12 94h12q11 0 11 -12q47 12 82 12q0 23 -35 23v35h47l23 -11q4 23 23 23zM74 1336h35q0 -26 11 -47 q-11 -22 -11 -35h-24q-17 0 -35 35v24q4 23 24 23zM1334 1278h35q0 -17 -35 -35v35zM1077 1231v-23l-23 11h-35v-23l46 -12q0 24 47 24q0 23 -23 23h-12zM1194 1231v-23q74 -24 81 -24h12v12q-79 35 -93 35z" />
<glyph unicode="W" horiz-adv-x="1920" d="M1684 1570h23q16 0 35 -70q47 0 47 -35q-9 -71 -23 -71l11 -23v-12q0 -23 -46 -23v-23q12 0 35 -12q0 47 35 47l-12 23q0 15 70 47h12v-35q0 -24 -35 -24v-70q-50 -14 -59 -116l-35 -47q18 0 35 -47q-23 0 -23 -23h-12l-46 35h-12l12 -23l-24 -35v-12l24 12h35v-47 q0 -29 -59 -117l-23 12l-59 -12v-11h12q21 11 47 11h12l11 -46l-23 -12l12 -23q-71 -88 -71 -105l12 -59q-17 0 -35 -35v-11h23v-35q-38 0 -46 -47l11 -23v-12h-23q12 -23 12 -35l-12 -58h23v-12q0 -23 -23 -23h-35v46h-23q-17 0 -35 -35q58 0 81 -70h12v-35l-58 -11 q0 11 -12 11l-93 -140q23 0 23 -11l23 11h24q0 -23 23 -23v-23h-47l-23 11v-11l23 -35q0 -24 -23 -24h-12q0 27 -11 47l-24 -12q-116 13 -116 47h-12q0 -47 -58 -47l-12 24l12 23q-82 8 -82 23l12 47q0 15 -59 58v47h12l35 -23v11q-12 0 -12 12q21 12 47 12q0 23 -35 23 l-23 -12h-35v-11h-24v46q47 0 47 35v12l-35 -23h-58q0 70 -47 70v70h-23q0 -35 -47 -35l-23 11q-21 -11 -47 -11v-12q12 0 35 -12l-35 -70q12 -20 12 -46v-12q-20 12 -59 12v81q0 24 -23 24h-12v-47h-23v-12q35 0 35 -58v-12h-23v-11l35 -47v-58q-35 -50 -35 -94 q23 -3 23 -23h-23q-12 0 -12 12l-23 -12h-59l-35 23h-11q-44 -43 -105 -70q0 -11 -12 -11q-23 11 -35 11q0 17 35 35l-12 24l12 23l-23 12h-59v70q47 0 47 23q-58 0 -58 23l-12 70q12 0 12 12q-35 0 -47 105q23 12 35 12v35q0 23 -23 23h-12l12 -23q0 -24 -24 -24h-23 q0 20 -35 59q0 23 35 23q23 -12 35 -12v24l-23 -12q-47 49 -47 93v12l58 93q21 0 35 35l-11 24v11l23 -11l35 46q-35 67 -35 94h-12q-23 -4 -23 -24q23 -11 35 -11v-47q-40 0 -58 -82h-47v47q-16 1 -47 58v12h24q0 23 -35 23v24q0 11 11 11q0 12 -11 12q0 70 35 70v12 q-27 0 -35 46h-12v24l12 23l-24 12q-22 -12 -35 -12v47l24 -12q0 26 11 47q-23 60 -23 93q12 15 12 58q-30 24 -59 24v23q35 0 35 23l-11 71l23 11q23 0 23 -35q38 24 59 24v11h-12q-23 -11 -35 -11v35h47q35 -15 35 -35h11l24 11l-12 24v23q26 0 47 -12q35 0 35 47 q22 -12 35 -12v-35h-24v-11q4 -24 24 -24h58q0 -18 23 -46q-46 -68 -46 -106q37 0 46 -116q-22 -12 -35 -12v-12h47v-46l12 -59l-24 12h-11v-12h23l-12 -23q0 -23 35 -23v-70h-23v-24q31 0 70 -81q-58 -115 -58 -152q58 0 58 -47q39 59 70 59q47 70 93 70v23q-46 0 -46 58 h35q23 0 23 -35h23v12l-46 47v35q23 0 58 46h23q70 -23 70 -46q4 -24 24 -24q0 35 11 35q54 0 105 -35q12 21 12 47q20 -12 47 -12v-23q-24 -28 -24 -47l-23 12v-12l58 -23q0 35 24 35l46 -23l-11 -59q0 -11 46 -46l-11 -24q0 -26 81 -93h24q0 35 11 35h35q4 23 24 23 q0 12 -12 12l12 58v35q70 24 70 59l-24 11h-11q0 -46 -24 -46h-23v46q30 0 47 105h35q6 -46 35 -46q0 11 11 11l-58 70v24q24 5 47 58l-12 23l35 59q-12 0 -12 11q12 12 94 12q-47 41 -47 82l23 11h24v-35h23q-58 119 -58 140l11 59h47v-23l35 23l47 -23v58l82 35l-12 23v24 zM155 729h35v-35h-35v35zM190 694h24v-23h-24v23zM1205 566v-12l35 24l35 -24h24q-12 35 -70 35q-24 -3 -24 -23zM680 496l12 -23v-24h-23v-23h11l35 23q24 -29 24 -58h11v47q-23 0 -58 58h-12z" />
<glyph unicode="X" horiz-adv-x="1570" d="M1404 1686q23 -38 23 -70v-23l-23 12q-24 -4 -24 -24v-11l59 -12h46q12 -23 12 -35q-23 -4 -23 -23v-12q46 -3 46 -47q0 -58 -23 -58h-35q-19 -70 -82 -70v11q-20 -11 -46 -11v-24q81 0 81 -46q-116 -15 -116 -94q-24 0 -24 -23h-35v23h-35q0 -27 -46 -70v-11l23 11 q23 -3 23 -23l-23 -35h12q-24 -38 -24 -70h-46v23h-12q0 -105 -70 -105q0 -29 -47 -46q0 -35 -58 -35v-24l23 -35v-11q-35 0 -35 -24q65 0 70 -116q70 -16 70 -35q0 -12 -11 -12l11 -23v-24q-46 0 -46 -23q0 -35 46 -35l82 12v-47q-35 0 -35 -23v-24q4 -23 23 -23v35h35v-23 h-23q0 -35 70 -35v-70h35v-82h-35l12 -23v-24h-82v-11l12 -24l-35 -58v-35l-24 -12q0 35 -35 35l12 24q-26 0 -47 11q-38 -23 -70 -23h-23q5 58 35 58l-23 35v35h23v24l-23 -12h-24q0 19 -23 35l-23 -12l-47 35q0 22 23 94h-11q0 -12 -12 -12q0 19 -82 35l-11 58v35h-12 q-50 0 -70 -116h-35l-23 11q-24 -28 -24 -46v-35l-128 -117v-12q35 0 35 -35t-82 -46l-23 11l-58 -46h-24v58h24v12h-82q0 16 -47 46q24 0 47 59v11q-50 -35 -93 -35l-24 35v12q47 0 47 23l-12 24h24q11 0 70 -47l11 23q-53 23 -58 47v23h23v24l-23 -12h-12q59 78 59 128h11 l35 -23q21 93 70 93v12h-35v23h59v-46h23l-12 23l35 58h-35v47q0 23 94 35q0 10 46 117v11l-58 -11q-23 59 -23 81v35q-21 12 -47 12v23q0 12 12 12q-12 93 -35 93q-12 -20 -12 -46h-58q0 57 -70 151q-33 50 -82 105l12 24q-12 20 -12 46q12 23 12 35l-47 -46h-35 q-47 71 -47 105h12q12 0 12 23h11l59 -47q23 60 23 94l-23 -12h-47v24q0 23 35 23l23 -12q47 0 47 70h23q0 -18 24 -46l23 11h12v-46h11q47 20 47 46h23q44 -50 94 -70q46 -29 70 -105q14 0 70 -70h11v-70q47 -52 47 -58v-24l-12 -23q12 0 12 -12h-12q0 -10 47 -70l-12 -23 l24 -12l23 47h-23v12q3 23 23 23h23v-47h12v24h12l23 -12v12q-12 0 -12 11l82 47h12l23 -12v35l-12 82q65 93 82 93h12l35 -23q0 23 35 23v35l-59 -11v35q4 23 24 23l23 -12v12l-12 23q12 23 12 36q12 0 12 -12l58 23l-12 24v11q4 24 24 24h11q0 -40 70 -47v-23h12v35h-23 l23 35l-47 35q0 70 94 70v-12q23 -29 23 -47l23 12q0 -13 12 -35q21 12 47 12v11l-59 24l12 23v12h-23v58q12 0 35 12q0 -47 23 -47h23q0 58 24 58zM459 1336v-58q15 0 70 -47l11 23q-23 0 -23 12v35q-23 0 -23 35h-35z" />
<glyph unicode="Y" horiz-adv-x="1477" d="M260 1698v-58h-23v-12q0 -17 35 -35q0 12 12 12v-47q18 0 46 105q23 -12 35 -12v-23l-11 -23q7 0 81 -47v-35l-23 -35q94 -117 140 -117v-12l-23 -35q0 -23 81 -70l12 -46h-12l-23 11v-23q58 0 58 -93q-11 -23 -11 -35h11q31 46 59 46q11 0 11 24h59l23 -12v23h-23v47 q0 18 46 47l24 -12l11 23q-11 21 -11 47l35 -23h23l-12 23v47h24v58q3 24 23 24h12v-36h23q0 36 117 71l11 58v35l-23 35q35 0 35 47h12v-24h23q0 35 23 35q0 -46 94 -46q0 11 11 11l-11 24q0 46 105 46q23 -38 23 -70h-12l12 -23l-12 -23q12 -23 12 -35q-22 -12 -35 -12 l12 -23v-12l-12 -23h12q20 11 46 11q0 -26 12 -46q-35 0 -70 -47h-12q-31 0 -70 23v-23q47 0 47 -47q0 -18 -93 -70q0 12 -12 12v-12h12q-12 -140 -70 -140v-12q-26 0 -47 12q-23 -12 -35 -12l23 -35q0 -46 -58 -46v-24h23v-58q-55 0 -70 -58q-27 0 -35 -70q-31 0 -46 -70 h-12v23h-23v-12l11 -58q-70 -34 -70 -117q47 0 47 -46l-12 -24q12 -22 12 -35h-12q-28 24 -46 24q-23 -12 -35 -12v-12q35 0 35 -58l23 12h23q24 -4 24 -24v-11l-24 -82q0 -35 35 -35q0 -42 -46 -93q11 -63 11 -105q-11 0 -11 -12q23 -4 23 -23l-82 -70h-11q-12 0 -12 11 l-23 -11q-12 0 -12 11l-23 -11h-47q-31 35 -93 35v35l23 35q-47 0 -47 70v11q12 0 12 -11q23 11 35 11v24h-23l-59 -12l-11 23v24q0 26 58 35q-20 46 -47 46v70q0 12 12 12q-23 48 -23 70l35 23h11q24 0 24 -58h58v12q-47 0 -58 70q11 0 11 11q-18 0 -70 47v-23h-23v23 q0 47 58 82q-46 0 -46 23v12h46v35q-58 0 -58 58h-35v35q19 0 35 23q-12 23 -12 35h-58q-23 0 -23 24l11 23q-70 0 -70 23v12h35l-11 23v47h23v23h-82q-35 59 -58 59v23q39 0 58 58q-35 0 -35 70q-26 0 -46 -11q-23 11 -35 11l11 59h-11q-21 -12 -47 -12h-12q0 56 -58 140 h-12v12q0 17 35 35h35q24 -4 24 -23l-12 -59q70 28 70 47v35q-70 0 -70 23q0 24 35 24v11l-23 35q45 15 70 82h35l-12 23zM120 1605q24 -4 24 -24h-47q4 24 23 24zM774 134q0 -46 -47 -46q12 -35 70 -35l12 23v12h-24v11l12 24z" />
<glyph unicode="Z" horiz-adv-x="1395" d="M389 1675h11q49 -47 117 -47l47 23l46 -11q23 11 35 11v-11l47 23l47 -23q3 23 23 23h82q0 -35 -24 -93h47q0 11 12 11h35q0 82 116 82q0 -26 82 -47l70 -93q0 -47 58 -47v12q-11 0 -11 12h11q23 -12 35 -12v-35q-23 0 -23 -35h-70q12 -20 23 -140l-46 -35l-35 23v-12 l11 -70l-46 -11q-24 38 -24 58q12 0 12 12h-12q-23 0 -23 -35l-23 11q0 -46 -24 -81h47v-12q0 -54 -117 -140v-12h47q-23 -29 -23 -58h-12l-35 23q0 -23 -23 -23l11 -58q0 -24 -23 -24h-23l-24 12q0 -59 -58 -93q0 -19 -128 -152q-82 23 -82 58h-47l12 -46v-35q34 0 93 -35 h35v-35q-14 0 -70 -59h-23l-23 12v-35q0 -27 175 -70v-23h35l-24 35q4 23 24 23h105l11 -47h24q11 70 35 70h11l35 -23q4 23 24 23q35 0 35 -35l35 24h23l12 -47q-12 0 -12 -12h35l-12 24v23l129 35h46q0 -53 35 -105v-12l-23 -35q0 -81 58 -81v-35l-58 11l-12 -23 q24 -4 24 -23l-12 -59l-82 12q-11 -23 -11 -35h-24v12l12 23h-12l-46 -12q-23 12 -35 12q-18 -47 -35 -47q-31 0 -47 94q35 0 35 93l-23 -12h-35q0 -23 -35 -23v-23h35l-12 -24l23 -35q-11 -35 -23 -35l-23 12q-57 -35 -152 -35q-12 0 -12 12l-23 -12l-58 12v-24 q-27 0 -47 12l-23 -12q-138 47 -152 47q0 -47 -58 -47l-12 24l-23 -12q-29 23 -47 23v24l12 23h-35q-24 0 -24 -35l-23 12h-23l-24 -12l12 -23v-12h-35l-23 12q0 -24 -24 -24h-35v47h47v35h-47v12q4 23 24 23l23 -12l23 35q-58 0 -58 35q12 16 12 59q-12 0 -12 -12 q-46 12 -82 12v23q6 0 47 12l-12 58v12q4 23 24 23h11v-23h24q0 46 35 46q-24 88 -24 94l24 11h11q24 0 24 -35h11l12 47l-12 23l12 24q-12 22 -12 35h24v-24h23q0 64 93 117h12l23 -12l24 35l-47 12v23q35 37 47 82q35 0 35 12l-12 23q12 23 12 35h23l35 -23v11 q-12 21 -12 47q27 23 70 23q0 9 -11 70q64 117 93 117h12q0 -35 23 -35h12v23q0 24 -35 24v46q6 0 46 12q4 -23 24 -23h11q0 35 59 35v58h-59l-11 47h-12q0 -35 -58 -35v11l-59 -46h-11q-47 20 -47 46h-70l-23 12q0 -40 -129 -58v11q4 24 24 24q0 -12 11 -12v12 q-15 0 -58 58v12l12 23l-24 12q-22 -12 -35 -12q-15 47 -70 47v23h24v35h-24v35l70 -35q12 0 35 47q-17 47 -35 47h-11v-12h23v-23h-12q-70 24 -70 93h35q24 -39 24 -47l35 24h81q0 35 24 35zM260 1371h12q23 -3 23 -23v-59h-23q0 47 -70 47v23h35l23 -11v23zM1065 1184 l24 -11q-12 -23 -12 -35h-35v23q4 23 23 23zM599 309l-12 -23h12l35 23l35 -23h23v23h-93z" />
<glyph unicode="[" horiz-adv-x="1010" d="M739 1885h23q38 -70 105 -70q38 23 70 23h23v-58q-8 0 -46 -24q23 -41 46 -140l-58 -93l-12 -58h-23q0 35 -58 46q0 24 -24 24h-46l-70 -59h-24q0 59 -58 59q-35 -39 -70 -164q-26 0 -35 -47q14 -55 47 -93v-12q-18 0 -47 -35l12 -23q0 -17 -35 -35l-24 12v-12 q28 0 35 -82q-11 0 -11 -11q11 0 11 -12l24 12h11l-11 -59l-24 12q0 -23 -23 -23l12 -24v-11q0 -24 -24 -24h-58l-23 12v-23q81 0 81 -47l12 -58q0 -6 -58 -117h46v-47q-35 0 -46 -58h-12q0 -18 47 -47l-12 -23v-12h12q0 35 23 35v-23q0 -22 -47 -105q24 0 24 -47 q11 0 11 12l94 -23q0 58 23 58l47 -23l58 11q23 -28 23 -46h24q23 0 116 23q12 -20 12 -47q35 0 35 59h35v-35h-23v-24h35v-23q-35 0 -35 -23l35 -47q0 -47 -70 -58q-23 11 -35 11v-11q6 -47 35 -47v-35q0 -23 -35 -23q-15 0 -59 58v-12l12 -23q-15 -58 -35 -58h-35l-23 70 h-47v-12l23 -35v-12q-23 0 -23 -23h-35q-32 0 -35 58l-35 -23h-23q-27 0 -47 12l-23 -12q-82 15 -82 47h-70q0 -70 -82 -70q0 26 -11 46q23 0 46 82q-70 0 -70 93q-38 -23 -58 -23q-23 12 -35 12q12 35 23 35l-11 23l58 93h-23v24l11 23q-61 12 -70 12v23h12l23 -12 q0 12 12 12q-12 23 -12 35q0 9 12 70q-12 23 -12 35q24 0 24 23v12h-24q35 117 94 117v23h-47q0 23 -47 58v12q4 23 24 23h11l24 -11q46 58 105 58q0 23 -24 23q0 -23 -23 -23q-93 0 -93 105h35v12l-12 23l23 12h12l35 -24h12v35q-70 12 -70 35q3 24 23 24q38 -24 58 -24 q-19 59 -70 59q-22 -12 -35 -12v23q19 0 35 24l-11 23v12q35 0 35 23q-17 0 -35 35q0 17 35 35h11v-23h24q2 46 23 46l-12 24v23q0 12 12 12q0 12 -12 12l12 58v23q-47 0 -47 24v11q63 35 94 35l58 -11q0 10 -23 93l23 12h12v-35h23v11q0 35 -70 35v24q17 0 47 35h11l24 -12 q0 23 11 23l-11 24v11h35v12l-12 23h12l35 -23h23q0 47 23 47h35q70 -24 70 -105l24 -12q0 12 11 12q-23 59 -23 81h12q10 0 116 -23zM62 636h23q0 -23 -23 -23v23z" />
<glyph unicode="\" horiz-adv-x="1080" d="M202 1721l58 -11l-23 -35q12 -21 12 -47h-24v-12h94v12h-35v35q0 23 35 23q22 -11 35 -11l-12 -24q58 -3 58 -35h-23v-46q82 -50 82 -59q16 -81 58 -81q0 -27 -58 -36q0 12 -12 12v-12q12 -22 12 -35h35l-12 24h23q24 -4 24 -24v-11q0 -24 -35 -24v-46q23 0 23 -12l23 12 h12l-12 -59v-23q16 12 59 12v-35h11v-47q0 -23 -35 -23v-24l24 12h11q27 -23 70 -23v-12l-11 -58q51 0 70 -59q46 0 46 -81q-18 0 -46 -47v-12h35v-46l-12 -24h58v-23q-46 0 -46 -23l23 -12h35q58 -34 58 -47v-11l-11 -24q23 -3 23 -23q-12 -23 -12 -35q17 0 35 -35v-35 l-11 -23q46 0 70 -82q46 -3 46 -23q0 -82 -46 -82q-21 -12 -47 -12v-11h35l-12 -59h-23l-23 12q-47 -31 -47 -58v-12h-58v23l-24 -11h-46v46h-12v-23h-12q-23 0 -23 23v24l12 23q-70 0 -70 35v12h11l47 -24l12 47q-82 89 -82 105q0 70 -35 70v-23h-12q-18 0 -46 46 q11 47 46 47v23q-28 0 -93 117q0 22 -47 82v11q0 11 47 70h-12l-81 -46h-12q0 52 -12 70h24q0 7 -59 58v23l47 59h12v23q-59 0 -140 82l11 58q-91 75 -93 105q12 47 47 47l-12 23l-23 -12h-24q-17 0 -35 59q-42 82 -58 82h-12v35q27 0 47 46h-23v35h11q27 0 35 -58h59 q23 0 23 23q-93 14 -93 47v12q105 0 105 70l-12 23v23zM715 636q0 -23 -46 -58q11 0 11 -12l59 47h11l24 -12v35h-59z" />
<glyph unicode="]" horiz-adv-x="1010" d="M272 1861h35q17 0 35 -35l23 12h12q0 -35 23 -35q12 23 12 35h58l35 23h12q0 -35 35 -35l58 12q4 -23 24 -23h11l35 23q94 0 94 -70q0 -17 35 -35v23h46q0 -26 47 -35q25 -35 58 -35v-35l-46 12q-23 -12 -35 -12q11 -22 11 -35q0 -35 -46 -35q35 -33 46 -163h-11l11 -24 q0 -11 -11 -11l11 -59q0 -70 -81 -70h-12l12 -23l23 12h12q17 0 35 -47q-12 -22 -12 -35l23 12h12v-35l-23 11h-12v-35h23v-35q-53 -23 -81 -23v-12h35v-70q-47 0 -47 -11q26 -59 93 -59l-35 -81v-35h-23q0 -24 35 -24q-12 -85 -93 -140v-23q105 0 105 -82q-20 0 -59 -93h24 v-58h-35l11 -24l-11 -23h35v-35l-35 -47q11 -20 11 -46h-58l12 -24v-23q0 -23 -24 -23q0 26 -46 35v35l-82 -59v-11l12 -24l23 12q23 -12 35 -12v-23q0 -18 -47 -35q0 23 -23 23t-23 -35h-24q-23 0 -23 24v35l12 23q-27 0 -47 12q0 -70 -35 -70l12 -24q0 -16 -35 -35 q-117 114 -117 129l-23 -12h-12l-23 12v-12l11 -23l24 11h23v-23l-12 -23l-58 11h-12q0 -43 -46 -70h-47v35h23l24 -11v11l-12 24q23 0 23 11q-23 39 -23 70h-12v-58h-70v-23h-23q-35 11 -35 70v11l12 24q-24 0 -24 23q4 23 24 23h11l24 -11q0 23 58 23q-23 43 -23 93h23 v-23q38 35 140 82h35v-35h23l59 46h11v-23h24q16 0 35 58q27 0 35 70q5 0 46 12v12q-93 0 -93 23t47 23v12q0 23 -35 23v24q27 70 35 70q-47 58 -47 93v47h12l58 -12q-23 -74 -23 -82h46v47q0 26 -11 47q11 22 11 35q-70 44 -70 58q0 16 82 70v23q-66 47 -82 47q0 58 59 58 v12l-35 47l11 23l-11 70v35h11l59 -12v12q0 23 -47 23v24h35v11h-23l23 47q-44 0 -58 105q-59 0 -59 47h-23q-12 -61 -12 -70h-23l-82 -12v24q-60 -24 -93 -24q-12 23 -12 35l12 59h-47v11q-23 0 -23 -58h-23l-24 82l24 11h23l23 -11q0 9 35 35q-17 46 -35 46h-11v-23 q-61 0 -70 35v12q23 0 23 23h12q23 0 23 -35h12v12l-12 23q41 105 82 105v-23q23 0 23 46zM225 216l-23 -70h12q81 0 81 23q-11 47 -70 47zM97 181q0 -12 -12 -35q12 -23 12 -35l23 12q23 -12 35 -12l12 23v35l-58 12h-12z" />
<glyph unicode="^" horiz-adv-x="1395" d="M622 1745q47 -18 47 -35v-24h-24v-23q19 0 47 -23q0 37 35 105q23 0 23 -35q6 0 47 11q24 0 47 -58q61 0 81 -93q35 0 35 -24v-35l-23 -35q23 -3 23 -23l24 12h23q86 0 93 -35q0 -54 -35 -106q27 0 47 -11l-12 23q4 23 24 23h11q31 0 47 -93q-12 0 -12 -12q47 -5 47 -35 v-11q0 -24 -35 -24v-11q0 -8 58 -59q-11 0 -11 -11h23v23h23q20 0 35 -58l24 11h11v-35q-65 -46 -81 -46v11q0 17 -35 35h-24q-22 -23 -70 -23q-11 21 -11 47q-19 0 -70 -47h-24q-62 82 -140 82v35h24v11h-12q-20 -11 -47 -11q0 29 -11 93h23v47h-35v-12l12 -23 q-12 -21 -12 -47h-35q-23 0 -35 105q-44 0 -70 58q-35 0 -35 12l-23 -12h-12q0 24 -47 24l12 -24l-12 -23q12 -34 12 -117l-23 -11q-23 11 -35 11v-81l-12 -59h-23q0 47 -35 47l11 -23v-24l-81 12v-23q46 0 46 -24v-35h-11q-20 0 -70 24v-47q-47 -23 -70 -23v-35h35v-12 q-70 0 -94 -23h-11q-24 0 -24 23v12q35 0 35 35h-23v23h70l-23 35l-24 -12h-35q-11 0 -11 12q-47 0 -47 -47h-12q-70 52 -70 70v24h35v-35h12q0 58 23 58q1 -16 59 -47h11q24 0 24 24q-66 46 -94 46v47q70 0 70 47h-35v23q38 0 70 82l-11 23q3 23 23 23l23 -11q0 58 59 58 q0 24 70 47q3 -23 23 -23h23q-23 46 -70 46q0 -11 -11 -11q0 23 -12 23q12 22 12 35h35v-23l23 11l-12 24v46q32 70 47 70h23l24 -11q0 70 46 70v-12q5 -31 59 -47q0 35 35 35v24l-24 -12h-35v23q19 0 47 24zM1147 986h35v-23l58 11l12 -23q-23 -28 -23 -47q-94 19 -94 47 q12 23 12 35z" />
<glyph unicode="_" horiz-adv-x="1559" d="M1357 566h12q43 -58 58 -58q28 0 35 -94q-12 0 -12 -11q59 -15 59 -35v-12l-24 -35v-70q-23 0 -58 -58h-23l-24 11q0 -23 -23 -23q-12 0 -12 12l-23 -12h-12v12l12 23l-35 23h-12q0 -35 -81 -35v12h-12v-35h-47l-58 47h-12l-35 -24l-46 70h-24q0 -55 -58 -70v-23h-23 q-35 50 -35 70h-12q0 -43 -82 -82h-23q-23 0 -23 24q11 20 11 46q-23 0 -23 47q-23 -4 -23 -23q23 -39 23 -70v-12h-47q-11 0 -93 -23h-12l-35 23q0 -35 -23 -35h-35v35q47 0 47 23q0 12 23 12l-12 58q-22 -11 -35 -11l12 -24v-11h-23q0 12 -12 35l12 58l-35 -23 q-24 0 -24 23l-23 -12l-35 24h-12q-11 -83 -11 -94v-11h11q0 23 47 46v12h35q0 -12 12 -35q-12 -93 -59 -93l12 -24v-23l-58 -12q-12 23 -12 35q-23 -11 -35 -11l-23 11l-59 -46q-22 0 -81 23v-23h-35v35q26 0 81 35v35h-23v-24h-12q-17 0 -35 47l12 23q0 11 -47 94l12 23 q-12 20 -12 47q25 0 70 58h24v-35h11q67 0 105 47h24q0 -18 35 -47h-24v-12q47 0 47 -46h12v46q-17 0 -35 35q23 0 23 47q35 -12 35 -23l23 11q70 0 70 -46l59 11v35h-24q18 47 35 47q82 -29 82 -82q19 12 58 12l-23 35q15 58 35 58l70 -46q103 23 163 23v-12l152 35l70 -93 h12l11 23q-11 0 -11 12q44 0 116 35q21 -12 47 -12q6 47 35 47zM132 414l-12 -46q35 0 35 -70h24v11q0 12 -12 12l12 23q-24 27 -24 70h-23z" />
<glyph unicode="`" horiz-adv-x="644" d="M94 1627l29 18q27 -44 38 -44q2 0 3 1q20 40 37 50q45 -27 104 -101l15 65l30 18q12 -2 22 -2q19 0 30 7l18 -30q-44 0 -72 -17q-12 -10 -12 -20q0 -6 4 -12q11 7 18 7q6 0 9 -5l13 23q4 2 10 2q14 0 39 -14l12 -20q3 -5 3 -9q0 -17 -31 -35l6 -10q48 -16 112 -69l9 6 l12 -20q-25 -2 -35 -8l-44 -40l7 -11q10 7 35 9q12 20 34 34l6 -10q4 -16 4 -26q0 -13 -6 -16l23 -14l18 -29q-25 -142 -62 -189l12 -20l-59 -37l-19 30q-1 5 -1 10q0 30 43 57l-31 49l-30 -18q9 -15 9 -25q0 -11 -10 -17q-6 -3 -11 -3q-14 0 -27 21l-40 -25q10 -15 10 -29 q0 -21 -25 -36l6 -9l22 -14l-30 -18l-47 53l30 18l-12 20l-47 54q-6 9 -6 18q0 19 28 36l-13 20l-45 -15l-49 80q-17 27 -17 72q-24 25 -99 49l-24 39l29 19l42 -2l6 58l-3 26l-30 -18l13 -20l-30 -18l-6 10q-14 23 -14 42q0 31 37 54z" />
<glyph unicode="a" horiz-adv-x="1570" d="M960 1500h12q93 -65 93 -82v-59l-11 -23q28 0 81 -23v-12l-11 -23h23v-82q17 0 35 35l-23 35v12l11 23q-70 46 -70 82q12 22 12 35l82 -12h11l-11 59h11q33 -5 59 -47h23v-59h-35l12 -23q-12 0 -12 -12l23 12q53 -1 105 -47q0 12 12 12v-23h12q0 35 58 35q23 0 35 -82 q-23 -4 -23 -23v-24l23 -35q-12 -20 -12 -46h35v-24h-46v-11h23v-24q-35 -38 -35 -58q12 -23 12 -35q-24 -5 -47 -58h23v23h24q23 -4 23 -23q-7 -105 -23 -105l11 -24v-23h-23q0 17 -35 70h-23l23 -35h-12l12 -23q0 -24 -23 -24q17 -81 93 -81v-35q-35 -39 -35 -59v-35h-23 v-11q46 0 46 -105q-11 -23 -11 -35q17 0 35 -35l-12 -47q12 -23 12 -35l-35 -23h-12l-23 11q0 -12 -12 -35q23 -3 23 -23v-23h-23q0 -24 35 -24v-23l-82 12h-23l12 -24v-23h-59q0 26 -11 47l-24 -12h-70q-23 0 -23 70h-35l12 -23h-47v-12h-12l-35 23q-11 -22 -11 -35l-47 24 v-12q23 0 23 -47l24 12h23v-23l-82 -12q0 28 -70 58l-23 -11h-35l-23 11l23 -81q-12 0 -12 -12q-72 0 -105 58q-93 -13 -93 -58h-23v23l11 24q-11 0 -11 11q-38 -23 -59 -23l-23 58l-23 -11h-82v81h23l-11 59q3 23 23 23q0 -12 12 -12v35h-24q-18 0 -46 -46q11 0 11 -12 q-35 0 -35 -23h-23q0 23 -47 23q0 -23 -23 -23h-23q0 46 -24 46l12 24q-38 23 -70 23l12 70q-35 117 -105 117q23 70 46 70v46q0 17 -58 35q0 19 -23 47v58q3 24 23 24h23l24 -12v12q-47 59 -47 70q0 35 47 35v11q-35 0 -35 59q11 46 58 46l-12 24v11q63 0 82 82q23 0 23 82 h35q24 0 24 -47h11q8 70 35 70l-11 23v35q43 0 70 24l58 -24q0 12 12 12q0 -12 11 -12l-11 24q11 22 11 35h24q23 0 23 -35h23q0 23 12 23l-12 23v12h35l24 -12v12q-17 0 -35 35q3 24 23 24q0 -36 23 -36v24h24q23 -4 23 -24q-12 0 -12 -11q33 -35 94 -47v12q-12 0 -12 11 l23 12l-11 23q0 56 93 82l58 -11q0 16 35 35zM1404 1465h23v-59q-19 -70 -35 -70q-23 0 -23 35h-59q0 9 -11 70h46q0 -47 59 -47v12l11 24q-11 22 -11 35zM832 1196q0 -35 -23 -35v-12l11 -23q-47 -16 -93 -58h-23q-24 0 -24 23l12 23h-12q-23 -3 -23 -23v-12h23 q0 -58 -70 -81h-58l-23 11q-40 -128 -94 -128q0 -23 -23 -23v-24l23 -35v-23l-35 -47h35v-93q0 -12 -11 -12q4 -36 70 -81q0 -20 58 -59v-23l58 12l12 -24v-11l-12 -24q67 -23 105 -23q0 23 12 23q23 -11 35 -11q0 11 12 11v-23h58l12 47h23l35 -24q38 24 58 24l-11 23v12 h23v-35q18 0 93 81l24 -11q3 23 23 23l23 -12q12 23 12 35q23 -3 23 -23q-30 -58 -81 -58v-35h11l35 23h12q23 0 23 -35q17 0 35 58h12v59h-47l12 23l-23 12q0 -12 -12 -12q-23 72 -23 93q20 12 46 12q-35 21 -35 93q20 39 70 47v23l-58 -11l-12 23v82h-11v23q30 0 46 47 l-11 23v23l11 24h-11q0 -12 -12 -12l-23 35v12l11 23q-46 6 -46 35h-59q0 -35 -23 -35q-35 0 -35 47l-23 -12q-82 0 -82 35h-35zM85 648q21 -12 47 -12v-35q-26 0 -47 -12q-22 12 -35 12v35q13 0 35 12zM1194 76h81q0 -23 24 -23v-35l-105 -12v70z" />
<glyph unicode="b" horiz-adv-x="1559" d="M295 1721l59 -70l-12 24q4 23 23 23h12q0 -35 23 -35q-11 -23 -11 -35h-152q47 -43 152 -70q0 -35 23 -35v-47l-23 -35v-35l23 -35v-23l-12 -24q35 0 35 -58h-23v23h-23v-23q31 -70 46 -70l24 12l-12 23v23l23 -11h12v46h-23q0 17 35 35h11q29 -23 47 -23h12v12h-24v11 q24 29 24 47h46q-23 -83 -23 -93v-12h12q35 60 35 93h58l-12 -23q48 23 70 23q23 -11 35 -11q18 46 35 46h12l23 -11q12 47 70 47q0 -42 59 -82v-12l-12 -23h23v35h70q0 35 24 35v-24h35v12l-12 23h58q0 -18 35 -105l59 12h23q0 -21 82 -70q-12 -82 -47 -82l12 -23v-12 l-12 -58h23q3 47 24 47l-12 23v23h12q32 -1 81 -116q12 0 35 -47q-23 -4 -23 -23q12 -23 12 -35h-24q-11 0 -11 11q-38 -11 -47 -46l58 11h12v-23l-12 -23l47 -12l-12 -58l12 -82q-12 0 -12 -12q24 -3 24 -23v-35h-24q-23 0 -23 35q-23 -4 -23 -23q35 -12 35 -70v-24 q-82 0 -82 -93q-41 -12 -47 -12q0 24 -23 24v-12l12 -58h-35q0 30 -94 46q0 35 -23 35q0 -32 -35 -46q0 -19 -23 -47l35 -23q23 0 23 23q-23 0 -23 23h46l-11 -23q9 0 58 -82l-12 59v46h35q0 -23 24 -23v-35l-24 -35q12 0 12 -12q-19 0 -58 -58q-24 0 -24 -23l-81 11 q-16 0 -35 -70q-35 0 -35 -35h-59v35q-23 -3 -23 -23q17 0 35 -35q0 -32 -93 -58v23l-35 -23h-12q-29 0 -35 46h-12l-11 -58q-24 0 -24 23h12q-12 23 -12 35q-18 0 -81 -58h-70v-47h-35l11 59q-71 -24 -93 -24q0 12 -12 12q0 -23 -23 -23h-23v46l23 -11h23l12 46l-23 12v-23 h-47q-71 60 -152 70v-24h-23v24q0 23 35 23q-12 23 -12 35h-23v-23l-35 23h-12l24 -35v-23q-27 0 -47 -12q-20 12 -47 12v35h35q0 23 -23 23q-20 -12 -47 -12q0 12 -11 12l11 58q0 24 -35 24v11q0 17 35 35l24 -11l11 23q-11 0 -11 12l-24 -12q-20 0 -35 58q47 0 47 24 q-70 0 -70 23l35 58q-23 0 -23 24l23 35v23l-12 58l24 12h11l24 -12v12q0 14 -94 47v23l70 117v11h-70v59q42 98 94 105v23l23 -12v12q-12 0 -12 12q23 11 35 11v12q-39 0 -58 12v-35h-12l-58 11q16 130 47 164h-24q0 22 24 81q-23 12 -35 12v23h23v47l-47 12v12q4 23 24 23 h11l24 -12l11 24v105l105 70v23q-35 0 -35 35h12q12 0 12 -12q81 0 81 35zM634 998h-35q0 -24 -59 -47l12 -23q0 -35 -82 -47v23q35 0 35 59l-23 11q0 -59 -58 -93h-12l12 -58v-47q-35 0 -35 -23v-24q31 -70 46 -70q-13 -58 -93 -58v-12q30 0 47 -46q44 0 70 -117l23 12 q23 -12 35 -12l23 12q94 -34 94 -105q81 23 140 23q0 47 23 47q19 0 70 -47q0 12 12 12q3 -24 23 -24v24q-35 0 -35 35q0 24 117 93q0 42 70 58q20 -11 46 -11l12 23l-12 23v35h-11q17 47 35 47l-12 23q0 24 70 24v58l-47 58v24l47 35q35 0 35 23q-105 0 -105 47 q0 35 -58 46q0 35 -35 35q-12 0 -12 24l-58 -12l-94 47h-35q-112 -101 -186 -105z" />
<glyph unicode="c" horiz-adv-x="1314" d="M914 1476h23q16 0 58 -58v-12h-23v-35q132 59 152 59h46v-59l-35 -58q24 -4 24 -24q0 -23 -35 -23q0 -30 35 -82h-12l12 -23v-12l-24 12h-11q-19 -70 -70 -70q-20 -12 -59 -12q-11 23 -11 35l-24 -11h-23v46h-35v-23h-23q-24 0 -24 35h-23q-23 0 -23 -70h-35 q-24 0 -24 35h-23q-17 0 -35 -58h-47l12 -24v-11h-35v23h-12q0 -48 -70 -58l12 -24v-23h-23l-59 12v-12q24 -38 24 -70q-117 -46 -117 -128q38 -24 58 -24v-35l-11 -70q11 -20 11 -46q-11 -21 -11 -47l23 12q12 0 12 -12q22 12 35 12q22 -12 35 -12v-12q0 -23 -35 -23v-12 h11q23 12 35 12q4 -23 24 -23l70 11q0 -39 11 -58l24 12h11l47 -35h12q0 8 23 46l82 -11v23h23l23 -12v47h24q0 -47 23 -47q0 32 58 59v-24l47 12q30 0 82 -35h11l35 23q6 -46 35 -46q4 23 24 23q23 -4 23 -23l-35 -47v-12l23 12h12v-58q-23 -4 -23 -24l23 12h12v-12 q-18 -45 -70 -81q-45 -70 -59 -70q-35 0 -35 -24h-46v70l11 24h-23q0 -65 -82 -94h-11q-82 24 -82 82v35q-26 0 -47 12l-11 -24v-11h23v-12h-35l12 -23h-35v23h-12v-12q23 -59 23 -81q-40 -12 -46 -12q11 23 11 35v12h-11q0 -32 -59 -59h-46q0 19 -24 35q12 16 12 59h-23v70 h-12q-23 -4 -23 -24l11 -58q-46 -3 -46 -23q-105 11 -105 35q23 0 23 23h-23v-23h-24l-46 35v-24h-35q-24 0 -24 24v23h35v35q-30 0 -46 47q-84 -12 -94 -12q-20 12 -46 12v11q3 24 23 24l-12 23l47 82q-117 0 -117 35q0 12 -11 35v35q-24 0 -24 23v35h35l24 -12q0 18 35 47 l-24 12q-20 -12 -46 -12l-12 58q17 0 35 35h-23q0 42 35 82q0 12 -12 12l12 58v35q46 0 46 35l-11 58q10 0 93 35q-23 39 -23 70q23 0 23 35h12l58 -35q0 24 23 24v35h-11v-24h-35q0 47 46 70v24h82l12 81l58 -11q75 0 93 46q35 47 47 47q47 -23 47 -35q58 35 175 47h70v23z M132 869q0 -20 58 -35q21 12 47 12v-23l23 11h12v-23h35v23q-23 29 -23 47l-59 -12v24l12 23h-12q-56 -47 -93 -47z" />
<glyph unicode="d" horiz-adv-x="1547" d="M1252 1768h12v-12q-24 -74 -24 -81l24 -12l23 12l-12 23q0 17 35 35h47v-23l-12 -24h24v-35q-59 0 -59 -23q-11 -23 -11 -35q93 50 93 117h12l-12 23v23h35v-23l-12 -23q35 0 35 -12q-23 -38 -23 -58q23 -4 23 -24q-46 -52 -46 -58v-35l23 12h12v-59l23 -35v-35l-35 -47 q23 -80 23 -140h24q0 -67 -59 -116l-23 11v-23l58 -12v-35l-11 -23q35 0 35 -12q-9 -39 -70 -70q23 -81 46 -81v-24q-23 -28 -23 -46h-12l-23 11l-23 -35l23 12h23q0 -42 47 -82q0 -46 -82 -46q0 -17 94 -47l11 -23v-12l-46 35l11 -58q0 -27 -11 -47l23 -58q-16 -66 -35 -94 q54 -35 70 -35q-31 -70 -47 -70q0 12 -11 12v-12q22 -11 35 -11v-24q0 -16 -35 -35h-12l-35 24l12 23q0 18 -47 47h-12v-35q47 0 47 -82h-23l-59 35l-11 -23q23 -39 23 -70q0 -24 -23 -24q-21 12 -47 12q0 -30 -58 -35v-23h-35q-29 35 -47 35l12 23v12h-12q-35 -63 -35 -82 h-47q-23 0 -23 35h-12q0 -70 -23 -70h-58q0 30 -59 35l-11 47h-12q0 -35 -23 -35h-24q-23 0 -23 46h-35q-23 0 -23 -35l-47 12l-23 -12q-35 0 -35 59l-59 -12h-11q-24 0 -24 23l-23 -11h-23v46q-47 0 -47 35l-23 -11h-59q-16 0 -35 35v11q0 17 35 35l59 -11q-5 24 -59 46 q0 -32 -93 -46v23h23q0 12 -11 35q11 46 11 82v23h-11q-12 -61 -12 -70l-58 12v23l11 23q-58 0 -58 47h-35v23q6 0 47 12q0 -12 11 -12v12q0 22 -70 58v35q35 0 35 59l-23 -12h-47q16 105 47 105h12v47l-24 35v11q0 17 35 35l59 -11q0 26 11 46l-81 35v24q81 7 81 35v11 q-35 0 -35 24q4 23 24 23h35q0 -35 23 -35q17 0 35 35v47l-12 23q27 0 59 47q19 0 35 23l-12 23v12h47v12h58q0 18 47 46h11v-58l-11 -23h23l23 11q21 -11 47 -11h12v23q-47 0 -47 23v35q41 0 58 117h35q12 0 12 -12l23 12h12v-12q0 -31 -23 -70h23q88 70 128 70 q59 -35 59 -70h11v59h35v-24q0 -11 -11 -11q15 -54 46 -59l-11 24v35h23l-23 35v11l81 12q0 -12 12 -12v24h12q23 -4 23 -24v-11q0 -12 -82 -82v-12l47 35q20 -11 47 -11q3 23 23 23q12 0 12 -12q46 18 46 35q0 14 -81 70q2 26 70 71l58 -12h12v12q-105 11 -105 35 q11 20 11 46q-23 0 -23 24v11q43 94 58 94h35v-24h12q0 13 12 35q-47 0 -47 24v23q12 35 70 35zM1089 1231q0 -47 -24 -47q12 -22 12 -35q23 0 35 82h-23zM1054 1114v-58q-47 -30 -47 -47h-23q0 39 -59 59q0 -47 -35 -47h-11l-35 23q-38 -23 -59 -23l-23 12q-20 -12 -47 -12 h-11q0 70 -47 70h-12q0 -26 -11 -47q46 0 46 -23v-12q0 -11 -11 -11l11 -24q0 -23 -23 -23q-12 0 -12 12l-23 -12l-23 12l-12 -24q12 -22 12 -35h-35q0 35 -70 59v-12l46 -82v-11q-70 0 -70 -70q-46 0 -46 -12l11 -23l-11 -24l11 -70q-39 0 -58 -58q15 12 58 12 q0 -30 47 -47q47 -75 47 -117l-12 -58q12 0 35 -12l12 24q-12 22 -12 35h70v-59q0 -16 35 -35h12v24h11l35 -24q24 24 82 24q8 -31 58 -59v24q65 -12 94 -12q38 23 58 23l58 -11l-11 23v23h35v-46h23q0 17 35 46q-23 0 -23 24v58q35 0 35 23v24l-35 58q11 23 11 35l-23 47 h23v11q0 24 -58 24q0 75 70 93q0 -35 23 -35q47 0 70 128l-105 -11q-23 42 -23 93v23q-35 0 -35 47q12 0 12 12h-24v23l35 47l-23 11h-23z" />
<glyph unicode="e" horiz-adv-x="1582" d="M925 1721q66 -81 105 -81q24 -29 24 -47h35l-12 23v12l23 -12l24 12q166 -68 221 -105h12v-23h-23q0 -28 93 -47v-23q0 -12 -12 -12q35 -48 59 -140l-59 35h-11q0 -21 81 -59v-11h12v23h23v-12l-23 -46q23 -4 23 -24v-23h-23q-41 70 -58 70v-12l11 -23l-23 -47 q70 -24 70 -93q0 -35 35 -35v-12q0 -23 -23 -23l-24 12q0 -24 -23 -24l-23 12q0 -35 -24 -35q-22 12 -35 12l-11 -24q23 0 70 -81v-59l-82 12q0 -58 -23 -58l-82 35v-24h35v-35q0 -27 -82 -35q-22 12 -35 12l24 -35q0 -17 -35 -35q-24 0 -24 35l12 58q-12 0 -35 12v-93 l-58 -12h-12q0 35 -12 82h-11q0 -59 -70 -59q-12 20 -12 59h-35q-23 -4 -23 -24q23 -3 23 -23v-35h-35l-35 23l-35 -46q-93 11 -93 35q-23 -12 -35 -12q-23 12 -35 12q-12 -23 -12 -35h-23l-59 46q0 -23 -23 -23q-17 0 -35 35q12 23 12 35q-29 -23 -47 -23v-47h23l24 12v-24 q0 -23 -35 -23q0 -41 46 -82v-58q47 0 47 -58h70v-12q-12 -23 -12 -35h12l35 23h23v-35l59 12v-70h-24l12 -23q58 0 58 93h24q17 0 35 -47l81 59q23 -12 35 -12q4 23 24 23h11l-11 -23l35 -23q0 38 23 93h23v-23h12l58 11v-70h-23v-11h35q0 46 12 46l23 -11q23 11 35 11 l12 -23v-23h-35q0 -105 81 -105v11l-35 59v23q17 -1 59 -47l-12 -23l35 -70q-23 0 -23 -35h-70q0 -35 -12 -35l12 -23v-12h-24q0 23 -58 47h-23q11 -23 11 -35q-9 -40 -70 -70h-11q-45 70 -59 70l12 -24v-23q-29 0 -93 -58q-12 0 -12 11l-23 -11l-70 11q-38 -23 -59 -23 l-151 35q-20 -12 -59 -12q0 35 -58 35v24q48 0 58 70l-70 35v-35q35 0 35 -24v-11q-18 0 -46 -24q0 13 -12 35v35q-12 0 -12 12l-23 -12h-47l-23 70l-58 -11l11 23l-70 117v81q-81 51 -81 70l11 24l-46 58v93h46v12q-78 0 -93 82q0 11 12 11q-12 89 -24 117q24 38 24 58h23 l35 -23h12q-24 81 -24 140l12 23l-23 -11h-24q0 12 -11 35q0 18 46 46q0 24 35 24l-23 35q17 0 35 35q-47 17 -47 35v23h47q23 0 23 -35h24v23l35 -23h11q0 23 -35 23l12 47q-12 23 -12 35h12q-12 23 -12 35q12 23 12 35h12l23 -11v23q23 -12 35 -12v-11l-23 -36h46v71 l12 23q-23 0 -23 23v12q26 0 46 -12q94 32 94 94q27 18 93 35l-12 23q4 23 24 23q23 -3 23 -23l-12 -23l47 -12v12q-12 20 -12 46v12q27 0 47 12v-24l-12 -23q24 0 24 -23q23 0 23 23q-12 0 -12 12l59 11l46 -11q4 23 24 23h11v-23h24v35h23v-12l-12 -23h12l-12 -24v-11h70 q-5 46 -35 46q0 17 35 35zM890 1383q0 -30 -58 -35q-20 11 -105 23l12 -23v-24h-47l-58 12v-47q-51 0 -94 24v-12q12 -22 12 -35l-117 -163q-11 -35 -70 -35v-12q59 0 59 -58h81l59 11v-11l23 11q23 0 23 -46l24 11l58 -11q-23 -48 -23 -70l23 -12q0 35 58 47q0 46 70 46 l-11 24h11q59 -47 82 -47v-47q0 -11 -12 -11q12 -23 12 -35h12q0 23 11 23l-11 23v35h11l24 -11q0 55 105 70q0 35 70 46q0 47 58 47l-12 58l24 35q-94 0 -94 70q-70 35 -70 70t-23 35h-23l-82 -11v35h-12zM249 519q11 -22 11 -35l24 12l46 -47v24q-11 46 -70 46h-11z M610 76v-12q47 0 47 -23h12q23 0 23 23v12h-82z" />
<glyph unicode="f" horiz-adv-x="1489" d="M995 1885h35v-12l-11 -23q23 0 23 -35h12q6 46 35 46q23 -3 23 -23q-12 -23 -12 -35h70v47h47v-47h-23v-23q18 0 46 -24q21 12 47 12v-12l-12 -23q47 -18 47 -35l23 12h12v-24h12v35l23 -11q23 11 35 11v-35q-35 0 -35 -23h12q0 12 11 12l24 -35v-12q-13 0 -35 -12 q0 35 -24 35l-11 -23l11 -23q-7 -70 -46 -70v-12h23q-21 -49 -70 -70v23l12 24l-24 11q0 -32 -35 -46q0 -35 -23 -35h-35v35l-23 -12h-12q-93 51 -93 70q0 23 -24 23q-22 -53 -46 -58q-70 23 -70 58q-59 -7 -59 -58h-35q-23 0 -23 23q-39 -3 -58 -58q-48 0 -70 -59l-47 -11 v-12l12 -23h-12l-35 23q-23 -93 -47 -93h-11q0 -117 -35 -117h-12v-12q38 0 58 -23q13 0 35 12q64 -4 105 -47v12l-11 23q17 47 35 47q93 -74 93 -94l-35 -58l23 12h94v-24q35 0 35 59h11q24 -4 24 -24q-20 -105 -47 -105h-12l-23 12q-12 -35 -23 -35l11 -23v-35h-70 q-11 -70 -35 -70l-46 11q-23 -11 -35 -11q-24 26 -24 70h-70q0 46 -23 46q0 -11 -12 -11q0 11 -11 11v-11q11 0 11 -12q-11 0 -11 -12q11 0 11 -11h-23l12 -59h-12l12 -23q-12 -20 -12 -47h35v-23q-35 0 -35 -58q23 -4 23 -24q0 -23 -23 -23q-12 0 -12 12l-23 -12h-12v35 h-11v-47h23v-35q-41 -11 -47 -11v-24q19 0 47 -23v47q35 0 35 35h35l12 -59v-23q0 -12 -47 -35q12 -23 12 -35h-12l-47 12l-11 -24q3 -23 23 -23q0 12 12 12v-12l-12 -23l23 -12h12l23 12v-12l24 12h11v-35q-23 0 -23 -24l-58 12q23 -29 23 -58q12 0 35 11l58 -11v-24h-11 l-24 12v-12q0 -12 12 -35l-23 -93h-24l-46 47q-24 -4 -24 -24q24 -3 24 -23q0 -12 -12 -12l12 -23v-23q-13 0 -35 -12q-35 8 -47 47q12 22 12 35l-24 11h-11q-12 -64 -12 -93h-58l-12 58q23 0 23 24q-35 0 -81 11l11 24l-11 70q20 11 46 11v12q0 23 -23 23v-23h-12 q-11 0 -11 12l-24 -12h-11v35h81q24 0 24 23v47q-23 -12 -35 -12l11 -23v-23h-23q-17 0 -35 35v23q0 12 12 12l-12 23v12h23l24 -12q0 35 35 35t35 23q-55 0 -82 24l12 23v12l-24 -12h-46q-17 0 -35 35v12q0 23 35 23v58l-24 35l35 24l24 -12l-12 23q12 65 12 94l-24 11h-11 v-23h-35l-47 35l-58 -12l-24 35v12q17 0 47 47l-12 23q0 82 47 82v23q-58 0 -58 23q58 53 58 70q-23 0 -23 24v11h70v-23h23q0 39 35 82v11l-23 35v47q8 0 70 12q0 -12 11 -12v35q0 17 -58 35q-12 21 -12 47l70 23q39 -23 70 -23q0 39 12 58h-23q0 -35 -24 -35l-58 12v35 q47 0 47 93h11q24 -3 24 -23l23 12h58v35h-46q0 50 46 70v11h82q0 18 23 47q-11 22 -11 35h23v-35l23 12l24 -12v12l-12 23q12 22 12 35h23q0 -47 23 -47h12q0 28 58 70q28 0 35 -81l35 23h12l23 -12q0 12 12 12l-12 23q0 27 59 35v12h-24v23h24q44 0 105 -58h11q0 12 12 35 q-12 20 -12 47z" />
<glyph unicode="g" horiz-adv-x="1442" d="M914 1565q32 0 81 -82q21 12 47 12v11h-23v12q12 0 35 12q0 -35 23 -35h58q0 -24 47 -24v-35q0 -23 -35 -23q-58 0 -58 35h-70q0 -15 81 -47l24 -35v-11q0 -12 -12 -12l12 -23v-12q0 -23 -35 -23v-24q114 47 128 47q0 -29 35 -58v-47h-23v-12h11q21 12 47 12v-35l-23 -35 h35v23h35q0 -58 58 -58v-24h-35v-11h23v-24q-23 -46 -70 -46v-12h24q22 12 35 12v-47q0 -23 -35 -23v-24q46 -2 46 -23l-35 -58v-12h12q23 12 35 12v-12q-20 -128 -47 -128q-22 11 -35 11v-11l12 -70v-24h-23v-11q93 -3 93 -47v-12q0 -23 -23 -23h-12l-23 12q0 -12 -12 -12 q0 23 -23 23v-23q34 0 58 -47l-12 -58l-23 12h-23v-12q3 -23 23 -23l35 23q23 -28 23 -47q-23 -38 -23 -58q12 -23 12 -35l-47 -35q-12 0 -12 12q-20 -12 -46 -12v-12q64 0 70 -93q-12 -20 -12 -47h-47l-58 12q0 -35 -70 -58l35 -47v-93q-23 0 -23 35h-35l-35 -70h35v-35 q-35 0 -35 -59h-24q-23 0 -23 24q-82 -20 -82 -82q-112 0 -175 105v-12q12 -22 12 -35q-41 -58 -117 -58l-23 47q12 22 12 35q-24 0 -47 58q-23 12 -35 12v23h12l70 -12q22 12 35 12v35q-40 0 -59 82q12 22 12 35h12q11 0 11 -12q11 0 94 47q15 11 58 11q0 -35 47 -35 q0 19 70 47l70 47v23h-12q-23 -12 -35 -12v24l47 58h23v12q-58 0 -58 58q23 0 23 23q-12 21 -12 47h12l-12 23v12l59 -12q0 19 23 47l-23 -12h-24q-54 70 -70 70q0 -128 -186 -128q0 -32 -129 -47h-11q-70 38 -70 117l-24 12l-58 -59h-58v35h-24v-35h-23l12 59q-15 0 -59 70 l-81 -12h-12q-23 0 -23 23l11 24h-11v-12q-38 23 -59 23v47h12l23 -12q0 12 12 12v-12l-12 -23q27 0 47 -12q0 12 12 12q-24 60 -24 93q12 0 12 12h-12q-22 -23 -70 -23q0 35 -46 70q11 46 46 46v35q0 24 -23 24v-47h-23q-24 0 -35 70q0 35 58 35v23h-70q-12 23 -12 35 l70 35q-23 38 -23 59l35 23l-23 47q48 0 58 70q17 0 47 47q39 0 46 81q56 0 94 47q46 0 46 70h24l23 -12q0 35 23 35h12v-11l-23 -35v-12h11q0 23 47 23l-12 59h59q0 35 35 35l58 -12q0 15 70 47q8 -59 35 -59l-12 59v11h70l47 -58h35l-35 58v12zM470 1320v-35l59 11 q0 -58 23 -58t23 23l-46 35l11 24v11q-17 -11 -70 -11zM1287 1296h58q-11 -46 -46 -46q-23 11 -35 11v12q23 0 23 23zM1042 1238v-12h35v-11q0 -24 -47 -24v-12l47 -11l12 23q-12 0 -12 12q20 12 47 12v23h-82zM855 1179q-22 12 -35 12q0 -23 -23 -23h-12q-23 0 -23 35h-35 q0 -62 -140 -70q-121 -82 -140 -82l12 -23v-47q-24 -113 -24 -128h-23q0 58 -35 58l-12 -23q70 -62 70 -164l24 12h35q0 -58 23 -58q4 23 23 23h12l47 -35v23h23v-35h35v24h35v-24h35q23 0 23 35h12l23 -11q1 28 257 221l-35 47v23q4 24 23 24h24l23 -12q0 26 12 47l-47 -24 q-47 12 -47 59q18 0 35 46q-18 0 -46 47h-24v35l12 24h-12q-51 -36 -105 -36z" />
<glyph unicode="h" horiz-adv-x="1430" d="M284 1605h23q0 -24 23 -24v-35h-35l24 -35l-12 -23h12q20 12 46 12l24 -35q-24 -29 -24 -47q0 -47 59 -47l-12 -58h23q-11 -61 -11 -70q11 -23 11 -35l-23 -12v23h-12q0 -29 -58 -35v-11q23 0 23 -12l24 12h11v-35q-35 0 -35 -12q40 -47 70 -152q47 18 47 35l-12 24 l12 58h12q44 -35 105 -35h11q24 0 24 23v12l-24 -12h-11q-24 0 -24 24l47 58q47 0 47 23h23l23 -11v23h35q0 -35 24 -35q11 23 11 35h35l24 -58h23v11q-12 23 -12 35l47 24q21 -82 70 -82l23 12l59 -24l23 35v12h-35v35h12l23 -12q0 12 12 12q0 -12 11 -35l24 12h23v-12 l-12 -58q12 0 12 -12l-47 -12v-11q24 0 24 -35h11l24 11q0 -26 46 -35v-35h24l46 35q23 -11 35 -11v-35l-11 -24h23v-23q0 -23 -47 -23v-12q0 -23 70 -23v-12q0 -23 -23 -23h-23v23h-35v-35q46 0 46 -93q24 -39 24 -70q-29 0 -59 -24h-11q0 35 -24 35q0 -46 -23 -46h-23v-24 q35 0 35 -46l23 11l23 -11h12v11h-23v12l58 12q24 -47 58 -47l-58 -105v-23l47 -12v-12q-18 0 -47 -35q-22 12 -35 12l-12 -23v-59h24v-11q0 -12 -12 -12l12 -23v-59q-58 0 -105 -58q-27 0 -35 58q23 0 23 24q-23 0 -23 35l-24 -12h-11q-24 0 -24 23v70q-70 12 -70 35 l-23 -11h-23v23h35q0 12 -12 12l23 140q-46 0 -46 23v23q39 35 58 82l70 12v23l-12 23l-23 -11l-23 11q-23 -11 -35 -11l-35 58v12l23 35q-35 0 -35 70h-23l-59 -12v12l-23 -12q-23 12 -35 12l-12 -24l-81 12h-12q-12 0 -58 -105l-70 -12l-24 12q-49 -85 -93 -128l35 -105 q-39 0 -82 -35q0 -14 35 -59l-35 -58v-12q35 0 35 -58l-81 12l-12 -24q53 -23 82 -23v-58h-59l-58 -12q0 12 -12 12v-24q47 -6 47 -35v-35q-26 0 -47 -11h-35q12 -23 12 -35h-35l12 105q-23 -12 -35 -12l11 -23v-24h-46v24l11 23q-22 12 -35 12v35h24v11h-35q0 -46 -82 -46 v35h12v46l-12 82h12q-35 92 -35 117q5 0 46 11q18 -46 35 -46q0 48 -46 93q58 0 58 23q-18 12 -70 12v12q6 0 47 11q0 -11 11 -11q0 52 12 70l-23 11q-21 -11 -47 -11v46h12l23 -11l12 23v12l-59 46v24q0 23 35 23l-11 47l11 46q-11 21 -11 47q23 0 23 23h-58l23 35v35h12 l-12 47q12 15 12 58q-24 0 -24 24v93q35 0 35 23q-23 33 -23 82h12v12h-24v35h35v23h-70v35q18 0 47 35v-11l-12 -24l59 -11h11v11l-11 24q20 11 46 11v35l-58 -11h-12v11q59 36 59 59h35v-47h11l24 12l-12 23v23q18 0 47 24zM1019 298h23q20 -3 58 -117l-35 -23 q-70 23 -70 46v47q24 28 24 47z" />
<glyph unicode="i" horiz-adv-x="566" d="M330 1768h12q47 -20 47 -47l23 12v-12l-23 -35q69 -15 93 -58h12v-58h-12l-23 11v-35q58 0 58 -46q-9 -82 -82 -82l12 -24q0 -16 -35 -35l-58 12q-18 -47 -35 -47q-12 0 -12 12l-23 -12h-24q-23 0 -23 35l-23 -11h-12v23h-23l-12 -58q-34 1 -58 70h-35v70h-24 q24 74 24 93l-12 47q9 44 93 82q20 39 70 46q4 24 24 24h58q4 23 23 23zM295 1068h24q23 0 35 -70h-12q-12 0 -12 11q-22 -11 -35 -11q0 -8 59 -59q-35 0 -35 -23h35l-12 -23v-12q35 0 35 47h12q23 -4 23 -24v-46h-12q-22 11 -35 11l-11 -23v-12q35 0 35 -23l23 12 q23 -38 23 -59q-23 -3 -23 -23l23 -35q0 -39 -35 -82q12 -83 12 -93q-12 -20 -12 -47q17 0 35 -35l-23 -35q23 -3 23 -23v-23q0 -35 -105 -35v-12q47 0 47 -23q0 -18 35 -47q0 -47 -47 -47l12 -58h-12q-116 0 -116 35q-44 29 -82 82h-12q-23 0 -23 -35l47 -59 q-12 -20 -12 -46h-47q0 52 -11 70l-24 -12h-11v23h35v12l-24 35v35l24 35h-24l12 23q-29 35 -47 35v24l59 23l-24 35v58q35 0 35 24v11h-46l-12 47q12 0 12 12q-12 0 -12 11l23 12v-23h35v46h47v24h-58v35l23 35v23h-47v23q47 0 47 59h12l35 -24h23v24q-35 0 -35 23v12 q104 74 128 175zM167 1021q35 -27 35 -35v-35q-29 0 -58 -35h-24q-23 88 -23 105h70zM435 998h24v-12q-12 -35 -70 -35h-12v35zM412 846h23v-23h-23v23z" />
<glyph unicode="j" horiz-adv-x="1115" d="M844 1838q0 -58 23 -58h12l23 11q0 -19 58 -58q0 -47 24 -47h11v-23q0 -58 -35 -58q0 -24 35 -24v-23q0 -23 -35 -23l12 -24v-23l-47 -35q-38 -23 -70 -23q-38 46 -105 46h-93q-23 0 -23 24q23 38 23 70l-12 23v35q-46 17 -46 35v23q0 24 35 24v11l-12 24h12 q20 -12 46 -12q24 38 24 70h11l24 -12v35h23zM890 1208h35v-24h35l59 -11v-12q0 -58 -24 -58l12 -24v-23q-47 -6 -47 -35v-12h24v24q35 0 35 -47q-12 -35 -24 -35q0 -47 59 -47v-23q-17 0 -47 -47h-35v-46q12 0 35 -12q4 23 23 23h12q0 -19 23 -93q-15 0 -46 -70 q0 -30 35 -82q0 -16 -35 -35q-23 12 -35 12q15 -47 70 -47v-11q-11 0 -94 -24q-11 23 -11 35h-24l70 -93q12 -23 12 -35q-12 -51 -58 -70q0 -35 -24 -35v-12q0 -9 35 -35q0 -84 -58 -105q-1 -21 -93 -93q-59 -40 -59 -82h-23v35h-12q0 -35 -23 -35h-23l-105 59h-12l12 -59 q-37 0 -82 -46h-12q-14 0 -116 105v11l11 24l-70 -24l12 -23v-12q0 -23 -23 -23q-30 23 -59 23v24h24q-12 70 -24 70l-46 -24q-38 24 -59 24v35q13 0 35 11l-11 24l11 23h-23q0 -35 -23 -35h-47v23l23 35v12q-35 0 -35 23v12q28 0 59 47q23 -4 23 -24l-23 -35v-23 q58 23 58 82l-12 58q47 0 47 47q23 -12 35 -12v-47h-12l-23 12v-23h47q31 0 70 -24l11 59q59 0 70 -47l24 12q23 -4 23 -24q0 -23 -23 -23l-24 12v-12q23 -12 35 -12l24 12l58 -23l-12 23v23h35v-35q38 0 94 59l58 -24l-35 59v35h-12v23q47 0 47 58q-23 39 -23 70h23v-23h12 v12q0 11 -47 70v58h12l46 -35h35v12q-19 70 -58 70h-23q0 26 11 46q-11 23 -11 35q46 47 81 47v12q-81 0 -81 23v35q46 0 46 35q-35 67 -46 117l58 11q23 -11 35 -11v23q-23 0 -23 12l-24 -12h-35v12q12 22 12 35h12l23 -12v12q-12 0 -12 11h12l23 -11v23h12l35 -23 q113 53 128 70q-22 11 -35 11v24zM529 76v-12h11q-11 -22 -11 -35q11 -22 11 -35h24l-12 24v11l12 24z" />
<glyph unicode="k" horiz-adv-x="1418" d="M307 1698h12q28 -23 46 -23v-24l-58 12q0 -12 -12 -12q12 -20 12 -46q58 0 58 46q24 -3 24 -23v-23h-35v-35l81 11q24 -38 24 -58q-12 -38 -12 -82q23 0 23 -58h-11l11 -24q-23 -82 -23 -93l12 -47q-59 -14 -59 -35q0 -28 47 -116l-12 -59q24 -3 24 -23v-12 q0 -35 -59 -35l12 -23l-12 -23l24 -12h11q0 23 35 23v12l-11 23l23 12h35q0 -35 23 -35q23 12 35 12v11q-46 0 -46 24v23q3 23 23 23h35q23 0 23 -35q-11 -22 -11 -35h23q0 42 58 82q-58 0 -58 23v24q47 42 47 58l23 -12v12q-12 0 -12 12h35v-24l59 12l46 -12v12 q-23 38 -23 70v12q0 17 58 35v11h12l23 -11q12 20 12 46l47 -11l58 35l35 -24q4 24 23 24q-11 22 -11 35h-24q0 -24 -11 -24q-23 12 -35 12v12q0 16 70 35q11 22 11 35h12q23 -4 23 -24v-81q16 -15 59 -105q81 0 81 -35v-12h-70l-11 -23q11 -23 11 -35h12q0 35 23 35h24 l11 -59q-58 0 -58 -58v-12h-35q0 30 -47 35q-46 -70 -46 -93q-109 -58 -117 -105q-32 -1 -117 -105l-58 -12l12 -23q-12 -20 -12 -47q6 0 47 12q64 0 116 -70q76 0 82 -70q-12 -23 -12 -35h24q8 58 35 58l46 -35h59q0 -46 23 -81l58 11h35q0 -43 70 -58q12 -20 12 -47 q0 -46 -35 -46v-12q47 -6 47 -35q0 -23 -70 -35v-23q58 0 58 -47h-47v23h-11v-11l11 -24q-23 -72 -58 -81h-23v58q-24 28 -24 47h-46v-47h-47q-12 61 -12 70h-11q0 -35 -24 -35h-81q0 47 -24 47q-70 15 -70 35v35q70 0 70 46v12h-11q0 -35 -24 -35l-58 12q-12 -23 -12 -35 h-46q0 35 -12 35q-23 -12 -35 -12q-21 26 -35 105q-46 -12 -82 -35h-35q0 47 -35 47q0 -12 -11 -12q0 35 -12 82q12 22 12 35q-40 -35 -94 -35q0 -35 -23 -35h-12l-11 46h-12v-35q0 -26 12 -46q-15 -105 -47 -105h-12l-23 11l-12 -23l105 -23v-24q-28 0 -58 -35h-23 q-12 0 -12 12q-47 -18 -47 -35h35q-35 -38 -35 -58h-35v23h-35l-23 -58q-117 28 -117 81q-11 0 -11 12v12l11 23q-23 0 -23 23v24q47 51 47 70l-47 11q0 -11 -12 -11v23q87 0 94 58q46 0 81 35v-23h24v12q0 30 -82 46q0 47 -23 47v-12q11 0 11 -11l-23 -12h-12v12 q0 11 12 11q-12 23 -12 35q0 35 35 35l-11 24q-39 -24 -70 -24q0 13 -12 35q12 82 35 82q4 -23 23 -23h35q0 23 -70 35q0 -12 -11 -12l-12 23q0 70 117 70v12l-70 12v58l11 23q-22 12 -35 12v23q59 0 59 24q0 23 35 23v12l-47 11v82q-35 0 -35 23q0 21 58 35v-23h24l-12 23 v35h-47v24l12 23h-35q47 54 47 82q-47 0 -47 23v12q0 23 58 23v23q0 24 -35 24v12q8 70 35 70l24 -12v23q0 59 -59 59l12 58h12q23 0 23 -35l23 12q23 -12 35 -12q0 47 -46 47v35q39 0 58 11l70 -11v23z" />
<glyph unicode="l" horiz-adv-x="532" d="M214 1686q116 0 116 -93q-11 0 -11 -12q23 -3 23 -23q-12 0 -12 -12l24 12h35l81 -12v-23l12 -140h-35v-12l12 -82q-24 -3 -24 -23l24 -35q0 -23 -82 -23v-12q58 0 58 -82v-11l-23 -35q20 0 58 -152q-35 0 -46 -105q11 -23 11 -35q-35 0 -35 -23q12 -21 12 -47h-12 q5 -58 35 -58v-35q0 -24 -23 -24q0 12 -12 12l12 -23q0 -12 -12 -12l12 -23q0 -24 -47 -24v-70l24 12q11 0 11 -12l24 12h23q-15 -128 -47 -128l12 -59v-11h-35v-24h58v-46q0 -24 -23 -24q-12 0 -12 12l-46 -23l11 -24l-23 -35h23v-35h-70v12l24 35l-24 12q-35 0 -35 -35 h-11v35l11 23h-23l-12 -58h-11q-17 0 -35 35v11h23v47h-35q0 -35 -12 -82l-58 12v105l-35 47v23q0 12 12 12q-24 38 -24 58q23 0 82 105q-31 4 -47 58h24v35l-12 59h12l-12 23q0 23 35 23v12h-70v23h23l-11 59v11q0 24 35 24t35 -47h23q0 39 12 58l-24 -11h-11v23h-82v23 q47 0 47 94h11l-11 23q0 12 11 12q0 19 -46 151q20 12 46 12l-11 23v35q0 35 81 35v24h-35v11h24q0 24 -24 24q0 -24 -11 -24l-24 12q-22 -12 -35 -12v12q24 23 24 70q-24 0 -24 23q4 24 24 24h11l35 -24h12v24q-52 82 -70 82q4 23 23 23l24 -12q3 24 23 24l23 -12v47h-35 v11q51 0 59 47h35v35q0 23 -35 23v35z" />
<glyph unicode="m" horiz-adv-x="1978" d="M237 1348h23q24 0 24 -70h46v23h35v-23q0 -24 -35 -24v-35q19 0 47 -23h12q0 23 11 23l-11 24v23h58q0 -30 47 -47v-35h11q36 70 175 70v24h47q23 -4 23 -24v-11l-11 -24l81 -11l59 35h11q82 -54 82 -82l23 12h12v-35h-23q23 -48 23 -70h35q0 43 47 116h35v-70h11 q19 0 47 47q-23 0 -23 23q81 57 81 117h24q58 0 58 -35h23q0 82 24 82l46 -12q21 12 47 12q0 -15 70 -47q0 35 23 35q30 -23 59 -23v-24q-24 -28 -24 -46l-23 11v-23q4 -23 23 -23v23q87 -23 117 -23l12 23q-23 0 -23 23l58 12h12v-23h-35q58 -45 58 -70l-12 -24 q0 -78 70 -93q0 -23 47 -23v-12q0 -23 -47 -23v-35q47 -31 47 -59q0 -23 35 -23v-23h-12l-23 11q0 -16 -35 -35h-58v70l-24 -11q0 -70 59 -94q0 -35 23 -35q0 35 23 35h24q0 -23 11 -23l-11 -117v-70h-24v-58l24 12q0 -82 -59 -82v35h-81v-12h23v-23l-12 -23h59 q11 -21 11 -47q0 -12 -11 -35q0 -16 46 -82v-23l-105 -23l-23 11q-12 -20 -12 -46q-133 0 -163 81v12q11 0 11 12q-23 0 -23 23v23l12 24l-24 11h-11l-35 -23h-12v58q58 15 58 35q0 24 -23 24q0 -12 -12 -12l-11 23q63 35 81 35v47l-23 -12q-23 0 -23 35l-24 -11h-11v23h23 v35l35 105h105v23q-47 0 -58 35q-13 0 -94 105v35l-35 47q-93 -23 -93 -47v-11h-12l-23 11q0 -22 -82 -70h59q0 -48 -82 -116q0 -27 -47 -82q24 -46 24 -128q-94 -86 -94 -129h-105v24h24v11q0 24 -24 24v-35h-46q0 23 -12 23q-23 -12 -35 -12q-8 35 -47 47v-47 q-20 -11 -46 -11l-12 23q23 38 23 70v12l-23 35v35l12 23q-23 12 -35 12v35h35l-35 58l11 23q-11 23 -11 35l23 -11l12 23v35q0 17 -82 82v23h-70q-87 -14 -93 -47v-58q-152 -27 -152 -70l47 -93l-24 -12q0 12 -11 12q-16 -66 -35 -94q23 -3 23 -23v-23h-35l12 -24v-11 q-24 0 -47 -59v-11h23v-59q-23 -28 -23 -46q35 -55 47 -152q-19 0 -70 -47h-24q-34 47 -105 47v12l12 23l-23 12h-12v-35h-35l-23 11v-23l-82 12v11q0 12 12 12q-24 38 -24 70l24 12h35q11 22 11 35q-22 11 -35 11v12q3 58 24 58q-12 7 -12 82h12v47q0 23 -35 23v35 q0 23 46 23l-11 59h11l-11 23q3 23 23 23q0 -11 12 -11v11q-33 0 -47 94q9 46 23 46l-11 24v70h-24v11q24 36 35 82l-11 23q0 59 23 59l47 -24l11 24l-70 140h24q20 -25 116 -82h35q-81 67 -81 82v23q23 29 23 47zM1614 379v-11q58 0 58 -94h-35q4 -23 24 -23q20 12 46 12 v58q-19 0 -58 58h-35zM190 321q0 -23 -23 -23v-35q26 0 47 11l46 -23l12 23h-23v12l11 23l-23 12h-47zM1532 309q18 0 47 -46v-24l-59 -11l-23 35q35 29 35 46z" />
<glyph unicode="n" horiz-adv-x="1512" d="M914 1418h11v-12q-11 -22 -11 -35q42 -47 116 -47q12 23 12 35q12 0 12 -11q38 23 58 23q4 -23 23 -23q0 11 12 11q0 -49 70 -105l58 12v-47q-58 -3 -58 -35v-11q23 0 23 -12q23 12 35 12q38 -24 59 -24v-35h-35v-46q35 0 35 -24v-46h-12l-23 11v-23l46 -12 q0 -35 -35 -35v-35h24v35h58q23 -3 23 -23q0 -23 -23 -23l12 -24l-35 -81q22 -12 35 -12q38 23 58 23l-12 -23l12 -70v-12q-43 -11 -105 -11v-12q21 0 70 -35q23 -4 23 -23v-82q-26 0 -35 -47h-11v-58l-12 -23q35 0 35 -24v-11q-58 -51 -58 -70h-12l-23 11v-11q17 0 35 -35 v-24q0 -26 -59 -35q-11 23 -11 35h-12q-47 -16 -47 -58h-81v-12l23 -35h-12l-58 12v12q0 29 47 35v11q0 17 -59 35l-11 70q11 0 11 12h-23v-23q-17 0 -35 35v35h12q23 -4 23 -24q55 15 93 70l-46 12v23h23v35q-38 -23 -70 -23q-23 0 -23 35l46 58q-35 0 -35 24v23 q4 23 24 23h70v24h-47q-23 38 -23 70l11 23q-23 0 -23 35q7 93 35 93q-8 55 -82 105l-58 82l-23 -12l-70 12q0 -23 -24 -23q-81 0 -81 35q-20 0 -35 -82h-35l11 -23v-12h-23v35q-23 -4 -23 -23v-70q-47 0 -47 -24h-35q0 35 -23 35q-9 0 -35 -35l11 -23v-35 q-56 -123 -105 -152h-11l-24 12v-12q20 -11 59 -11v-35q-47 0 -82 -35q9 -47 23 -47h35q0 -47 24 -47v-23h-47q47 -52 47 -58v-12q-39 0 -47 -58l12 -24v-23q-54 -23 -82 -23q35 -31 35 -70h70v-12q-27 -70 -47 -70h-58v12q12 22 12 35h-24l-35 -24h-11q-17 0 -35 35v12 l11 23h-46v-46h-35q-12 0 -12 11l-23 -11h-24q-27 0 -46 105q35 0 35 11q-12 23 -12 35q17 0 35 59h12v58q-23 -12 -35 -12l11 -23v-12q0 -23 -23 -23h-12q-17 0 -35 35v12q24 58 47 58q0 26 -12 47l12 23q-12 20 -12 47l24 35v11q-59 0 -59 35q47 40 47 82h23 q-35 26 -35 82q24 0 24 23q-47 0 -47 35q12 47 82 47q0 -12 11 -12v23q-53 24 -81 24v11q0 12 11 12l-11 23q0 63 46 82l24 -12v12q-12 23 -12 35q39 35 70 35v23h-93v12q35 93 128 93q-23 -58 -47 -58v-23l35 23q12 0 12 -12l23 12h35q24 -4 24 -23v-12q-47 0 -47 -70v-12 h12q0 29 70 94h58q0 -36 12 -82l23 12h23l24 -12q0 12 11 12l-11 23l11 23h-23q-23 -11 -35 -11l-12 23v23h35l-11 24v11h35q0 -31 105 -58l11 23v24q-23 0 -23 46h-12v-35h-23v12q0 31 58 58q0 -26 47 -35v-11h35v11q0 30 -47 35v12q4 23 24 23q26 0 46 -11q23 11 35 11 q12 -20 12 -46h47v23h11l24 -12q6 47 35 47l23 -12v12q-12 23 -12 35zM1205 928v-12q0 -47 59 -47v-70h11q23 12 35 12v47h-35v23h24q-12 23 -12 35l-23 -12q-38 24 -59 24zM1299 216q0 -70 23 -93v-12h-58q-24 0 -24 23v35q6 24 59 47z" />
<glyph unicode="o" horiz-adv-x="1570" d="M785 1453v-23h12l35 23h12q0 -13 11 -35q47 23 82 23v-23l-23 12v-12l46 -47q0 35 24 35v-47h11l35 24h35v-24l-11 -58l46 -58q0 35 12 35l-12 23v47h12q56 -63 175 -140v-24l-12 -58q39 23 70 23h12v-81q56 0 93 -117h-23q0 -43 70 -117v-11h-23v-12h23v-23h-47l-23 11 v-70q58 -3 58 -23q0 -35 -35 -35v-12q70 -11 70 -105l-116 12v-12q40 -38 58 -93h23v-23q-70 0 -70 -24q24 -3 24 -23v-12h-24v-11h24v-24q-52 0 -94 -58q-11 0 -11 12l-70 -12v-12q46 -51 46 -58v-23h-23l-23 11v-11l23 -35v-24l-105 -11v-12h23v-23l-58 -12q0 26 12 47 q-18 46 -35 46q0 -23 -35 -23q0 -26 11 -47q0 -31 -116 -93h-24q-46 47 -70 47q-22 -12 -35 -12q-11 23 -11 35h-24l12 -58q-48 -24 -70 -24l-70 35q-7 -35 -93 -35v12l-24 -12h-11v12q0 23 70 35q0 -12 11 -12v24l-58 -12v82l47 46q-24 0 -24 35h-23v-11q12 -23 12 -35 l-47 -47h-12v12q12 22 12 35l-23 11h-12l-58 -70q-21 12 -47 12v58l23 35h-11q0 -11 -12 -11q0 11 -12 11l12 24l-12 23q23 12 35 12v23q-16 -20 -163 -70v-12h-58q-24 46 -24 82l-23 -12h-12v47h12v23l-47 12q0 117 -70 187q0 35 47 35q0 35 -35 35v70q35 0 35 105h-47v46 q35 54 35 94q-11 22 -11 35q22 11 35 11q35 0 35 -46h23q0 23 23 23l-11 23l-24 -11h-11l-12 58l70 105q0 23 105 70q23 -12 35 -12v12l-23 35v12l23 35l58 -12h12v58q0 12 12 12l-12 23v24h12q12 0 35 -12l58 12l47 -24l-12 24v11q214 59 233 59zM657 1056l-12 23 q-22 -11 -35 -11h-35q-51 -82 -70 -82q-35 0 -35 -23v-12l24 -35q0 -23 -24 -23l-23 11v-46h-12l-23 11q-47 -77 -47 -105l24 -11l23 11v-23q-18 0 -47 -23q0 -82 35 -82v-70h-23v-12h35l23 12v-23l-11 -24q44 -35 58 -35v-58q0 -12 -12 -12l12 -23v-58h23q0 47 70 70h24 l11 -59h24l35 24h35q0 -47 58 -47l82 23l11 -23q81 70 152 70q38 70 105 70h47q0 14 -24 128q17 0 35 35v12q-23 0 -23 12q20 58 58 58q0 23 -23 23h-58v12l23 35v47h-35v35q0 23 35 23q0 19 -93 47v23l23 35v12q-23 0 -23 23h-12q0 -47 -23 -47h-47q0 33 -35 47v35l-23 12 v-12q11 -22 11 -35h-23v35h-12q-23 0 -23 -35h-12l-58 58h-12q0 -35 -23 -35t-23 24v23h70v47q-87 -10 -129 -82h-23zM1252 1044l-12 -23q24 -4 24 -23h-12l-23 11v-35h35q0 35 46 35v35l-23 -11h-12z" />
<glyph unicode="p" horiz-adv-x="1512" d="M797 1571h35v-24q0 -11 -12 -11q12 -18 12 -70l35 23q61 -47 82 -47q7 45 70 70q11 0 11 -11q12 0 12 11l70 -11v-12q0 -23 -35 -23q0 -18 47 -35v11q-12 0 -12 12l23 12h47v-35q0 -24 -70 -24v-35h23v-46l-11 -24l70 35h11q12 0 12 -11l23 11q35 0 35 -35q38 24 59 24 q0 -12 11 -12l-11 -23v-12h23v-47h-23v-12q46 0 46 -23t-23 -23l12 -24v-35q41 0 58 -116q35 0 35 -24v-11h-35v-12l23 -35v-23q-26 0 -35 -47q-23 -4 -23 -23v-12q29 0 35 -47q-35 0 -35 -23h-12l-23 12l-152 -164l59 -11q22 11 35 11v-23q-40 0 -70 -35h-12l-35 23 q0 -11 -12 -11l12 -24v-11q0 -24 -58 -24l11 -23v-12h-23q-23 0 -23 35h-12v-35l-58 12q-12 -20 -12 -47h-35q-13 0 -128 -23q-8 35 -94 35h-11l11 -23v-12q-58 0 -58 -47q-50 0 -70 47q-20 39 -70 47q0 11 -12 11q-11 -61 -11 -70h-35q0 47 -70 70h-12q0 -11 82 -105h-24 l-35 24h-23v-35l35 -47q-12 -35 -23 -35q-23 12 -35 12l11 -24v-35l-11 -23h23v-70q-24 -47 -58 -47v-11l23 -35h-23q0 -23 46 -105l59 11q0 -21 -94 -70v-11q-140 15 -140 93h47v12l-12 23l-23 -12h-12q0 35 -58 35l12 -23v-12q0 -23 -24 -23l-58 12q0 11 12 11l-35 70 q58 46 58 94q-39 0 -70 151q39 47 82 47q-12 20 -12 47l-23 -12q0 23 -59 93v24q13 0 35 11q23 -11 35 -11v70h35v23l-46 35q-47 0 -47 23v12h47v12l-12 23q70 12 70 23l-12 24q12 22 12 35h-35l12 -59h-35q-16 1 -47 59q58 35 58 58h35q0 -35 59 -58v-12h11q24 0 24 23 q-7 35 -82 35v24h35q-35 29 -35 46q-23 -3 -23 -23q11 0 11 -12h-46q0 36 -12 82q12 0 12 12h-12q0 -12 -12 -12l-11 23q0 12 11 12l-11 23v35q39 0 58 59h23v35h-11l-24 -12l-23 35v12h23l-23 46q12 21 12 47v12h-24v23q0 24 59 24l-12 23l12 23v35q11 0 11 12 q-11 22 -11 35q11 0 11 12h-23v35l35 -24q0 12 12 12q0 -12 11 -12q0 20 82 35q12 35 70 35l12 -23v-23l-47 -12v-35q12 0 35 -12q0 24 35 24v35l-12 58q24 0 24 35h23v-23l58 11q23 -11 35 -11v23h24q23 0 23 -70h47l-12 23q0 47 128 47q4 -23 24 -23q58 0 58 35zM214 1337 q0 -20 -35 -58q3 -23 23 -23h12q0 58 46 58v12q-26 0 -46 11zM505 1291q24 -38 24 -59q-9 0 -94 -47q24 -38 24 -70l-47 -11q0 -8 58 -59q-46 -105 -81 -151q23 0 70 -24v-35h-35v-58l35 -47v-11q0 -12 -12 -12l12 -23v-12h-24v23h-46q23 -47 23 -70h12v24h23v-35 q35 0 47 81h11q83 0 129 -23q58 12 58 47h70q0 -47 23 -47q24 48 24 70h23q23 0 23 -58q16 0 59 81q23 0 46 47q33 0 140 82h24v35q0 81 -59 81l12 82q0 18 -70 58v24l-35 -24h-35q0 13 -12 35l-23 -11q-38 23 -70 23v-23h-23q-24 0 -24 35h-11v-24l-59 12l24 59h-24 q0 -36 -23 -36l12 -23v-12h-12l-23 12q-21 -12 -47 -12h-12v35l35 47q-31 0 -70 24l-58 -12q0 12 -12 12zM354 835q0 -29 -24 -58q19 0 47 -23l12 23q-24 0 -24 23v12h24q0 23 -24 23h-11zM727 555v-70q4 -23 23 -23h12v12l-23 81h-12z" />
<glyph unicode="q" horiz-adv-x="1838" d="M844 1585h23v-81q-28 23 -47 23v35q4 23 24 23zM692 1574h70q0 -54 58 -70v-12h35q29 23 47 23q70 0 70 -70q23 12 35 12t35 -12l70 12h12q0 -12 -12 -12l12 -58v-47h11q6 0 47 12q21 -12 47 -12q0 12 11 12v-23l-11 -24h23q0 -12 -12 -35v-58h-11q3 -23 23 -23 q23 11 35 11v-23q0 -12 -12 -12l12 -23l-12 -24l24 -11q0 -59 -70 -105q23 -43 23 -94l23 12h12v-35q0 -35 -47 -35v-12l35 -46q-8 -70 -23 -70h-35l-12 -59l24 12h11v-35q-58 0 -58 -12q0 -11 47 -70l-12 -81q47 0 47 -24q-12 -20 -12 -46q23 -4 23 -24v-11q-70 0 -81 -59 l11 -23v-58l24 -12q0 12 11 12l12 -59q-58 -15 -58 -35l35 -23h11l82 12l-12 23q0 29 105 70h24l23 -12q0 15 105 70l47 -23l58 23q105 -58 105 -116v-24q-58 0 -58 -23q0 -12 -12 -35q38 0 82 -58q0 -24 -23 -24h-12q-12 0 -12 12q-65 -16 -93 -35l-24 12l-11 -47 q-59 0 -59 35l-35 -23l12 -24v-23h-12l-23 12q0 -35 -23 -35h-35q0 -30 -94 -59v-11q-70 8 -70 23q-22 -12 -35 -12l24 -35q0 -23 -24 -23l-58 12l12 23q0 23 -24 23q-46 -6 -46 -35h-12l-23 12q-12 -35 -70 -35q-11 0 -70 47l-82 -12v23q0 24 35 24v35l-35 46v35 q35 0 58 59h35l-11 23l-47 -23q0 12 -12 35v35h-23v11q47 31 47 59l11 23q-16 0 -35 35v47h35v11h-35l12 24h-12q0 -17 -35 -35l-23 11h-35q0 24 -23 24v-24q11 -22 11 -35h-58q-52 47 -82 47l47 47q-35 0 -82 11q0 -70 -23 -70h-35v-11h-35q-41 42 -105 46l-12 24v11h24 l-12 24q0 23 35 23v12q-21 0 -35 35l-82 -70q0 66 -140 105q0 62 59 93v12h-12l-35 -24q-51 35 -82 35v24h47v11q0 15 -82 47v47l70 -12h12v12q-97 46 -117 46v47q0 12 12 12l-12 23v12q99 0 105 46l-23 12q0 -12 -12 -12q0 24 -23 24h-12v-24q-17 0 -35 35v24q50 0 70 116 l105 59l12 23h-82v35q4 24 24 24q22 -12 35 -12q24 59 105 105q0 17 35 35l58 -12q0 117 93 117q12 0 12 23h12q23 -3 23 -23l23 12h24v-24q16 0 35 70q23 0 58 59zM797 1247q0 -47 -23 -47h-12q-23 0 -23 35h-35q0 -46 -59 -46q0 23 -23 23q0 -47 -23 -47l11 -23v-12 q-11 0 -11 12q-35 -24 -82 -24v-81l-23 11h-12q-23 0 -23 -35l11 -23q0 -35 -46 -35l11 -82q-35 -23 -93 -23v-35h12q15 12 58 12q12 -21 12 -47h-35v-47q35 0 35 -23l23 12q56 0 82 -82q58 -23 58 -47h12l35 24h23l12 -59h35q0 46 58 94q93 -24 93 -82q-11 -23 -11 -35 q67 -70 81 -70l12 23q-47 0 -47 35l12 59q-17 0 -35 35v23l58 12v-24q24 0 24 24h-24v11q0 24 35 24q-9 81 -70 81v24h70v46l-23 -11h-12q-23 0 -23 23v23h70q0 70 -35 70v12q27 70 35 70q0 18 -58 70l23 47l-23 -12h-12v59h35q0 15 -105 46q0 12 -12 12h-23z" />
<glyph unicode="r" horiz-adv-x="1407" d="M377 1465l12 -59h-12l-23 12q0 -47 -24 -47h-11l-12 47q12 47 70 47zM925 1465q24 0 24 -47h58q23 -4 23 -24l24 12h23l-12 -58l47 -35l82 23q3 -23 23 -23q0 11 12 11v-70h-24q0 -15 105 -46v-24q-11 -22 -11 -35l23 -11l23 11l12 -23q0 -14 -93 -47l11 -23v-12h-11 l-24 12q0 -17 -58 -35q12 -23 12 -35q-74 -50 -152 -58v81l-70 24v35l12 23q-32 0 -70 23q0 -23 -24 -23q-64 12 -93 12q0 -18 -70 -59l-23 -58h-24v23h-23q0 -24 -35 -70v-11h-23q0 35 -35 35l-35 35h-24l12 -24v-11q0 -24 -23 -24l11 -23v-47h-46l-24 12v-23q35 0 35 -24 v-23h-35v-12h24v-11q0 -24 -24 -24l-46 12h-12v-12q47 -5 47 -35v-58l-59 -12q0 12 -11 12v-47l11 -23l24 12h23q0 -18 35 -47v-35h-23v-12h35v-23h-12l-23 12q0 -35 -35 -35h-24v-47q70 0 70 -35v-35l-23 -35v-12h23l-23 -35v-11h23l-11 -59v-58h-24v-23h24v-24h-47l-23 12 v-23h-12v23h-35v-35h-35v23h-23q0 -46 -24 -46h-46l-59 46v12l-58 -12v35q0 17 35 35l58 -35q17 0 35 35q0 16 -70 47h-35v-23h-11q0 17 -24 105q59 0 59 70q46 0 46 58l24 -12v24l-47 35v35h35v-35h12q0 29 23 58v12h-12q-38 -24 -70 -24h-23q0 44 -23 70h23v24h-35v23 q14 0 82 35v23q0 24 -24 24h-58v11q0 12 12 12l-12 23q0 37 47 94q-47 0 -47 35v23q35 0 47 70q46 0 70 47q-53 0 -70 11q11 35 23 35l-12 24l12 81q-39 35 -70 35q0 35 105 35v47q-58 0 -58 129q29 0 58 23v-47h-23q0 -40 81 -58l12 23h-23q35 29 35 47h46l35 -105 q-17 0 -35 -47h12l58 12q4 -24 24 -24q0 12 11 12q12 -22 12 -35h35v23l-12 24h70l24 -12q0 32 70 58v12l-12 23q18 12 70 12l-12 23v12l35 -23h35l12 47q15 0 93 -36q24 0 47 59q23 -12 35 -12q4 24 23 24zM1182 1219v-11q0 -20 58 -35q23 11 35 11q0 10 -35 35l-23 -11 h-12zM1182 1161l12 -58h-35v-24q81 16 81 47l-46 35h-12z" />
<glyph unicode="s" horiz-adv-x="1454" d="M937 1546h12v-35h58v-46q23 0 23 58h12q75 -105 93 -105q0 -24 59 -24l-12 -23q12 0 35 -12q4 24 23 24h12v-24q-35 0 -35 -23h12l23 12q38 -24 58 -24v47l-23 -12q-27 0 -35 59l23 12h12v-24l23 12h12q0 -47 58 -47q-11 -46 -11 -82h-12l-58 12v-23q35 0 35 -12l23 12 q47 -18 47 -35h-24q-11 0 -11 11q-21 -11 -47 -11l12 -24l-12 -23l-58 23q-35 -11 -35 -23q11 -22 11 -35h-23v23q-17 0 -47 -58l-23 12q-23 -12 -35 -12l12 23v24l-35 -24q-59 12 -59 47l-23 -12h-23v35h-12q0 -46 -35 -46h-47q-31 0 -70 23q0 -17 -35 -35l-58 12 q0 -27 -70 -35q0 -16 -58 -59q-35 0 -35 35h-24v-11l12 -59l-23 -11h-24l-35 23q0 -12 -11 -12l11 -23v-58q27 0 175 -70q4 23 24 23h11q66 -47 82 -47q23 27 23 70h24q0 -19 23 -35q15 12 58 12q0 -93 94 -93q0 11 35 23l46 -23q0 35 94 35q23 -48 23 -70q-17 0 -35 -35 q4 -24 23 -24q4 24 24 24q60 -35 140 -59v-70q-26 0 -35 -46q-18 0 -35 -47h11q0 12 12 12l70 -59h35v-35q0 -23 -23 -23h-12l-35 23h-12v-11q0 -12 12 -12q-12 -105 -35 -105h-23l11 23q0 24 -23 24q-23 -12 -35 -12l35 -47v-11l-23 -35l23 -35v-35h-12q-27 0 -46 70 q-18 0 -47 23h-12v-23q39 -24 47 -24v-58q-35 0 -35 -35q-47 -23 -47 -58h-23q-23 0 -23 58h-35q-41 -39 -59 -105l-70 -12q0 50 -70 82q0 -38 -46 -47q11 -22 11 -35q-46 -31 -46 -58h-24q0 70 -23 70q-12 -70 -58 -70l-12 23l12 47q-24 38 -24 70v12h24v23 q-86 -30 -94 -93h-35q-26 33 -93 70l-35 46q-12 0 -12 35v12q35 0 35 23q-64 12 -93 12v23q0 29 117 35v35h-12v-23h-23v23q0 18 46 35l47 -11q20 11 47 11q0 -11 11 -11l-11 23v12q3 23 23 23h35q0 -82 93 -82l24 12q20 -12 46 -12h12q0 19 23 47l59 -12q34 0 93 47l-12 23 v12h12l35 -23l35 46v12q-20 0 -105 82q-20 -12 -47 -12v12l-23 -12l-35 23h-58q-23 -23 -70 -23l-12 58h-12q0 -58 -23 -58h-23q-24 0 -24 23l-23 -11h-23v46l-59 -11l-70 105q-81 0 -81 -35h-47q0 11 12 11q-12 61 -59 129q-22 -12 -35 -12v-23h47v-35q0 -24 -23 -24h-35 q0 12 11 12q-46 59 -46 93v24q46 0 46 70q-23 0 -23 11l-23 -11h-12v23l-23 -12h-35q0 24 35 24q0 23 -59 23q19 117 94 117q0 -12 11 -12q0 35 24 35l23 -12l12 24q-24 0 -24 23v12q24 27 24 81h11l24 -11v23h-24v12q4 23 24 23q54 -15 58 -47q19 12 58 12v12l-23 35v46 q23 0 47 47q35 0 35 -35q147 82 175 82q0 -12 11 -12l-11 24q11 22 11 35h24q23 0 23 -35q43 0 117 70h23q0 -46 82 -70q16 70 58 81zM1205 1488v-35h-35l12 -23v-12q-70 12 -70 35v23q29 0 93 12zM459 1336q0 -35 46 -35v-23h-11q-23 11 -35 11l-24 -35h12l35 24 q27 -70 47 -70h11v23q-12 0 -35 12q12 35 24 35l46 -24v24q-20 0 -116 58zM120 1208h70v-12q-23 -28 -23 -47h-35q-23 0 -23 24q11 22 11 35zM342 659l35 -23v23h23q0 -23 24 -23v-23h-24l-58 11v35z" />
<glyph unicode="t" horiz-adv-x="1220" d="M447 1675h12v-35q-47 -4 -47 -47h58q47 18 47 47h35q24 0 58 -94h12v-23h-12l-35 23v-11h12q-23 -54 -47 -59h-23l-23 12v-23q40 0 93 -35q0 -27 -12 -47l12 -24q-12 -20 -12 -46q24 0 24 -12l23 12q15 -12 58 -12l12 23q93 0 93 -81h12v11l-12 70q47 0 47 12 q35 -12 35 -23q18 0 70 58h23q24 -3 24 -23v-12h-24v-35l35 23h24q11 0 11 -11q15 0 59 58h11q12 0 12 -12l23 12h12v-23h-35q0 -24 35 -24v-35h-23v24h-35v-47q16 0 58 -47h12q-12 -46 -70 -46q0 11 -12 11v-58q35 0 35 35q53 -22 58 -47l-11 -23q-23 12 -35 12h-82 q0 8 -58 46l-24 -35v-11q13 0 35 -12q4 23 24 23l11 -23v-58q0 -24 -23 -24h-12l-23 12q-12 -20 -12 -47h-11q-39 47 -105 47q0 -12 -12 -12q0 27 -12 47q-25 -4 -70 -35l12 -23v-12q0 -23 -23 -23h-59v-35h-35v35h24q0 18 -47 46q0 -46 -58 -46l11 -59q0 -12 -11 -35 q11 -22 11 -35q-41 -46 -81 -46v-12q105 -21 105 -47v-35q-24 0 -47 -35l58 -70v-35q0 -26 -11 -46q11 -21 11 -47q0 -17 -35 -35h-23v35h-35l-12 -47h82v-11q0 -24 -23 -24q11 -19 11 -58h59q23 -4 23 -23l23 11l47 -11q93 0 93 70q12 0 12 35l58 -12v35h47v-47h-47 q82 -93 82 -116h23l35 46q0 12 35 12l-11 58h11q30 -35 47 -35v-35h-35l12 -58l-12 -47h12l58 12v-12l-12 -81h-35q-11 0 -11 11l-24 -11h-23q-23 0 -23 23t35 23v24h-24q0 -35 -58 -47q0 12 -12 12v-12q70 -27 70 -47q-11 -20 -11 -46l-24 11h-11q-82 0 -82 -81 q12 0 12 -12q-82 0 -94 -12l-105 47q-20 -12 -46 -12q0 -35 58 -35v-11q0 -24 -23 -24l-24 12q-20 -12 -46 -12v35h-24v-35q-61 0 -116 82v12l11 23q-18 0 -46 23q0 -23 -24 -23l12 -23v-12q-39 0 -58 -12v82l23 35l-23 12l-35 -47q-19 0 -47 47v11q17 0 47 47h11 q35 0 35 -35q24 0 24 23q-85 53 -117 59q-12 29 -12 151q24 0 24 24v11q-59 0 -59 35l12 24q-23 0 -23 23v12h23v-24h12q0 35 23 35l-12 24v23h47v12h-35q-23 -12 -35 -12q-16 66 -35 93h35q-12 59 -47 59v23q0 23 94 23v12q-45 0 -59 82l12 58l-35 23q0 -38 -23 -93h-24v12 q12 22 12 35l-35 23q0 -47 -58 -47q-24 28 -24 152l24 12q0 -47 23 -47v47q-23 28 -23 46l-24 -11q-26 0 -35 58l35 23q0 -11 12 -11l-12 23v12q4 23 24 23l11 -23l-11 -24q23 0 23 -23h12v35l-12 58q16 0 70 -70q4 24 23 24q-23 38 -23 58q13 0 70 58l-12 24q0 58 35 58v12 q-35 51 -35 82q12 0 12 11l-47 12q12 42 59 70q0 35 35 35q23 0 46 70h35l24 -12q3 24 23 24zM820 298q-46 -31 -46 -59v-11l-24 11l-23 -11q15 -70 35 -70l12 23h-24v35h24v-23h11q16 0 35 70q24 0 24 23z" />
<glyph unicode="u" horiz-adv-x="1547" d="M424 1371q28 -23 46 -23v-12l-35 -35l24 -47q0 -46 -47 -46q0 -59 58 -59h12l-12 -81h-23v23q-23 -4 -23 -23v-12q46 -59 46 -70h-70l12 -58q-19 0 -47 -70q0 -38 94 -70v-24q-47 0 -47 -23q23 -4 23 -23v-35l-11 -24q15 0 46 -70v-35h12q0 -23 -23 -23h-59 q12 -23 12 -35q-23 -4 -23 -23v-12h23v23l58 -11q12 22 12 35h23q17 0 35 -59q30 0 47 -46l23 11q23 -11 35 -11q4 23 24 23q0 -35 23 -35q58 0 58 58v12h24v-23h23q54 35 93 35q47 -12 47 -70h23l-11 58q0 20 23 58q-12 23 -12 35q0 82 70 82q12 -23 12 -35h47 q-21 117 -47 117q-23 0 -23 23q4 32 46 58q0 47 24 47v12l-12 58q17 0 35 35q-23 48 -23 70q17 47 35 47h11v-24q23 12 35 12q0 57 -46 82l-24 -12h-23v12q47 41 47 81l-12 82h35v12h-35v35h70l35 -24l35 24h12q0 -53 46 -82h12q0 36 12 82q17 0 58 -70q38 23 58 23 q0 -35 47 -35q0 -12 -47 -35q12 -15 12 -58h-12l12 -82l-23 -35q23 -4 23 -23q-18 -46 -70 -82q47 -59 47 -93v-12q-41 -12 -47 -12q-23 29 -23 47h-12v-35q23 -12 35 -12l-12 -23q47 0 47 -47h-12l-23 -11l12 -59v-23q-59 -45 -59 -70l-58 -23v-12q49 0 58 -93 q-11 0 -11 -12h23v-23q0 -10 -70 -70q60 0 93 -59l-11 -58h23q-12 -35 -23 -35l11 -23v-12h-46v23h23v12q-58 0 -58 47h-24l24 -35q-12 0 -12 -12q35 0 35 -23v-12h-47v-12l12 -58h-47q-11 0 -11 12l-24 -12l-23 12l-23 -12q-23 12 -35 12q0 16 35 35q-70 81 -70 105 q0 23 -12 23q-45 0 -93 -70q-50 -35 -70 -35q11 -23 11 -35l24 12h11v-35h-23q-12 0 -12 11l-23 -11h-23q-24 0 -24 35l-23 -12h-35l-23 12v-24l-59 12v23l12 24h-23q0 -47 -70 -47q0 12 -12 12v-12q23 -38 23 -70l-23 -12h-23v59h-12q-23 0 -23 -35q-27 0 -47 11 q-20 -11 -47 -11q-30 75 -58 81h-12l12 -23h-47q0 35 -35 35l12 58q-35 12 -35 70q35 0 35 24q-23 0 -70 70l12 -24v-11q0 -24 -24 -24v12q-38 -23 -70 -23v11q0 12 12 12l-23 47l23 11h23q0 -46 24 -46l11 23q-23 0 -23 23l12 24l-24 -12q-23 0 -23 23q0 12 12 12 q-12 23 -12 35h-23v-35h-24q-23 0 -23 23q35 0 35 24v11h-23l11 24h-11q-23 -12 -35 -12l-12 23v12q41 0 58 35q0 52 -93 105l-12 23q27 0 47 47v23q-35 0 -35 24v11l23 35q-23 0 -23 24v11h23v70q0 24 35 24q0 26 -11 46q35 72 46 257l35 23h35q0 -11 -11 -11 q11 -21 11 -47q24 0 24 35l23 -12h23l-11 59l46 -24q21 12 47 12q12 -22 12 -35h23l-12 58zM1252 473l-12 -24q53 0 70 -11l12 23v23h-12l-23 -11h-35zM284 321l11 -23v-24h-35v-11h24q0 -24 -24 -24h-35v12q16 48 59 70zM704 251q35 -38 35 -58h11q0 35 12 35 q-12 20 -12 46q-28 -23 -46 -23z" />
<glyph unicode="v" horiz-adv-x="1570" d="M319 1476v-23l-12 -23h82v-36q0 -23 -35 -23v-12q35 0 35 -23v-35q-70 0 -70 -23h11q0 11 12 11v-23h47q0 42 46 58h12v-58q0 -23 35 -23q-6 -47 -35 -47l12 -47q0 -35 -59 -35l24 -35l23 12h12q23 -4 23 -23v-24h-23v-11h11q21 11 47 11h12q0 -19 23 -35 q-12 -35 -23 -35q11 -81 58 -81q1 -27 70 -82v-23q-12 -35 -23 -35q4 -28 70 -82h11q31 47 59 47q3 23 23 23l-12 58q12 23 12 35h47q0 -26 46 -46v11q-11 0 -11 12q16 0 35 35l-35 47l23 46q-12 23 -12 35q35 0 35 35h47v-23h23l24 70q-12 23 -12 35q70 70 93 70l-23 35v70 h12l23 -12l23 59h-23v23l58 12l-11 58q6 0 46 12q23 -53 47 -59h12v12q0 23 -35 23v12q0 17 35 35h35q0 -47 70 -47v24h23q70 -44 70 -59q-12 0 -35 -11v23h-12q0 -23 -58 -23q0 -12 47 -35l23 11q19 0 47 -46q46 0 46 -47h-11l11 -23v-12q-64 0 -105 -70h-23l23 -35v-12 q0 -23 -23 -23q-18 0 -47 47q-22 -12 -35 -12v-23h24v-35h-24v-35q0 -38 -93 -164h-12q12 -13 12 -70q-23 12 -35 12q0 -11 -47 -70q24 -4 24 -23q-13 -59 -94 -59l12 -23v-35q-82 -23 -82 -47v-11l24 -35v-24h-12l-23 12q-21 -12 -47 -12q0 12 -12 12q0 -23 -23 -23v-12h23 v-35q0 -23 -58 -23v-12l70 -47q0 -23 -23 -23q0 12 -12 12q0 -18 -70 -117q-66 0 -82 70q-12 0 -35 12h-11v-12h23v-12l-93 -81q-19 0 -47 46v24q0 23 35 23v12h-12l-58 -12v12q0 23 35 23q0 23 -23 23h-70v70q-24 47 -59 47v12q30 42 59 128q-47 -6 -47 -35h-12l-46 35v-23 h-24v35l70 11v12q-23 0 -23 12l-23 -12h-35q0 35 -35 35v35h23v12h-23l11 58v12l-11 23l-24 -12q-46 18 -46 35l11 70q-11 0 -81 164q-35 0 -35 105q29 35 46 35v23h-11l-24 -12v47h-23v-70q-56 0 -82 82q12 22 12 35l23 -12h12l-23 47q23 0 23 23h23l24 -12l23 70h12 q46 -18 46 -81h24q23 0 23 23v12q-35 0 -35 82l58 -12l-11 23v24q12 0 35 11zM832 648l-23 11h-24q35 -29 35 -46h47q0 46 23 46h12l-23 35q-47 0 -47 -46zM902 648v-35l12 -59q-12 0 -12 -11h12l11 23v23l-11 59h-12z" />
<glyph unicode="w" horiz-adv-x="1956" d="M1812 1465v-35q-35 0 -35 -59q0 -79 82 -93q0 -29 23 -59q-70 0 -70 -70h12v-11q0 -12 -12 -12l12 -23v-12h-35v-35l23 -35v-12h-23q0 19 -23 35q-28 -4 -82 -70h12l35 24l23 -35v-12q0 -18 -47 -47q0 12 -11 12l11 -23q0 -12 -11 -12l11 -23v-70h-23q0 58 -23 58 l-12 -23l23 -35l-11 -24h35q-9 -100 -47 -151q0 -29 -35 -59v-116l-59 11v-46l47 -35v-35l-58 11h-35v-11h23v-35h-58v11l23 35q-47 0 -47 24h-11q-47 -24 -47 -59h-70q-70 37 -70 59h-12l-46 -47h-12q-15 0 -47 70v35q4 23 24 23l-12 24l12 23q0 82 -152 82l-23 70h-47 q23 -38 23 -59q-41 0 -70 -93q-42 -35 -93 -35q0 23 -23 23q0 -27 -35 -70q58 0 58 -23v-23q-23 -29 -23 -47h-47v58h-23v-23l11 -58q-17 -12 -70 -12l12 -58v-12q-30 0 -82 -35h-23v47h-82q-17 0 -35 46h35v24q-70 0 -70 -82h-23q0 23 -47 58v12q35 0 35 23l-58 -11h-12 q-23 0 -23 23q16 82 47 82l23 -12h12v12q-105 43 -105 70v11l11 59q-35 0 -35 23v35q0 12 12 12l-12 23v35q-22 -12 -35 -12v12q12 20 12 47q-23 0 -23 23q26 0 35 47h11l-23 35v23q4 23 23 23q-15 117 -116 117v23q0 59 58 59q-24 46 -58 46v35q0 30 46 35l-23 35l23 35 h-11q-21 -11 -47 -11q0 11 -12 11v-35q-23 0 -35 82l24 12h70q0 -47 23 -47l23 35v12h-23v35h35q0 -26 12 -47q22 12 35 12h35v11h58q17 0 35 -35l23 12h12l23 -12q-11 -130 -46 -163l23 -58l23 11q31 -7 59 -58q0 -12 -12 -12l12 -23q-7 -67 -35 -105q66 0 105 -128 l-24 -47l59 -23q18 105 58 105q23 63 23 93l59 -12v-35l-12 -23h47l-12 23q12 23 12 35l23 -11h35q-35 58 -105 58v23q0 15 70 59v-35q27 35 82 35l-12 23v12l82 11h23q23 0 23 -35h12l47 35h11q24 -3 24 -23v-12h-12l-23 12l-12 -23q48 -24 70 -24q12 35 70 35 q0 -70 70 -70l-23 -46q11 -23 11 -35q-23 -4 -23 -24q0 -63 70 -70l47 82q73 35 116 35v35l-23 -12h-23q-24 0 -24 24v11q35 0 35 59l-23 35v23h58l35 -23q23 11 35 11l-11 24q0 23 35 23l-12 23l12 24q-42 0 -59 70h24v11l-12 24q12 0 12 11l23 -11h23l-11 23q0 45 58 105 v12l-58 -12h-12l12 59h11q24 0 24 -36h11q0 59 24 59h23q47 -24 47 -59h23l-11 24q58 0 58 47h58zM1894 1418l12 -24q0 -23 -35 -23l11 -23v-24l-46 -11q-23 11 -35 11q0 94 70 94h23zM377 998q0 -47 -35 -47v-12h35q7 47 58 47v12h-58z" />
<glyph unicode="x" horiz-adv-x="1500" d="M272 1359q93 -7 93 -23l24 12h58q23 -4 23 -24q-11 -22 -11 -35q17 -46 35 -46v23h23v-70l-12 -23h59q0 -32 70 -47v-70q3 -23 23 -23v46h58q12 -78 70 -105v12q-11 0 -11 12q47 58 81 58q18 -47 35 -47q35 64 35 117l47 -23q31 57 47 58h46l35 -23q0 14 82 46 q0 24 12 24l-12 23q47 47 47 70h23l23 -12q0 47 12 47q47 -12 47 -70l-59 12v-24q53 0 82 -46v-47l-23 -35v-12l70 59q20 -12 46 -12v-23h-23q23 -38 23 -59h-46l-59 12q0 -23 -23 -23q23 -43 23 -94q-105 -79 -105 -93q-35 -38 -35 -58h-23l-70 58q0 -23 -35 -23 q0 -24 35 -24q0 -35 -82 -116q0 -24 35 -24v-35l-23 -35v-11l23 11q24 -3 24 -23l58 12l23 -12l-23 -128l47 -59h11q0 35 24 35q23 -3 23 -23v-23h-23v-24l58 -11v-12q-23 -27 -23 -70l-59 12v-94q-116 -58 -116 -116v-12h-24q0 35 -11 35l11 58v35l-58 12h-23l35 -47v-35 h-35q0 82 -47 82l12 82q-70 11 -70 35v35q-24 0 -24 23v23q35 0 35 24q-116 0 -116 58q-47 0 -82 23q0 -46 -58 -46q-23 11 -35 11q0 -23 46 -23v-58q-58 0 -58 -24v-23h-47l-11 58h-12l-23 -11q23 -60 23 -94q-39 -46 -105 -46l-58 11l-12 -23q23 -12 35 -12v-46 q-39 0 -47 -70h-58q0 35 -23 81l-24 -11h-11q0 27 -47 58v12h-12q0 -27 -46 -59h-12l-35 94h12l58 -12q0 12 12 35q-94 32 -94 82q94 0 94 93q35 0 35 35q0 23 46 23q12 -22 12 -35q47 18 47 35v59q93 0 93 81l35 -23l58 23v-23h24q23 0 23 58l23 -11h12q0 16 -35 35v-24 h-47v47h24l23 -12l-12 24v23h24v12q0 23 -24 23h-35v-35h-58q0 12 12 12q-34 116 -105 116v12q0 12 11 12l-11 23v12q46 0 46 23l-35 23q0 -23 -23 -23h-12q-31 0 -35 58h-35q-60 0 -70 35q10 54 70 94l12 58h23l24 -12l11 24q-23 0 -23 23l12 23h-12l-23 -11v35q23 0 23 11 zM1089 1243h46v-59h-93v24q47 0 47 35z" />
<glyph unicode="y" horiz-adv-x="1279" d="M1019 1418h11q0 -27 59 -35q0 -24 23 -24v-23q-43 -4 -70 -47l47 24q0 -12 11 -12q0 12 12 12l23 -94q-11 0 -11 -11l23 -12q8 58 35 58h12q35 0 35 -46q-8 -35 -70 -59l11 -23v-23q0 -12 -11 -12l11 -23v-24q-35 0 -35 -23v-35q-20 -12 -46 -12q0 17 -35 35 q-17 0 -35 -35q70 -24 70 -93h-47q-70 -7 -70 -35h47q0 -18 23 -47v-11h-47l12 -24v-11h-35l-12 46h-11v-11q0 -59 35 -59q0 -81 -117 -81l23 -35l-11 -24l11 -46q-11 -51 -58 -70h-12v35h-46q0 -23 -24 -82q12 -20 12 -47q0 -17 -47 -35l12 -23q0 -101 -117 -117h-11 l23 -35v-11q0 -117 -105 -117l-12 -70h-11l-24 12v-12l12 -23h-23q-29 23 -47 23v12q0 23 47 23v47q-13 0 -35 11q-35 0 -35 -35h-35l-47 70l-23 -11q-24 0 -24 23v23q0 28 82 35q-12 21 -12 47h-11q0 -35 -59 -35v12q0 89 82 151q39 94 58 94h35q24 0 24 -35h23v23 q-35 0 -35 23v59q0 29 47 35q0 64 -82 140q0 93 -93 93v-12l11 -46h-23q0 35 -47 35q0 11 12 11l-12 24l24 35v11h-35l-24 -11l-11 70q24 5 46 58q-11 23 -11 35l-105 -12q0 47 -47 47v35q0 68 -47 117q70 74 70 93q-11 23 -11 35l23 12q23 -12 35 -12q0 12 12 12 q0 -35 58 -47q19 -82 58 -82q0 70 94 70h23q3 -105 70 -105v-11l-12 -24q12 0 12 -11q-35 0 -35 -47l-35 23l-12 -23q24 0 24 -23l58 11q0 -25 93 -58q26 -78 70 -93q82 28 82 70q17 0 35 58q17 0 35 58l-12 24v46q35 0 35 35q0 56 117 82q0 12 12 12h70l11 46 q-28 24 -46 24q11 70 35 70z" />
<glyph unicode="z" horiz-adv-x="1465" d="M1182 1453h12v-12q-12 -22 -12 -35l23 -12h70l12 -58h-23v35h-12l-12 -58q24 -82 47 -82v-23l-58 -82v-12l23 -35v-11q-82 0 -82 -82q-29 0 -140 -35l47 -47v-35h-12l-58 12q-24 -97 -47 -105q-38 23 -58 23q0 -11 -12 -11l12 -24q0 -23 -23 -23l-24 12q0 -70 -70 -70 h-11l-24 11q0 -11 -46 -46q-23 11 -35 11q0 -17 46 -35v24h35q18 0 35 -47q-23 0 -23 -23l-58 11q0 -35 -94 -35q0 -23 35 -23l59 12l93 -82q93 47 140 105h12q83 -12 93 -12q23 12 35 12q23 -12 35 -12q4 24 23 24h12l-12 -24q4 -23 24 -23q0 19 70 58q23 -3 23 -23v-12 q0 -23 -47 -23v-12q51 0 70 -46q62 -12 70 -12l12 58h58v-81h-23v-12l12 -23h-47l-23 11v-23q11 -23 11 -35h-35l-23 12v-24l12 -46q-24 -48 -24 -70h-11l-24 11q0 -23 -58 -23q0 15 -82 47v23q-19 0 -46 -82q-21 -11 -47 -11h-12q-11 0 -35 46l-23 -11q-11 0 -70 46h-12 l12 -23v-12q-23 -28 -23 -46h-24q0 30 -58 35q0 -59 -23 -59l-129 47l-23 12h-23q0 -37 -59 -70h-11q0 23 -12 23h-35v12h-12v-24q12 0 12 -11q-60 -24 -93 -24q-24 38 -24 59h-11q-24 -4 -24 -24q12 -22 12 -35l-35 -23h-12q-23 110 -23 117h-23q0 -24 -12 -24l12 -23v-12 h-35q-27 0 -35 59h35v-35h11v35q-11 0 -46 70q-61 58 -82 58v35h35v12q-12 0 -35 11q0 -11 -12 -11v11q12 35 24 35h35q3 24 23 24l-12 23v23l59 12q3 -23 23 -23h12q-24 38 -24 70v23l47 -12l58 12q0 -12 12 -12v47h-23l11 58l47 -23l-12 23v35q27 0 70 47h24l-12 -23h23 v-24l-58 -11l12 -59h23q0 59 58 59q0 -12 12 -12v12q-23 0 -23 23v58q49 38 58 94q55 23 93 23l-11 82h11l59 -47v-12l23 12l-12 23l12 24q0 20 -23 70q11 20 11 46h-35l12 -23q0 -23 -23 -23h-24l-35 23l-11 -58q-35 11 -35 23l-24 -12h-11q-12 65 -12 94h-12 q-23 0 -23 -47l-58 12h-12l12 -24v-11h-35q0 12 -12 35l35 23q0 -12 12 -12q0 27 11 47l-23 12q0 -47 -23 -47v23q-24 -3 -24 -23q0 -12 12 -12q-61 -81 -93 -81q-27 0 -47 70q-9 0 -70 11v24q50 0 58 46q8 0 59 47v23l-59 -11h-46v46h35l-12 24q12 22 12 35v11h-12v-23h-35 v35q47 0 47 23q27 0 81 -46q23 11 35 11l24 -11q22 11 35 11q0 -11 11 -11q0 11 12 11v-11q-12 -23 -12 -35h35l59 -12v23q-35 0 -35 24v58l81 -12l-11 24v12h23q8 -59 35 -59h12q0 70 81 70q0 -16 59 -58q98 58 105 58v-35q6 0 46 12l24 -12h35v-12l46 36q0 -36 12 -36 q23 12 35 12q12 -22 12 -35h11v23l35 -23h24q0 42 81 70q0 12 12 12zM1357 1196v-35q-35 0 -35 -35h-12q-16 0 -35 35q0 27 82 35zM540 823q12 -23 12 -35q-38 -12 -47 -47q11 0 70 47q-11 22 -11 35q23 0 23 23h-12q-35 -12 -35 -23zM750 554h12l23 -11q21 11 47 11v-46 q0 -24 -23 -24h-12q-23 0 -23 47l-24 -12v35z" />
<glyph unicode="{" horiz-adv-x="2060" d="M1112 1686q4 -23 23 -23v23h70v-35q-18 0 -46 -23q-24 0 -24 23l-70 -11q70 -53 70 -82l59 35q23 -4 23 -23v-12q-23 -36 -35 -82q12 0 12 -11q-35 0 -35 -24l35 -47v-70l-59 -11v-24q59 -3 59 -35q0 -35 -70 -35v-11q58 0 58 -24q35 -58 35 -81q-54 -24 -117 -24v-11h24 v-59h-59v59h-23q0 -30 -58 -35q-23 11 -35 11v35h23v12h-47q-11 -22 -11 -35q-12 0 -12 12l-23 -12q-17 0 -35 35l35 47v46l-35 -23h-12l-12 47l47 46h12l23 -11v35q-70 0 -70 46q-12 0 -12 12v12q82 0 82 23q0 105 -58 105q0 24 35 24v11q-24 0 -24 12q12 70 35 70 q62 -12 70 -12q23 12 35 12q0 -12 12 -12v59h-58v11q0 35 163 35zM1719 1523h23l47 -47q12 21 12 47h11l24 -12q0 12 11 12v-12l-11 -23q17 0 35 -47h-24v-35h24l-12 -23q58 -3 58 -35q0 -24 -23 -24q15 -53 47 -58v12l-12 23q0 82 82 82v-24q-24 0 -24 -11v-35 q-23 -4 -23 -24v-11h23q-35 -30 -35 -59h-58q-31 -35 -70 -35q0 -62 -58 -93q0 -23 -47 -23v-70q-23 0 -23 -24h-24l-23 12l-12 -23v-35l12 -24h-59l-11 47h-35l11 -23q-11 -21 -11 -47q17 0 35 -35v-12q-59 -45 -59 -70q-43 0 -70 -23h-58q0 58 35 58v12q-35 0 -35 35h-58 v-35h-47v12l12 23q-13 0 -35 12q-23 -12 -35 -12v12l11 23q-26 23 -70 23v47q82 -28 82 -70h12l23 12v-24h35v12q-47 0 -47 35q12 23 12 35h-23l-59 -12v35h35q12 0 12 -11q35 8 47 46h-47v24h35l-12 23q12 21 12 47l23 -12q0 33 94 58q0 59 70 59q0 -12 11 -12v35h24v-23 h23v11q-23 35 -35 129h12l35 -24h11v82h12l58 -12q25 47 59 47v35l-12 24q47 0 47 23zM214 1301q70 -35 70 -70h11v35h35q94 0 94 -70v-35h11l35 23q0 -26 59 -35l23 -35l-12 -58l24 12q0 -47 23 -47h12v-12q0 -16 -59 -35q0 -35 -23 -35l-23 12v-23h46l59 58q23 -4 23 -23 v-35l-23 -35h23v-35q0 -30 -105 -47v-12l23 -11h35q0 23 12 23q23 -12 35 -12v-23l-140 -12l-12 59l47 23q-15 58 -35 58q-31 -57 -47 -58l12 -23v-12h-12q-27 0 -105 47h-23v23l12 23q-59 0 -59 24q-38 -24 -70 -24q0 42 -81 105v24q22 11 35 11l-12 59q0 32 58 116l12 24 q-12 20 -12 46zM97 1126h12v-12q-8 -93 -35 -93h-12l12 23h-24v12l24 35q-12 0 -12 12zM599 1114h46v-46q-17 0 -46 -35h-12q0 9 -12 70zM995 1021h12q18 0 47 -47v-11l-24 11v-35h-93q-23 0 -23 24v23q46 0 81 35zM739 706l11 -23v-12q0 -23 -35 -23v-24l12 -81h12 q0 35 11 35l-11 23v12q18 0 46 23l-11 23q3 24 23 24t35 -70l-12 -70v-24h24q0 -23 -35 -23q3 -23 23 -23v23h23v-35h-23v-12l82 -11h11q-11 14 -11 70l70 11l11 -46q70 11 70 35q-23 0 -23 23v12h35q0 -13 12 -35l23 11h23l82 -11q0 11 12 11l11 -46h82v-35q-35 0 -35 -12 q12 -23 12 -35q-17 0 -35 -35q23 -47 23 -82h-12q-20 12 -46 12h-24l47 -47q-53 -22 -58 -46q0 -10 70 -70v-24q-26 0 -70 -70v-35q46 0 46 -46h-70q0 -47 -35 -47h-11l-12 58q47 18 47 35q-47 0 -47 24v11h-12q0 -10 -11 -93h-47l-58 93v12l11 23q-80 0 -105 94h-23v23h23 l-11 23v24q58 0 58 23v12q-12 0 -12 -12q-46 17 -46 35v12h70v11q-43 0 -70 82l-35 23q0 -23 -24 -23h-58q0 -26 -82 -47q-11 -60 -46 -93l-59 12h-11l-12 -59v-35h-23q0 39 -70 47v12q0 81 46 81q12 0 24 35h-47l-23 -70h-12q-23 0 -23 24q0 62 46 81l-46 59l58 70l58 11 q0 -11 12 -11v11l-12 24q-76 0 -105 -59h-23l-12 24q59 39 59 70q87 46 140 46q84 82 140 82zM1637 636h35v-35h-23v-12q58 0 58 -23l24 12h11q0 -82 59 -94q0 -39 81 -58q20 -23 47 -23v-59q0 -23 -23 -23h-12q-23 0 -23 35h-12q-26 0 -35 -105q35 0 35 -23v-12 q-26 0 -47 -12q0 35 -35 35v-11q0 -24 35 -24v-23q-26 0 -46 -35q-21 12 -47 12v11l12 24h-12l-58 -47h-36q0 54 -81 70v12l11 58q-22 12 -35 12q-22 -12 -35 -12q0 12 -11 12q0 -12 -12 -12q-58 90 -58 117q19 11 58 11v12q-58 0 -93 47q46 80 58 140h23v-12 q-11 -38 -11 -82l23 -11v11l-12 24l12 58h35q0 -35 58 -35q18 47 35 47h12l23 -12q12 23 12 35z" />
<glyph unicode="|" horiz-adv-x="509" d="M307 1698h35q0 -82 -35 -82v-11q0 -24 35 -24v-35h-47v-11q105 0 105 -35l24 -35v-24l-24 -35v-58q35 0 35 -59q-23 -3 -23 -23l23 -35v-23l-46 -70v-12q29 0 35 -47q0 -81 -59 -81q12 -23 12 -35q-12 -23 -12 -35h12q20 11 47 11q23 -3 23 -23q-12 -20 -12 -47h24v-23 q0 -17 -35 -35h-59v-35h-11q0 35 -35 35q35 -105 58 -105q12 0 12 -23h11v11q-11 23 -11 35l46 35h24q0 -39 -35 -93q11 -23 11 -35v-35h12q0 -58 -82 -58l12 -24v-35h-47v-11l47 -12q12 23 12 35h35q0 -29 11 -93l-23 -12l12 -58v-35l-35 -47l46 -35v-93q-51 35 -105 35 q-22 -12 -35 -12q-22 12 -35 12q-22 -12 -35 -12h-11v12h23v11h-12q-22 -11 -35 -11v11l12 24l-23 11v-46h-47l-12 46q12 0 12 12q-58 0 -58 58q19 12 58 12v12l-58 23v35q81 8 81 35v12l-23 -12h-58l-12 58q118 53 128 82q-17 0 -35 47l-23 -12l-70 58l12 59q-12 0 -12 11 h35v24l-23 35q0 35 23 93q-12 20 -12 47q0 26 12 46v35h12v12h-24v23q4 24 24 24l70 -12h11v12q-35 0 -35 23q23 12 35 12v11q-46 0 -46 24l11 23q-58 12 -58 23l-23 -11h-12v11q0 12 12 12l-12 23l23 35q-23 0 -23 24v11h23q0 24 -23 24q0 -12 -12 -12v35h24v23l-12 82 l70 35q-12 21 -12 47l-58 -12h-12v59q24 0 47 58l-12 23q4 24 24 24h35l11 -47h47l-23 35v23h23l35 -23v23q-12 23 -12 35l24 -11h23z" />
<glyph unicode="}" horiz-adv-x="1851" d="M470 1675h12l35 -24l-12 -23v-12h12l35 24h23q0 -13 12 -35q-12 -23 -12 -35l24 11q16 0 35 -35v-35l-47 -35v-23q62 27 82 82l-12 23v12h58q0 -44 35 -82h47v-12q-35 -45 -35 -70l35 -23h93v-35h12q35 0 35 70q58 0 58 -24l-11 -23q17 -47 35 -47v12h-12q18 47 35 47 l-12 23v47q24 0 59 58q11 0 11 24h24q46 -17 46 -59l24 12l-35 58v35h23l47 -58h35v23q0 24 -35 24v23q17 0 46 35q59 -23 59 -47h23l35 47q23 0 23 23h24v-58h-59v-35l70 -35v12q0 58 129 58l46 -70v-12q0 -23 -46 -23v-47q3 -23 23 -23q59 35 94 35q0 -28 70 -47l-12 -23 v-35q-23 -12 -35 -12q0 12 -12 12v-12q12 -20 12 -47q-47 0 -47 -58h47v23h12l70 -81v-12q0 -23 -35 -23q3 -24 23 -24q0 12 12 12v-35h-47q-23 0 -23 35h-70q0 -26 -12 -47q12 -22 12 -35h46v24h24q23 -4 23 -24q0 -23 -35 -23q0 -67 47 -128q-24 0 -24 -35h-35l-35 23v-12 q16 0 47 -58q-6 -31 -82 -70q0 -70 -23 -70l11 -23q-14 -59 -35 -59l-46 24l-12 -24q23 -11 35 -11v-24q-96 -116 -117 -116h-11v23h-35q0 -82 -47 -82h-23v24l11 23h-23q0 -29 -23 -58l70 -12v-23l-82 -47q-59 -82 -175 -82l-23 -58h-59l-35 23l-11 -23q0 -22 70 -58v-12 q0 -23 -24 -23h-46q-35 59 -35 93q-21 0 -70 -70q-12 23 -12 35h-12l-11 -47q16 0 35 -35h-35q-12 0 -12 12q-58 -12 -58 -70l-59 12v35q0 11 12 11l-12 24v11l24 35h-12l-23 -11q-23 11 -35 11q-23 -11 -35 -11v105h-24q0 -47 -58 -47v12q0 26 -58 35q-8 48 -70 116l11 24 q-75 9 -128 93v12q0 11 12 11q0 65 -94 70l12 59v58l-70 12v11q0 24 35 24q0 84 -70 93v23q0 27 12 47q-12 20 -12 47v46q-23 0 -23 12q11 23 11 35q-22 12 -35 12v11l12 82l-23 -12q-24 0 -24 24v11h59l23 -11v23q-47 0 -47 117l12 23l-12 23q24 94 94 94q3 -24 23 -24 q23 12 35 12l-23 35l58 12q4 -24 23 -24v12q0 24 -23 24h-70v58q0 12 12 12l-12 23v23h23v-35h12q0 38 140 59q12 -23 12 -35h11q0 58 70 58v82zM400 1663h47v-47h-23l-70 -11q-21 11 -47 11v24h58zM424 1254q23 -59 23 -81l-23 -12l11 -23v-12l-35 -47l12 -58h-12 q0 -15 59 -58v-24q0 -23 -24 -23l12 -23v-12q-47 0 -47 -58h35q0 23 70 23q12 -23 12 -35q-23 -4 -23 -23q46 -12 46 -47l-11 -23q4 -34 105 -94q0 -58 58 -58q139 -175 163 -175h12v-12q0 -11 -12 -11l12 -24l-12 -23q82 28 82 47q-47 0 -47 23v12q59 31 59 93h46l24 -12 q28 105 116 105q0 36 47 59q0 58 93 58v23h-35v24q27 0 59 46v59q116 9 116 35q-35 0 -35 23l12 58h12l58 -11l-47 58v12h12l23 -12q0 12 12 12q-12 22 -12 35q12 35 24 35l-24 163l-58 -12l-23 12q0 -16 -59 -58h-11v23h-47l12 -58l-59 -12h-11q0 35 -24 35 q-18 -91 -140 -198q0 -35 -46 -35l11 -24v-23l-58 -12q-17 47 -35 47l12 -23v-24h-82q0 30 -93 70h-24v-23h-11q-17 0 -35 35l11 82q-16 0 -35 35v35l12 23l-23 12q0 -24 -70 -24q0 80 -47 117h-58v35q-18 0 -35 -47zM132 974q35 0 35 -23l23 12h12v-12q0 -12 -12 -12 q18 -46 35 -46v11q0 30 -23 105q-70 -11 -70 -35z" />
<glyph unicode="~" horiz-adv-x="1757" d="M669 1289h35q0 -18 23 -46l23 11h12q0 -35 35 -35q23 12 35 12l12 -23l-24 -35q4 -24 24 -24h35l-12 24q4 23 23 23h24l-12 -82q82 -32 82 -46v-35q105 -21 105 -82h11v23h12v-35q-12 -22 -12 -35q51 0 94 -35l11 47h12l23 -12q8 82 35 82q23 -12 35 -12l-11 -23l46 -35 q0 35 12 35q-15 58 -58 58v35q44 0 70 105q70 0 70 -35h46v12l-11 23l35 24l-12 58v12q35 0 35 23h35v-35l-12 -23l59 35h35v-24q-47 0 -47 -23v-12l23 12h12v-23l-58 -70l70 -12q3 23 23 23q23 -11 35 -11v-24q0 -16 -35 -35h-11l-24 12v-58l24 11q46 -23 46 -35 q0 -35 -35 -35l12 -23v-12h-35q0 24 -24 24v23h36v23q-40 0 -59 12v-12q12 0 12 -11q-24 -4 -24 -24q19 0 47 -46l-70 -59q58 0 58 -23v-23q-78 0 -105 -70q-70 0 -70 -35q24 -4 24 -24v-35q-24 0 -70 -46h-12q-23 18 -70 93h-47q0 -35 -35 -35l-35 -35l-23 12v-12 q12 -23 12 -35h-35v35q-24 0 -24 -70h-35v47q-128 33 -128 70v11l12 24l-24 11q0 -35 -23 -35h-35q0 24 -23 24v23l11 23l-70 35h-11v-23h-24l24 117l-24 -12q-23 0 -46 70l-82 -12q-19 47 -82 47q-55 0 -81 -82h23v24h23v-24q0 -23 -23 -23q-23 12 -35 12l-12 -24h24v-23 h-35v23q-23 -11 -35 -11l11 -59h-11l-47 35v-11q12 -21 12 -47q-12 0 -12 -12h23q0 -60 -58 -81v-12h-12q-23 0 -23 35h-58l11 -23v-12q0 -23 -23 -23q-23 11 -35 11v35h23v12q-23 29 -23 58h-12q0 -46 -58 -46q-12 20 -12 46h-11q0 -35 -24 -35h-23l-12 47l35 23h59v24 q-59 0 -59 23v23q0 30 47 35q-23 38 -23 59q16 0 116 116q23 12 35 12q12 -19 12 -58h23l-11 58q27 152 128 152q0 -35 23 -35l-11 23q0 23 35 23v24h-24v11q4 24 24 24h23q0 -73 58 -105q12 22 12 35h12l23 -12v35h35l23 -12q0 24 24 70zM1439 1196h35v-47l-59 12v12 q4 23 24 23z" />
<glyph unicode="&#xa2;" horiz-adv-x="1337" d="M855 1465q35 -12 35 -71l-58 -23q0 12 -12 12v-12l105 -47q0 -18 -46 -46q0 -13 -12 -35q17 0 35 -35v-12l-12 -23l24 11h23v-11q0 -24 -23 -24l-24 12l-11 -23l23 -35l23 11h24l23 -11l-12 23v12q4 23 24 23h23v-35h-23v-12h46l-11 24v11q0 17 35 35h58q18 0 35 -46 l23 11h24v-58h-35v23h-24q59 -67 59 -81l-12 -24q12 -20 12 -46v-12h-12l-23 12v-24q46 0 46 -23v-12q-35 -29 -35 -58h-35v23l-11 82h-12q0 -35 -23 -35h-59q0 -23 -23 -23q-38 23 -58 23q0 -34 -59 -128q0 -24 -23 -24v-23q20 -17 35 -152q12 0 12 -11h-24v-24h24v-23 q-35 0 -35 -23h35v-12l-59 -47l24 -11q3 23 23 23h12l23 -12l-12 24v11q20 0 59 35h23v-58q-58 0 -58 -23h23q23 11 35 11q12 -22 12 -35q23 0 35 94h46q24 0 24 -59h11q24 0 24 24v35q35 0 35 35h11q24 -4 24 -24v-23h-35v-35q0 -23 35 -23l-12 -24q0 -16 35 -35v24h35 q0 -61 -35 -70q-20 55 -105 70v-24q56 0 105 -58v-23q0 -24 -35 -24l23 -35l-23 -58q-105 0 -105 82q-62 -105 -117 -105q-81 0 -81 -59h-12l-58 12q0 -12 -12 -12l12 -23q0 -12 -12 -12q0 -105 47 -105v-23h-47q0 35 -23 35h-24l-46 -35h-12l-35 23h-35l12 -23v-47 q0 -23 -24 -23h-11l23 35q-70 0 -70 70h-47v12q0 11 12 11q-23 39 -23 70l23 35v12q-58 0 -58 35l23 35h-12q0 -26 -105 -35q-46 61 -46 82v23h-47q0 -35 -23 -35h-24q-30 47 -58 47h-23q0 49 58 105q0 10 -82 70q-11 -23 -11 -35h-24q-17 0 -35 58h-35v47l105 46 q-11 47 -46 47q-23 -12 -35 -12l-24 35l24 35v12q0 12 -12 12q70 122 70 151h23l47 -23v35h-47v58q49 0 59 82h11l24 -12q0 33 93 59v11q-12 21 -12 47q35 0 35 47h24v-59h11q24 0 24 24v11h-24l24 47l58 -12h58v24h24l23 -12l-12 23q24 39 24 70v12q-35 0 -35 12 q16 81 46 81q24 -3 24 -23q81 0 81 58q23 -23 70 -23q0 47 24 47h35q-12 22 -12 35zM552 834q-12 -70 -35 -70h-23q-12 0 -12 12q-23 -12 -35 -12v-11q35 0 35 -24v-23q0 -23 -23 -23h-24l-35 23q-23 -4 -23 -23v-12h70q0 -49 -23 -117q46 0 46 -81l47 -24q0 29 35 59 q-23 0 -23 23l23 35q-12 23 -12 35q12 23 12 35h12l23 -12l12 82v12q0 29 -47 35v35q35 0 35 23z" />
<glyph unicode="&#xa3;" horiz-adv-x="1558" d="M1240 1768l47 -35q0 12 12 12l11 -24v-11q0 -24 -35 -24v-23h12l23 12q0 -12 12 -12l-12 23q4 24 24 24h11q0 -18 35 -47q0 -26 -11 -47q11 -22 11 -35q-23 -3 -23 -23q23 12 35 12l-12 58h59v-23h-24v-12h24v-35q-35 0 -35 -70l-24 12l12 -24v-11q0 -24 -35 -24v-35 q47 0 47 -35l-59 -12h-35v24h24v11h-12q-30 0 -82 -35q-70 16 -70 47h-23v-35h-23v23q-39 -23 -70 -23q0 12 -12 12v-12q12 0 12 -12l-24 -11h-11v11l11 24l-23 11h-35v-58q-93 -70 -93 -105q0 -46 -59 -82q0 -18 -93 -58v-12l70 -46h12l35 23h11q27 0 47 -12q20 12 47 12 q0 -27 46 -47v12q-11 21 -11 47h35q0 -35 35 -35v-12l-12 -23q70 -12 70 -59l-23 -11q-18 46 -35 46q0 -23 -47 -70q29 -23 47 -23v-47h-12q-23 12 -35 12q8 -58 58 -58l-11 -24h23l-12 -23h24q0 -17 -70 -58q0 21 -82 58l12 -23v-12q0 -23 -24 -23h-11q-24 0 -24 23v12 l12 23q-47 0 -47 47q-24 0 -46 -59q-28 0 -82 -46h-12v23h-35q-11 0 -11 -12q-59 0 -59 70h-11v-58q22 -12 35 -12v-35l-59 -93l12 -23v-24q-36 0 -70 -58l58 -23v-24q-16 0 -46 -46h-35v-47q26 0 35 -47q93 0 93 -35l58 47q18 -47 35 -47v24q-11 22 -11 35l23 11 q23 -3 23 -23q-11 -23 -11 -35l35 -23q0 70 93 70h12q13 0 58 -70q0 11 12 11l-12 24v23q0 23 82 35v-12l-24 -35h82v24l23 -12h12v12h-23q3 23 23 23h23v-58q83 46 164 46l46 -58q-11 -23 -11 -35l23 12h47l11 -70l-23 -12l12 -23v-12l-12 -58q23 0 23 -35q0 -59 -46 -70 q-35 11 -35 23l-24 -12l-35 24h-58l-12 70h-23q0 -27 -47 -47h-11v12l11 23l-23 12l-23 -12q11 -23 11 -35q0 -42 -140 -58q0 17 -46 35q-47 -43 -47 -59h-47v12q12 23 12 35h-12l-46 -12l11 24v11h-11q0 -18 -24 -46q-35 11 -35 23l-46 -23l11 -24v-11h-23v46h-23v-46h-35 q-24 0 -24 23v23q0 24 35 24v11h-11l-24 -11h-35q0 -35 -23 -35l-47 35q-23 -4 -23 -24l23 12q24 -4 24 -23v-35h-35l-82 -12v12l12 58h-12q-23 -12 -35 -12l-12 24v23h47q0 23 -70 35l-12 -23q12 -21 12 -47h-12l12 -23v-12q-96 57 -117 105v12l47 46q-12 0 -12 12h24v23 h-59v-11h-11l-59 11l12 59l-35 58v12q26 0 35 46h12l-12 24v11h23v-23h24q0 63 35 93l-12 24l12 23l-12 23q35 70 58 70l-11 59v11q46 0 46 82q-12 0 -35 12q-11 -23 -11 -35h-47v35l-23 -12l-24 12q0 -24 -23 -24q-47 18 -47 35v24q14 0 94 46q-12 21 -12 47l-58 -35 l-59 12l24 81h11l35 -23l-11 82v23h35v70q32 -23 81 -23v11h35v-11l-11 -24l35 -23q81 28 81 58v35h12l35 -23q-23 38 -23 58q19 12 58 12v12l-12 70q12 22 12 35h23l24 -12q11 23 11 35l-11 58q14 0 70 70l46 12v12l-23 35v35h58l59 -12q70 59 70 105q-27 0 -35 59l23 11 l47 -35q0 35 -35 35l23 35l70 -11v-12h-23v-47l46 -11v11l-11 70v24h23q0 -35 23 -35v23h24q23 -4 23 -23v-12l-12 -23q19 0 47 -24h12q-35 43 -35 82v23q58 0 58 -46l23 11h12v-35h23q0 105 70 105l24 -70l23 12l23 -12v12q-23 0 -23 23v24q4 23 23 23zM1474 1570h35v-12 q0 -58 -35 -58l11 -24q0 -23 -35 -23v-23l24 11v-35h-24q-23 0 -23 24q20 140 47 140zM190 1068h35v-24h-11q-24 0 -24 24zM424 648q0 -35 -47 -35v-24q35 0 35 -23h12q23 0 23 23q-12 23 -12 35q12 0 12 12zM330 554q0 -27 94 -35q0 24 -24 24q0 -12 -11 -12q0 23 -24 23 h-35zM1450 286h12q0 -18 23 -47q-11 -20 -11 -46h-12q-17 0 -35 35v35q4 23 23 23zM750 -52h24v-24h-24v24z" />
<glyph unicode="&#xad;" d="M564 1149q18 0 70 -93q22 12 35 12l-12 23v12q0 17 35 35l35 -24h12v35h58q23 0 23 -35h24v24h11l70 -35q0 23 105 35q4 -24 24 -24q64 12 93 12v-82h-12l-23 12l-35 -58l23 -12q4 23 24 23q23 0 23 -35q-12 -22 -12 -35h-11l-24 12v-23l12 -24q-19 -52 -70 -81l-23 11 v-70h-12q-23 0 -23 24q-48 -24 -70 -24v12q0 12 11 12l-23 58q12 0 12 12q-13 0 -35 11q0 -23 -24 -23h-23l-58 12v-24l23 -35v-11q-19 0 -35 -24l-70 59q0 -13 -12 -35h24v-24l-59 24l-23 -12q-37 19 -105 35q-23 -28 -23 -47h-12q-14 0 -128 24h-12l-82 -59q-28 24 -46 24 v35l23 35q-47 0 -47 70v23h-11q0 -105 -24 -105l-23 12q0 -35 -35 -35q0 17 -47 46v24q4 23 24 23q-24 47 -24 82h12l23 -12q0 18 24 47q-47 0 -47 23v35q0 17 35 35q70 -23 70 -47v-23h12q0 70 46 70q39 -23 70 -23q0 35 35 35q35 -12 35 -24q-11 -22 -11 -35h58 q23 -3 23 -23l-11 -23q22 -12 35 -12q0 -35 -35 -35v-23l46 -12l-11 23v12q0 23 46 23v24q-46 0 -46 58l23 12h58v-24h12v35q-26 0 -47 12q-22 -12 -35 -12v35h70q0 35 24 35z" />
<glyph unicode="&#x2000;" horiz-adv-x="942" />
<glyph unicode="&#x2001;" horiz-adv-x="1885" />
<glyph unicode="&#x2002;" horiz-adv-x="942" />
<glyph unicode="&#x2003;" horiz-adv-x="1885" />
<glyph unicode="&#x2004;" horiz-adv-x="628" />
<glyph unicode="&#x2005;" horiz-adv-x="471" />
<glyph unicode="&#x2006;" horiz-adv-x="314" />
<glyph unicode="&#x2007;" horiz-adv-x="314" />
<glyph unicode="&#x2008;" horiz-adv-x="235" />
<glyph unicode="&#x2009;" horiz-adv-x="377" />
<glyph unicode="&#x200a;" horiz-adv-x="104" />
<glyph unicode="&#x2010;" d="M564 1149q18 0 70 -93q22 12 35 12l-12 23v12q0 17 35 35l35 -24h12v35h58q23 0 23 -35h24v24h11l70 -35q0 23 105 35q4 -24 24 -24q64 12 93 12v-82h-12l-23 12l-35 -58l23 -12q4 23 24 23q23 0 23 -35q-12 -22 -12 -35h-11l-24 12v-23l12 -24q-19 -52 -70 -81l-23 11 v-70h-12q-23 0 -23 24q-48 -24 -70 -24v12q0 12 11 12l-23 58q12 0 12 12q-13 0 -35 11q0 -23 -24 -23h-23l-58 12v-24l23 -35v-11q-19 0 -35 -24l-70 59q0 -13 -12 -35h24v-24l-59 24l-23 -12q-37 19 -105 35q-23 -28 -23 -47h-12q-14 0 -128 24h-12l-82 -59q-28 24 -46 24 v35l23 35q-47 0 -47 70v23h-11q0 -105 -24 -105l-23 12q0 -35 -35 -35q0 17 -47 46v24q4 23 24 23q-24 47 -24 82h12l23 -12q0 18 24 47q-47 0 -47 23v35q0 17 35 35q70 -23 70 -47v-23h12q0 70 46 70q39 -23 70 -23q0 35 35 35q35 -12 35 -24q-11 -22 -11 -35h58 q23 -3 23 -23l-11 -23q22 -12 35 -12q0 -35 -35 -35v-23l46 -12l-11 23v12q0 23 46 23v24q-46 0 -46 58l23 12h58v-24h12v35q-26 0 -47 12q-22 -12 -35 -12v35h70q0 35 24 35z" />
<glyph unicode="&#x2011;" d="M564 1149q18 0 70 -93q22 12 35 12l-12 23v12q0 17 35 35l35 -24h12v35h58q23 0 23 -35h24v24h11l70 -35q0 23 105 35q4 -24 24 -24q64 12 93 12v-82h-12l-23 12l-35 -58l23 -12q4 23 24 23q23 0 23 -35q-12 -22 -12 -35h-11l-24 12v-23l12 -24q-19 -52 -70 -81l-23 11 v-70h-12q-23 0 -23 24q-48 -24 -70 -24v12q0 12 11 12l-23 58q12 0 12 12q-13 0 -35 11q0 -23 -24 -23h-23l-58 12v-24l23 -35v-11q-19 0 -35 -24l-70 59q0 -13 -12 -35h24v-24l-59 24l-23 -12q-37 19 -105 35q-23 -28 -23 -47h-12q-14 0 -128 24h-12l-82 -59q-28 24 -46 24 v35l23 35q-47 0 -47 70v23h-11q0 -105 -24 -105l-23 12q0 -35 -35 -35q0 17 -47 46v24q4 23 24 23q-24 47 -24 82h12l23 -12q0 18 24 47q-47 0 -47 23v35q0 17 35 35q70 -23 70 -47v-23h12q0 70 46 70q39 -23 70 -23q0 35 35 35q35 -12 35 -24q-11 -22 -11 -35h58 q23 -3 23 -23l-11 -23q22 -12 35 -12q0 -35 -35 -35v-23l46 -12l-11 23v12q0 23 46 23v24q-46 0 -46 58l23 12h58v-24h12v35q-26 0 -47 12q-22 -12 -35 -12v35h70q0 35 24 35z" />
<glyph unicode="&#x2012;" d="M564 1149q18 0 70 -93q22 12 35 12l-12 23v12q0 17 35 35l35 -24h12v35h58q23 0 23 -35h24v24h11l70 -35q0 23 105 35q4 -24 24 -24q64 12 93 12v-82h-12l-23 12l-35 -58l23 -12q4 23 24 23q23 0 23 -35q-12 -22 -12 -35h-11l-24 12v-23l12 -24q-19 -52 -70 -81l-23 11 v-70h-12q-23 0 -23 24q-48 -24 -70 -24v12q0 12 11 12l-23 58q12 0 12 12q-13 0 -35 11q0 -23 -24 -23h-23l-58 12v-24l23 -35v-11q-19 0 -35 -24l-70 59q0 -13 -12 -35h24v-24l-59 24l-23 -12q-37 19 -105 35q-23 -28 -23 -47h-12q-14 0 -128 24h-12l-82 -59q-28 24 -46 24 v35l23 35q-47 0 -47 70v23h-11q0 -105 -24 -105l-23 12q0 -35 -35 -35q0 17 -47 46v24q4 23 24 23q-24 47 -24 82h12l23 -12q0 18 24 47q-47 0 -47 23v35q0 17 35 35q70 -23 70 -47v-23h12q0 70 46 70q39 -23 70 -23q0 35 35 35q35 -12 35 -24q-11 -22 -11 -35h58 q23 -3 23 -23l-11 -23q22 -12 35 -12q0 -35 -35 -35v-23l46 -12l-11 23v12q0 23 46 23v24q-46 0 -46 58l23 12h58v-24h12v35q-26 0 -47 12q-22 -12 -35 -12v35h70q0 35 24 35z" />
</font>
</defs>
</svg>
